%FSLAX25Y25*%
%MOIN*%
G70*
G01*
G75*
%ADD10R,0.03150X0.04724*%
%ADD11R,0.06693X0.04921*%
G04:AMPARAMS|DCode=12|XSize=70.87mil|YSize=57.09mil|CornerRadius=0mil|HoleSize=0mil|Usage=FLASHONLY|Rotation=180.000|XOffset=0mil|YOffset=0mil|HoleType=Round|Shape=Octagon|*
%AMOCTAGOND12*
4,1,8,-0.03543,0.01427,-0.03543,-0.01427,-0.02116,-0.02854,0.02116,-0.02854,0.03543,-0.01427,0.03543,0.01427,0.02116,0.02854,-0.02116,0.02854,-0.03543,0.01427,0.0*
%
%ADD12OCTAGOND12*%

G04:AMPARAMS|DCode=13|XSize=59.06mil|YSize=31.5mil|CornerRadius=0mil|HoleSize=0mil|Usage=FLASHONLY|Rotation=180.000|XOffset=0mil|YOffset=0mil|HoleType=Round|Shape=Octagon|*
%AMOCTAGOND13*
4,1,8,-0.02953,0.00787,-0.02953,-0.00787,-0.02165,-0.01575,0.02165,-0.01575,0.02953,-0.00787,0.02953,0.00787,0.02165,0.01575,-0.02165,0.01575,-0.02953,0.00787,0.0*
%
%ADD13OCTAGOND13*%

%ADD14R,0.05906X0.03150*%
G04:AMPARAMS|DCode=15|XSize=70.87mil|YSize=43.31mil|CornerRadius=0mil|HoleSize=0mil|Usage=FLASHONLY|Rotation=270.000|XOffset=0mil|YOffset=0mil|HoleType=Round|Shape=Octagon|*
%AMOCTAGOND15*
4,1,8,-0.01083,-0.03543,0.01083,-0.03543,0.02165,-0.02461,0.02165,0.02461,0.01083,0.03543,-0.01083,0.03543,-0.02165,0.02461,-0.02165,-0.02461,-0.01083,-0.03543,0.0*
%
%ADD15OCTAGOND15*%

%ADD16O,0.05906X0.03937*%
%ADD17R,0.05906X0.03937*%
%ADD18O,0.03937X0.05906*%
%ADD19R,0.04921X0.06693*%
%ADD20R,0.05118X0.04134*%
G04:AMPARAMS|DCode=21|XSize=47.24mil|YSize=39.37mil|CornerRadius=0mil|HoleSize=0mil|Usage=FLASHONLY|Rotation=270.000|XOffset=0mil|YOffset=0mil|HoleType=Round|Shape=Octagon|*
%AMOCTAGOND21*
4,1,8,-0.00984,-0.02362,0.00984,-0.02362,0.01969,-0.01378,0.01969,0.01378,0.00984,0.02362,-0.00984,0.02362,-0.01969,0.01378,-0.01969,-0.01378,-0.00984,-0.02362,0.0*
%
%ADD21OCTAGOND21*%

G04:AMPARAMS|DCode=22|XSize=39.37mil|YSize=25.59mil|CornerRadius=0mil|HoleSize=0mil|Usage=FLASHONLY|Rotation=270.000|XOffset=0mil|YOffset=0mil|HoleType=Round|Shape=Octagon|*
%AMOCTAGOND22*
4,1,8,-0.00640,-0.01969,0.00640,-0.01969,0.01280,-0.01329,0.01280,0.01329,0.00640,0.01969,-0.00640,0.01969,-0.01280,0.01329,-0.01280,-0.01329,-0.00640,-0.01969,0.0*
%
%ADD22OCTAGOND22*%

G04:AMPARAMS|DCode=23|XSize=39.37mil|YSize=19.69mil|CornerRadius=0mil|HoleSize=0mil|Usage=FLASHONLY|Rotation=270.000|XOffset=0mil|YOffset=0mil|HoleType=Round|Shape=Octagon|*
%AMOCTAGOND23*
4,1,8,-0.00492,-0.01969,0.00492,-0.01969,0.00984,-0.01476,0.00984,0.01476,0.00492,0.01969,-0.00492,0.01969,-0.00984,0.01476,-0.00984,-0.01476,-0.00492,-0.01969,0.0*
%
%ADD23OCTAGOND23*%

%ADD24R,0.04134X0.05118*%
%ADD25R,0.07874X0.23622*%
%ADD26R,0.09055X0.04685*%
%ADD27R,0.30299X0.25598*%
%ADD28R,0.04724X0.03150*%
%ADD29R,0.01969X0.09843*%
%ADD30R,0.07874X0.09843*%
%ADD31O,0.00984X0.06102*%
%ADD32O,0.06102X0.00984*%
%ADD33O,0.04134X0.02165*%
%ADD34R,0.04134X0.02165*%
%ADD35C,0.02000*%
%ADD36C,0.01000*%
%ADD37C,0.00787*%
%ADD38C,0.03937*%
%ADD39C,0.01732*%
%ADD40C,0.01181*%
%ADD41C,0.01575*%
%ADD42C,0.19685*%
%ADD43R,0.11811X0.11811*%
%ADD44C,0.11811*%
%ADD45R,0.05906X0.05906*%
%ADD46C,0.05906*%
%ADD47R,0.05906X0.05906*%
%ADD48R,0.06890X0.06890*%
%ADD49C,0.06890*%
%ADD50C,0.06496*%
%ADD51C,0.07874*%
%ADD52O,0.09843X0.07874*%
%ADD53R,0.04921X0.04921*%
%ADD54C,0.04921*%
%ADD55R,0.04724X0.04724*%
%ADD56C,0.04724*%
%ADD57C,0.03937*%
%ADD58C,0.08858*%
%ADD59R,0.08858X0.08858*%
%ADD60C,0.15748*%
%ADD61C,0.05000*%
%ADD62C,0.02701*%
G04:AMPARAMS|DCode=63|XSize=39.37mil|YSize=25.59mil|CornerRadius=0mil|HoleSize=0mil|Usage=FLASHONLY|Rotation=180.000|XOffset=0mil|YOffset=0mil|HoleType=Round|Shape=Octagon|*
%AMOCTAGOND63*
4,1,8,-0.01969,0.00640,-0.01969,-0.00640,-0.01329,-0.01280,0.01329,-0.01280,0.01969,-0.00640,0.01969,0.00640,0.01329,0.01280,-0.01329,0.01280,-0.01969,0.00640,0.0*
%
%ADD63OCTAGOND63*%

G04:AMPARAMS|DCode=64|XSize=39.37mil|YSize=19.69mil|CornerRadius=0mil|HoleSize=0mil|Usage=FLASHONLY|Rotation=180.000|XOffset=0mil|YOffset=0mil|HoleType=Round|Shape=Octagon|*
%AMOCTAGOND64*
4,1,8,-0.01969,0.00492,-0.01969,-0.00492,-0.01476,-0.00984,0.01476,-0.00984,0.01969,-0.00492,0.01969,0.00492,0.01476,0.00984,-0.01476,0.00984,-0.01969,0.00492,0.0*
%
%ADD64OCTAGOND64*%

%ADD65R,0.04724X0.09449*%
%ADD66R,0.04724X0.04724*%
%ADD67R,0.07874X0.07874*%
%ADD68R,0.11000X0.15000*%
%ADD69C,0.02362*%
%ADD70C,0.00984*%
%ADD71C,0.00197*%
%ADD72C,0.00394*%
%ADD73C,0.00591*%
%ADD74C,0.06200*%
%ADD75C,0.00500*%
%ADD76C,0.00667*%
%ADD77C,0.00400*%
D75*
X553915Y19685D02*
X566415D01*
X560165Y13435D02*
Y25935D01*
X170915Y19685D02*
X183415D01*
X177165Y13435D02*
Y25935D01*
X376532Y288500D02*
X380469D01*
X378500Y286531D02*
Y290469D01*
X376532Y368815D02*
X380469D01*
X378500Y366846D02*
Y370783D01*
X555728Y118000D02*
X559272D01*
X557500Y116228D02*
Y119772D01*
X555728Y108000D02*
X559272D01*
X557500Y106228D02*
Y109772D01*
X555728Y98000D02*
X559272D01*
X557500Y96228D02*
Y99772D01*
X319941Y221787D02*
X323484D01*
X321713Y220016D02*
Y223559D01*
X319941Y231787D02*
X323484D01*
X321713Y230016D02*
Y233559D01*
X319941Y241787D02*
X323484D01*
X321713Y240016D02*
Y243559D01*
X531228Y49000D02*
X534772D01*
X533000Y47228D02*
Y50772D01*
X531228Y59000D02*
X534772D01*
X533000Y57228D02*
Y60772D01*
X664728Y10500D02*
X668272D01*
X666500Y8728D02*
Y12272D01*
X654728Y10500D02*
X658272D01*
X656500Y8728D02*
Y12272D01*
X307933Y294992D02*
X311083D01*
X309508Y293417D02*
Y296567D01*
X317933Y294992D02*
X321083D01*
X319508Y293417D02*
Y296567D01*
X307933Y304992D02*
X311083D01*
X309508Y303417D02*
Y306567D01*
X317933Y304992D02*
X321083D01*
X319508Y303417D02*
Y306567D01*
X317933Y324992D02*
X321083D01*
X319508Y323417D02*
Y326567D01*
X307933Y324992D02*
X311083D01*
X309508Y323417D02*
Y326567D01*
X317933Y314992D02*
X321083D01*
X319508Y313417D02*
Y316567D01*
X307933Y314992D02*
X311083D01*
X309508Y313417D02*
Y316567D01*
X6250Y277000D02*
X18750D01*
X12500Y270750D02*
Y283250D01*
X309250Y379992D02*
X321750D01*
X315500Y373742D02*
Y386242D01*
X309250Y277000D02*
X321750D01*
X315500Y270750D02*
Y283250D01*
X6250Y379992D02*
X18750D01*
X12500Y373742D02*
Y386242D01*
X294441Y251787D02*
X297984D01*
X296213Y250016D02*
Y253559D01*
X304441Y251787D02*
X307984D01*
X306213Y250016D02*
Y253559D01*
X294441Y241787D02*
X297984D01*
X296213Y240016D02*
Y243559D01*
X304441Y241787D02*
X307984D01*
X306213Y240016D02*
Y243559D01*
X294441Y231787D02*
X297984D01*
X296213Y230016D02*
Y233559D01*
X304441Y231787D02*
X307984D01*
X306213Y230016D02*
Y233559D01*
X294441Y221787D02*
X297984D01*
X296213Y220016D02*
Y223559D01*
X304441Y221787D02*
X307984D01*
X306213Y220016D02*
Y223559D01*
X11228Y194500D02*
X14772D01*
X13000Y192728D02*
Y196272D01*
X11228Y204500D02*
X14772D01*
X13000Y202728D02*
Y206272D01*
X11228Y214500D02*
X14772D01*
X13000Y212728D02*
Y216272D01*
X11228Y224500D02*
X14772D01*
X13000Y222728D02*
Y226272D01*
X11228Y234500D02*
X14772D01*
X13000Y232728D02*
Y236272D01*
X11228Y244500D02*
X14772D01*
X13000Y242728D02*
Y246272D01*
X87232Y110016D02*
X91169D01*
X89201Y108047D02*
Y111984D01*
X87232Y61984D02*
X91169D01*
X89201Y60016D02*
Y63953D01*
X102232Y61984D02*
X106169D01*
X104201Y60016D02*
Y63953D01*
X102232Y110016D02*
X106169D01*
X104201Y108047D02*
Y111984D01*
X29929Y102823D02*
X33472D01*
X31701Y101051D02*
Y104595D01*
X29929Y112823D02*
X33472D01*
X31701Y111051D02*
Y114594D01*
X43429Y5283D02*
X48154D01*
X45791Y2921D02*
Y7646D01*
X55240Y23000D02*
X59965D01*
X57602Y20638D02*
Y25362D01*
X31618Y23000D02*
X36343D01*
X33980Y20638D02*
Y25362D01*
X18035Y65657D02*
X22366D01*
X20201Y63492D02*
Y67823D01*
X18035Y85343D02*
X22366D01*
X20201Y83177D02*
Y87508D01*
X87787Y45000D02*
X90740D01*
X89264Y43524D02*
Y46476D01*
X95661Y45000D02*
X98614D01*
X97138Y43524D02*
Y46476D01*
X579012Y115933D02*
X581374D01*
X580193Y114752D02*
Y117114D01*
X579012Y108059D02*
X581374D01*
X580193Y106878D02*
Y109240D01*
X579012Y100185D02*
X581374D01*
X580193Y99004D02*
Y101366D01*
X579012Y92311D02*
X581374D01*
X580193Y91130D02*
Y93492D01*
X579012Y84437D02*
X581374D01*
X580193Y83256D02*
Y85618D01*
X579012Y76563D02*
X581374D01*
X580193Y75382D02*
Y77744D01*
X579012Y68689D02*
X581374D01*
X580193Y67508D02*
Y69870D01*
X579012Y60815D02*
X581374D01*
X580193Y59634D02*
Y61996D01*
X579012Y52941D02*
X581374D01*
X580193Y51760D02*
Y54122D01*
X579012Y45067D02*
X581374D01*
X580193Y43886D02*
Y46248D01*
X665626Y115933D02*
X667988D01*
X666807Y114752D02*
Y117114D01*
X665626Y108059D02*
X667988D01*
X666807Y106878D02*
Y109240D01*
X665626Y100185D02*
X667988D01*
X666807Y99004D02*
Y101366D01*
X665626Y92311D02*
X667988D01*
X666807Y91130D02*
Y93492D01*
X665626Y84437D02*
X667988D01*
X666807Y83256D02*
Y85618D01*
X665626Y76563D02*
X667988D01*
X666807Y75382D02*
Y77744D01*
X665626Y68689D02*
X667988D01*
X666807Y67508D02*
Y69870D01*
X665626Y60815D02*
X667988D01*
X666807Y59634D02*
Y61996D01*
X665626Y52941D02*
X667988D01*
X666807Y51760D02*
Y54122D01*
X665626Y45067D02*
X667988D01*
X666807Y43886D02*
Y46248D01*
X287819Y22114D02*
X291756D01*
X289787Y20146D02*
Y24083D01*
X270850Y22114D02*
X274787D01*
X272819Y20146D02*
Y24083D01*
X498244Y250008D02*
X502181D01*
X500213Y248039D02*
Y251976D01*
X498244Y265756D02*
X502181D01*
X500213Y263788D02*
Y267724D01*
X498244Y281504D02*
X502181D01*
X500213Y279536D02*
Y283472D01*
X498244Y297252D02*
X502181D01*
X500213Y295284D02*
Y299220D01*
X498244Y313000D02*
X502181D01*
X500213Y311032D02*
Y314968D01*
X498244Y328748D02*
X502181D01*
X500213Y326780D02*
Y330716D01*
X498244Y344496D02*
X502181D01*
X500213Y342528D02*
Y346464D01*
X498244Y360244D02*
X502181D01*
X500213Y358276D02*
Y362212D01*
X498244Y375992D02*
X502181D01*
X500213Y374024D02*
Y377961D01*
X643913Y362213D02*
X659661D01*
X651787Y354339D02*
Y370087D01*
X643913Y263787D02*
X659661D01*
X651787Y255913D02*
Y271661D01*
X511039Y379929D02*
X526787D01*
X518913Y372055D02*
Y387803D01*
X511039Y246071D02*
X526787D01*
X518913Y238197D02*
Y253945D01*
X476728Y359000D02*
X480272D01*
X478500Y357228D02*
Y360772D01*
X476728Y349000D02*
X480272D01*
X478500Y347228D02*
Y350772D01*
X476728Y339000D02*
X480272D01*
X478500Y337228D02*
Y340772D01*
X476728Y329000D02*
X480272D01*
X478500Y327228D02*
Y330772D01*
X387728Y114000D02*
X391272D01*
X389500Y112228D02*
Y115772D01*
X387728Y104000D02*
X391272D01*
X389500Y102228D02*
Y105772D01*
X387728Y94000D02*
X391272D01*
X389500Y92228D02*
Y95772D01*
X486228Y190000D02*
X489772D01*
X488000Y188228D02*
Y191772D01*
X486228Y180000D02*
X489772D01*
X488000Y178228D02*
Y181772D01*
X486228Y170000D02*
X489772D01*
X488000Y168228D02*
Y171772D01*
X486228Y160000D02*
X489772D01*
X488000Y158228D02*
Y161772D01*
X474600Y309500D02*
X477400D01*
X476000Y308100D02*
Y310900D01*
X516600Y113000D02*
X519400D01*
X518000Y111600D02*
Y114400D01*
X516600Y94500D02*
X519400D01*
X518000Y93100D02*
Y95900D01*
X515100Y337000D02*
X517900D01*
X516500Y335600D02*
Y338400D01*
X400750Y229500D02*
X402250D01*
X401500Y228750D02*
Y230250D01*
X333250Y241500D02*
X334750D01*
X334000Y240750D02*
Y242250D01*
X327750Y214000D02*
X329250D01*
X328500Y213250D02*
Y214750D01*
X345750Y231500D02*
X347250D01*
X346500Y230750D02*
Y232250D01*
X62100Y147000D02*
X64900D01*
X63500Y145600D02*
Y148400D01*
X152250Y120000D02*
X153750D01*
X153000Y119250D02*
Y120750D01*
X612250Y188500D02*
X613750D01*
X613000Y187750D02*
Y189250D01*
X513050Y190500D02*
X514550D01*
X513800Y189750D02*
Y191250D01*
X521750Y192000D02*
X523250D01*
X522500Y191250D02*
Y192750D01*
X505250Y192000D02*
X506750D01*
X506000Y191250D02*
Y192750D01*
X183600Y340000D02*
X186400D01*
X185000Y338600D02*
Y341400D01*
X251250Y127000D02*
X252750D01*
X252000Y126250D02*
Y127750D01*
X249250Y131000D02*
X250750D01*
X250000Y130250D02*
Y131750D01*
X228750Y98126D02*
X230250D01*
X229500Y97376D02*
Y98876D01*
X178404Y156654D02*
X179904D01*
X179154Y155904D02*
Y157404D01*
X467750Y249626D02*
X469250D01*
X468500Y248876D02*
Y250376D01*
X477750Y372626D02*
X479250D01*
X478500Y371876D02*
Y373376D01*
X552750Y45500D02*
X554250D01*
X553500Y44750D02*
Y46250D01*
X121600Y232500D02*
X124400D01*
X123000Y231100D02*
Y233900D01*
X6100Y144500D02*
X8900D01*
X7500Y143100D02*
Y145900D01*
X242578Y97339D02*
X244078D01*
X243328Y96589D02*
Y98089D01*
X240250Y101300D02*
X241750D01*
X241000Y100550D02*
Y102050D01*
X165293Y143500D02*
X166793D01*
X166043Y142750D02*
Y144250D01*
X188293Y204500D02*
X189793D01*
X189043Y203750D02*
Y205250D01*
X513250Y360500D02*
X514750D01*
X514000Y359750D02*
Y361250D01*
X548293Y67500D02*
X549793D01*
X549043Y66750D02*
Y68250D01*
X216750Y170000D02*
X218250D01*
X217500Y169250D02*
Y170750D01*
X221150Y95000D02*
X222650D01*
X221900Y94250D02*
Y95750D01*
X229150Y157200D02*
X230650D01*
X229900Y156450D02*
Y157950D01*
X212550Y156700D02*
X214050D01*
X213300Y155950D02*
Y157450D01*
X201350Y170000D02*
X202850D01*
X202100Y169250D02*
Y170750D01*
X199112Y113457D02*
X200612D01*
X199862Y112707D02*
Y114207D01*
X205250Y127300D02*
X206750D01*
X206000Y126550D02*
Y128050D01*
X286850Y136500D02*
X288350D01*
X287600Y135750D02*
Y137250D01*
X331850Y314992D02*
X333350D01*
X332600Y314242D02*
Y315742D01*
X21994Y106000D02*
X23494D01*
X22744Y105250D02*
Y106750D01*
X179150Y142874D02*
X180650D01*
X179900Y142124D02*
Y143624D01*
X627612Y180000D02*
X629112D01*
X628362Y179250D02*
Y180750D01*
X498550Y180000D02*
X500050D01*
X499300Y179250D02*
Y180750D01*
X238350Y152717D02*
X239850D01*
X239100Y151967D02*
Y153467D01*
X193544Y138400D02*
X195044D01*
X194294Y137650D02*
Y139150D01*
X219750Y350000D02*
X221250D01*
X220500Y349250D02*
Y350750D01*
X236450Y60800D02*
X237950D01*
X237200Y60050D02*
Y61550D01*
X251800Y84600D02*
X253300D01*
X252550Y83850D02*
Y85350D01*
X282850Y98000D02*
X284350D01*
X283600Y97250D02*
Y98750D01*
X323550Y95400D02*
X325050D01*
X324300Y94650D02*
Y96150D01*
X198550Y88000D02*
X200050D01*
X199300Y87250D02*
Y88750D01*
X332850Y91800D02*
X334350D01*
X333600Y91050D02*
Y92550D01*
X250051Y154685D02*
X251551D01*
X250801Y153935D02*
Y155435D01*
X309387Y64300D02*
X310887D01*
X310137Y63550D02*
Y65050D01*
X326950Y118100D02*
X328450D01*
X327700Y117350D02*
Y118850D01*
X328950Y75300D02*
X330450D01*
X329700Y74550D02*
Y76050D01*
X653450Y49300D02*
X654950D01*
X654200Y48550D02*
Y50050D01*
X619050Y40100D02*
X620550D01*
X619800Y39350D02*
Y40850D01*
X214124Y100200D02*
X215624D01*
X214874Y99450D02*
Y100950D01*
X268150Y154988D02*
X269650D01*
X268900Y154238D02*
Y155738D01*
X249750Y148500D02*
X251250D01*
X250500Y147750D02*
Y149250D01*
X270650Y174200D02*
X272150D01*
X271400Y173450D02*
Y174950D01*
X647950Y196100D02*
X649450D01*
X648700Y195350D02*
Y196850D01*
X263300Y109300D02*
X264800D01*
X264050Y108550D02*
Y110050D01*
X238350Y123189D02*
X239850D01*
X239100Y122439D02*
Y123939D01*
X243650Y55500D02*
X245150D01*
X244400Y54750D02*
Y56250D01*
X257450Y41700D02*
X258950D01*
X258200Y40950D02*
Y42450D01*
X243250Y82000D02*
X244750D01*
X244000Y81250D02*
Y82750D01*
X218950Y112800D02*
X220450D01*
X219700Y112050D02*
Y113550D01*
X224950Y156500D02*
X226450D01*
X225700Y155750D02*
Y157250D01*
X643550Y197492D02*
X645050D01*
X644300Y196742D02*
Y198242D01*
X231950Y72000D02*
X233450D01*
X232700Y71250D02*
Y72750D01*
X500850Y170000D02*
X502350D01*
X501600Y169250D02*
Y170750D01*
X145317Y220800D02*
X146817D01*
X146067Y220050D02*
Y221550D01*
X246650Y210500D02*
X248150D01*
X247400Y209750D02*
Y211250D01*
X265750Y121800D02*
X267250D01*
X266500Y121050D02*
Y122550D01*
X136250Y208800D02*
X137750D01*
X137000Y208050D02*
Y209550D01*
X140650Y170800D02*
X142150D01*
X141400Y170050D02*
Y171550D01*
X179050Y129000D02*
X180550D01*
X179800Y128250D02*
Y129750D01*
X532550Y160000D02*
X534050D01*
X533300Y159250D02*
Y160750D01*
X399250Y94126D02*
X400750D01*
X400000Y93376D02*
Y94876D01*
X490050Y41878D02*
X491550D01*
X490800Y41128D02*
Y42628D01*
X425350Y99933D02*
X426850D01*
X426100Y99183D02*
Y100683D01*
X249887Y159437D02*
X251387D01*
X250637Y158687D02*
Y160187D01*
M02*
