%FSLAX25Y25*%
%MOIN*%
G70*
G01*
G75*
G04 Layer_Color=65535*
%ADD10R,0.03150X0.04724*%
%ADD11R,0.06693X0.04921*%
G04:AMPARAMS|DCode=12|XSize=70.87mil|YSize=57.09mil|CornerRadius=0mil|HoleSize=0mil|Usage=FLASHONLY|Rotation=180.000|XOffset=0mil|YOffset=0mil|HoleType=Round|Shape=Octagon|*
%AMOCTAGOND12*
4,1,8,-0.03543,0.01427,-0.03543,-0.01427,-0.02116,-0.02854,0.02116,-0.02854,0.03543,-0.01427,0.03543,0.01427,0.02116,0.02854,-0.02116,0.02854,-0.03543,0.01427,0.0*
%
%ADD12OCTAGOND12*%

G04:AMPARAMS|DCode=13|XSize=59.06mil|YSize=31.5mil|CornerRadius=0mil|HoleSize=0mil|Usage=FLASHONLY|Rotation=180.000|XOffset=0mil|YOffset=0mil|HoleType=Round|Shape=Octagon|*
%AMOCTAGOND13*
4,1,8,-0.02953,0.00787,-0.02953,-0.00787,-0.02165,-0.01575,0.02165,-0.01575,0.02953,-0.00787,0.02953,0.00787,0.02165,0.01575,-0.02165,0.01575,-0.02953,0.00787,0.0*
%
%ADD13OCTAGOND13*%

%ADD14R,0.05906X0.03150*%
G04:AMPARAMS|DCode=15|XSize=70.87mil|YSize=43.31mil|CornerRadius=0mil|HoleSize=0mil|Usage=FLASHONLY|Rotation=270.000|XOffset=0mil|YOffset=0mil|HoleType=Round|Shape=Octagon|*
%AMOCTAGOND15*
4,1,8,-0.01083,-0.03543,0.01083,-0.03543,0.02165,-0.02461,0.02165,0.02461,0.01083,0.03543,-0.01083,0.03543,-0.02165,0.02461,-0.02165,-0.02461,-0.01083,-0.03543,0.0*
%
%ADD15OCTAGOND15*%

%ADD16O,0.05906X0.03937*%
%ADD17R,0.05906X0.03937*%
%ADD18O,0.03937X0.05906*%
%ADD19R,0.04921X0.06693*%
%ADD20R,0.05118X0.04134*%
G04:AMPARAMS|DCode=21|XSize=47.24mil|YSize=39.37mil|CornerRadius=0mil|HoleSize=0mil|Usage=FLASHONLY|Rotation=270.000|XOffset=0mil|YOffset=0mil|HoleType=Round|Shape=Octagon|*
%AMOCTAGOND21*
4,1,8,-0.00984,-0.02362,0.00984,-0.02362,0.01969,-0.01378,0.01969,0.01378,0.00984,0.02362,-0.00984,0.02362,-0.01969,0.01378,-0.01969,-0.01378,-0.00984,-0.02362,0.0*
%
%ADD21OCTAGOND21*%

G04:AMPARAMS|DCode=22|XSize=39.37mil|YSize=25.59mil|CornerRadius=0mil|HoleSize=0mil|Usage=FLASHONLY|Rotation=270.000|XOffset=0mil|YOffset=0mil|HoleType=Round|Shape=Octagon|*
%AMOCTAGOND22*
4,1,8,-0.00640,-0.01969,0.00640,-0.01969,0.01280,-0.01329,0.01280,0.01329,0.00640,0.01969,-0.00640,0.01969,-0.01280,0.01329,-0.01280,-0.01329,-0.00640,-0.01969,0.0*
%
%ADD22OCTAGOND22*%

G04:AMPARAMS|DCode=23|XSize=39.37mil|YSize=19.69mil|CornerRadius=0mil|HoleSize=0mil|Usage=FLASHONLY|Rotation=270.000|XOffset=0mil|YOffset=0mil|HoleType=Round|Shape=Octagon|*
%AMOCTAGOND23*
4,1,8,-0.00492,-0.01969,0.00492,-0.01969,0.00984,-0.01476,0.00984,0.01476,0.00492,0.01969,-0.00492,0.01969,-0.00984,0.01476,-0.00984,-0.01476,-0.00492,-0.01969,0.0*
%
%ADD23OCTAGOND23*%

%ADD24R,0.04134X0.05118*%
%ADD25R,0.07874X0.23622*%
%ADD26R,0.09055X0.04685*%
%ADD27R,0.30299X0.25598*%
%ADD28R,0.04724X0.03150*%
%ADD29R,0.01969X0.09843*%
%ADD30R,0.07874X0.09843*%
%ADD31O,0.00984X0.06102*%
%ADD32O,0.06102X0.00984*%
%ADD33O,0.04134X0.02165*%
%ADD34R,0.04134X0.02165*%
%ADD35C,0.02000*%
%ADD36C,0.01000*%
%ADD37C,0.00787*%
%ADD38C,0.03937*%
%ADD39C,0.01732*%
%ADD40C,0.01181*%
%ADD41C,0.01575*%
%ADD42C,0.19685*%
%ADD43R,0.11811X0.11811*%
%ADD44C,0.11811*%
%ADD45R,0.05906X0.05906*%
%ADD46C,0.05906*%
%ADD47R,0.05906X0.05906*%
%ADD48R,0.06890X0.06890*%
%ADD49C,0.06890*%
%ADD50C,0.06496*%
%ADD51C,0.07874*%
%ADD52O,0.09843X0.07874*%
%ADD53R,0.04921X0.04921*%
%ADD54C,0.04921*%
%ADD55R,0.04724X0.04724*%
%ADD56C,0.04724*%
%ADD57C,0.03937*%
%ADD58C,0.08858*%
%ADD59R,0.08858X0.08858*%
%ADD60C,0.15748*%
%ADD61C,0.05000*%
%ADD62C,0.02701*%
G04:AMPARAMS|DCode=63|XSize=39.37mil|YSize=25.59mil|CornerRadius=0mil|HoleSize=0mil|Usage=FLASHONLY|Rotation=180.000|XOffset=0mil|YOffset=0mil|HoleType=Round|Shape=Octagon|*
%AMOCTAGOND63*
4,1,8,-0.01969,0.00640,-0.01969,-0.00640,-0.01329,-0.01280,0.01329,-0.01280,0.01969,-0.00640,0.01969,0.00640,0.01329,0.01280,-0.01329,0.01280,-0.01969,0.00640,0.0*
%
%ADD63OCTAGOND63*%

G04:AMPARAMS|DCode=64|XSize=39.37mil|YSize=19.69mil|CornerRadius=0mil|HoleSize=0mil|Usage=FLASHONLY|Rotation=180.000|XOffset=0mil|YOffset=0mil|HoleType=Round|Shape=Octagon|*
%AMOCTAGOND64*
4,1,8,-0.01969,0.00492,-0.01969,-0.00492,-0.01476,-0.00984,0.01476,-0.00984,0.01969,-0.00492,0.01969,0.00492,0.01476,0.00984,-0.01476,0.00984,-0.01969,0.00492,0.0*
%
%ADD64OCTAGOND64*%

%ADD65R,0.04724X0.09449*%
%ADD66R,0.04724X0.04724*%
%ADD67R,0.07874X0.07874*%
%ADD68R,0.11000X0.15000*%
%ADD69C,0.02362*%
%ADD70C,0.00984*%
%ADD71C,0.00197*%
%ADD72C,0.00394*%
%ADD73C,0.00591*%
D36*
X423776Y342118D02*
G03*
X423776Y342118I-45276J0D01*
G01*
X366771Y298345D02*
G03*
X390229Y298345I11729J43773D01*
G01*
X513854Y61000D02*
G03*
X513854Y61000I-3354J0D01*
G01*
X142354Y148500D02*
G03*
X142354Y148500I-3354J0D01*
G01*
X508000Y68500D02*
X513000D01*
X505500Y66000D02*
X508000Y68500D01*
X505500Y56000D02*
Y66000D01*
Y56000D02*
X508000Y53500D01*
X513000D01*
X515500Y56000D01*
Y66000D01*
X513000Y68500D02*
X515500Y66000D01*
X1516Y302748D02*
Y334244D01*
X-43760Y308654D02*
Y328339D01*
X1516D01*
X-43760Y308654D02*
X1516D01*
Y334244D02*
X38248D01*
X1516Y302748D02*
X38248D01*
Y334244D01*
X136500Y141000D02*
X141500D01*
X144000Y143500D01*
Y153500D01*
X141500Y156000D02*
X144000Y153500D01*
X136500Y156000D02*
X141500D01*
X134000Y153500D02*
X136500Y156000D01*
X134000Y143500D02*
Y153500D01*
Y143500D02*
X136500Y141000D01*
X5201Y65500D02*
X7701Y63000D01*
Y68000D01*
X5201Y65500D02*
X7701Y68000D01*
X5201Y85500D02*
X7701Y83000D01*
Y88000D01*
X5201Y85500D02*
X7701Y88000D01*
X549425Y391740D02*
X671472Y372055D01*
X490370Y391740D02*
X549425D01*
X490370Y234260D02*
Y391740D01*
Y234260D02*
X549425D01*
X671472Y253945D01*
Y372055D01*
X267274Y174498D02*
X271273Y168500D01*
Y174498D02*
X267274Y168500D01*
X273272D02*
X275271D01*
X274272D01*
Y174498D01*
X273272Y173498D01*
X502000Y88998D02*
Y83000D01*
Y84999D01*
X505999Y88998D01*
X503000Y85999D01*
X505999Y83000D01*
X510997D02*
X508998D01*
X507998Y84000D01*
Y85999D01*
X508998Y86999D01*
X510997D01*
X511997Y85999D01*
Y84999D01*
X507998D01*
X513996Y86999D02*
Y84000D01*
X514996Y83000D01*
X517995D01*
Y82000D01*
X516995Y81001D01*
X515996D01*
X517995Y83000D02*
Y86999D01*
X126500Y121500D02*
Y127498D01*
X129499D01*
X130499Y126498D01*
Y124499D01*
X129499Y123499D01*
X126500D01*
X128499D02*
X130499Y121500D01*
X135497D02*
X133498D01*
X132498Y122500D01*
Y124499D01*
X133498Y125499D01*
X135497D01*
X136497Y124499D01*
Y123499D01*
X132498D01*
X138496Y121500D02*
X141495D01*
X142495Y122500D01*
X141495Y123499D01*
X139496D01*
X138496Y124499D01*
X139496Y125499D01*
X142495D01*
X147493Y121500D02*
X145494D01*
X144494Y122500D01*
Y124499D01*
X145494Y125499D01*
X147493D01*
X148493Y124499D01*
Y123499D01*
X144494D01*
X151492Y126498D02*
Y125499D01*
X150492D01*
X152492D01*
X151492D01*
Y122500D01*
X152492Y121500D01*
X59201Y147000D02*
X53203D01*
Y149999D01*
X54202Y150999D01*
X56202D01*
X57201Y149999D01*
Y147000D01*
Y148999D02*
X59201Y150999D01*
X53203Y156997D02*
Y152998D01*
X59201D01*
Y156997D01*
X56202Y152998D02*
Y154997D01*
X54202Y162995D02*
X53203Y161995D01*
Y159996D01*
X54202Y158996D01*
X58201D01*
X59201Y159996D01*
Y161995D01*
X58201Y162995D01*
X56202D01*
Y160995D01*
X59201Y164994D02*
Y166993D01*
Y165994D01*
X53203D01*
X54202Y164994D01*
X106701Y79000D02*
X100703D01*
Y81999D01*
X101702Y82999D01*
X103702D01*
X104701Y81999D01*
Y79000D01*
Y80999D02*
X106701Y82999D01*
Y84998D02*
Y86997D01*
Y85998D01*
X100703D01*
X101702Y84998D01*
Y89996D02*
X100703Y90996D01*
Y92996D01*
X101702Y93995D01*
X102702D01*
X103702Y92996D01*
Y91996D01*
Y92996D01*
X104701Y93995D01*
X105701D01*
X106701Y92996D01*
Y90996D01*
X105701Y89996D01*
X92201Y79000D02*
X86203D01*
Y81999D01*
X87202Y82999D01*
X89202D01*
X90201Y81999D01*
Y79000D01*
Y80999D02*
X92201Y82999D01*
Y84998D02*
Y86997D01*
Y85998D01*
X86203D01*
X87202Y84998D01*
X92201Y93995D02*
Y89996D01*
X88202Y93995D01*
X87202D01*
X86203Y92996D01*
Y90996D01*
X87202Y89996D01*
X561500Y62500D02*
X555502D01*
Y65499D01*
X556502Y66499D01*
X558501D01*
X559501Y65499D01*
Y62500D01*
Y64499D02*
X561500Y66499D01*
Y68498D02*
Y70497D01*
Y69498D01*
X555502D01*
X556502Y68498D01*
Y73496D02*
X555502Y74496D01*
Y76495D01*
X556502Y77495D01*
X560500D01*
X561500Y76495D01*
Y74496D01*
X560500Y73496D01*
X556502D01*
X515500Y27000D02*
X509502D01*
Y29999D01*
X510502Y30999D01*
X512501D01*
X513501Y29999D01*
Y27000D01*
Y28999D02*
X515500Y30999D01*
X514500Y32998D02*
X515500Y33998D01*
Y35997D01*
X514500Y36997D01*
X510502D01*
X509502Y35997D01*
Y33998D01*
X510502Y32998D01*
X511501D01*
X512501Y33998D01*
Y36997D01*
X408500Y34500D02*
X402502D01*
Y37499D01*
X403502Y38499D01*
X405501D01*
X406501Y37499D01*
Y34500D01*
Y36499D02*
X408500Y38499D01*
X403502Y40498D02*
X402502Y41498D01*
Y43497D01*
X403502Y44497D01*
X404501D01*
X405501Y43497D01*
X406501Y44497D01*
X407500D01*
X408500Y43497D01*
Y41498D01*
X407500Y40498D01*
X406501D01*
X405501Y41498D01*
X404501Y40498D01*
X403502D01*
X405501Y41498D02*
Y43497D01*
X410500Y85000D02*
X404502D01*
Y87999D01*
X405502Y88999D01*
X407501D01*
X408501Y87999D01*
Y85000D01*
Y86999D02*
X410500Y88999D01*
X404502Y90998D02*
Y94997D01*
X405502D01*
X409500Y90998D01*
X410500D01*
X243898Y54445D02*
X249896D01*
Y51446D01*
X248896Y50446D01*
X246897D01*
X245897Y51446D01*
Y54445D01*
Y52446D02*
X243898Y50446D01*
Y45448D02*
X249896D01*
X246897Y48447D01*
Y44448D01*
X205374Y83000D02*
Y88998D01*
X208373D01*
X209373Y87998D01*
Y85999D01*
X208373Y84999D01*
X205374D01*
X207373D02*
X209373Y83000D01*
X211372D02*
X213371D01*
X212372D01*
Y88998D01*
X211372Y87998D01*
X36201Y126323D02*
Y120325D01*
X33202D01*
X32202Y121325D01*
Y123324D01*
X33202Y124323D01*
X36201D01*
X30203Y121325D02*
X29203Y120325D01*
X27204D01*
X26204Y121325D01*
Y122324D01*
X27204Y123324D01*
X28203D01*
X27204D01*
X26204Y124323D01*
Y125323D01*
X27204Y126323D01*
X29203D01*
X30203Y125323D01*
X638500Y8000D02*
Y13998D01*
X641499D01*
X642499Y12998D01*
Y10999D01*
X641499Y9999D01*
X638500D01*
X648497Y8000D02*
X644498D01*
X648497Y11999D01*
Y12998D01*
X647497Y13998D01*
X645498D01*
X644498Y12998D01*
X540500Y61000D02*
Y66998D01*
X543499D01*
X544499Y65998D01*
Y63999D01*
X543499Y62999D01*
X540500D01*
X546498Y61000D02*
X548497D01*
X547498D01*
Y66998D01*
X546498Y65998D01*
X481000Y318500D02*
X486998D01*
Y315501D01*
X485998Y314501D01*
X483999D01*
X482999Y315501D01*
Y318500D01*
X485998Y308503D02*
X486998Y309503D01*
Y311502D01*
X485998Y312502D01*
X484999D01*
X483999Y311502D01*
Y309503D01*
X482999Y308503D01*
X482000D01*
X481000Y309503D01*
Y311502D01*
X482000Y312502D01*
X481000Y302505D02*
Y306504D01*
X484999Y302505D01*
X485998D01*
X486998Y303505D01*
Y305504D01*
X485998Y306504D01*
Y290509D02*
X486998Y291509D01*
Y293508D01*
X485998Y294508D01*
X482000D01*
X481000Y293508D01*
Y291509D01*
X482000Y290509D01*
X481000Y287510D02*
Y285511D01*
X482000Y284511D01*
X483999D01*
X484999Y285511D01*
Y287510D01*
X483999Y288510D01*
X482000D01*
X481000Y287510D01*
Y282512D02*
X484999D01*
Y279513D01*
X483999Y278513D01*
X481000D01*
X485998Y275514D02*
X484999D01*
Y276514D01*
Y274514D01*
Y275514D01*
X482000D01*
X481000Y274514D01*
X484999Y271515D02*
X481000D01*
X482999D01*
X483999Y270515D01*
X484999Y269516D01*
Y268516D01*
X481000Y264517D02*
Y262518D01*
X482000Y261518D01*
X483999D01*
X484999Y262518D01*
Y264517D01*
X483999Y265517D01*
X482000D01*
X481000Y264517D01*
Y259519D02*
Y257520D01*
Y258519D01*
X486998D01*
Y259519D01*
X481000Y254521D02*
Y252521D01*
Y253521D01*
X486998D01*
Y254521D01*
X481000Y246523D02*
Y248523D01*
X482000Y249522D01*
X483999D01*
X484999Y248523D01*
Y246523D01*
X483999Y245524D01*
X482999D01*
Y249522D01*
X484999Y243524D02*
X481000D01*
X482999D01*
X483999Y242525D01*
X484999Y241525D01*
Y240525D01*
X669976Y174051D02*
X663978D01*
X665978Y176050D01*
X663978Y178050D01*
X669976D01*
Y180049D02*
Y182049D01*
Y181049D01*
X665978D01*
Y180049D01*
Y189046D02*
Y186047D01*
X666977Y185048D01*
X668977D01*
X669976Y186047D01*
Y189046D01*
X665978Y191046D02*
X669976D01*
X667977D01*
X666977Y192045D01*
X665978Y193045D01*
Y194045D01*
X669976Y198043D02*
Y200043D01*
X668977Y201042D01*
X666977D01*
X665978Y200043D01*
Y198043D01*
X666977Y197044D01*
X668977D01*
X669976Y198043D01*
X664978Y207041D02*
X663978Y206041D01*
Y204042D01*
X664978Y203042D01*
X665978D01*
X666977Y204042D01*
Y206041D01*
X667977Y207041D01*
X668977D01*
X669976Y206041D01*
Y204042D01*
X668977Y203042D01*
X663978Y209040D02*
X669976D01*
Y212039D01*
X668977Y213038D01*
X664978D01*
X663978Y212039D01*
Y209040D01*
X576100Y150800D02*
Y156798D01*
X578099Y154799D01*
X580099Y156798D01*
Y150800D01*
X583098D02*
X585097D01*
X586097Y151800D01*
Y153799D01*
X585097Y154799D01*
X583098D01*
X582098Y153799D01*
Y151800D01*
X583098Y150800D01*
X592095Y156798D02*
Y150800D01*
X589096D01*
X588096Y151800D01*
Y153799D01*
X589096Y154799D01*
X592095D01*
X594094D02*
Y151800D01*
X595094Y150800D01*
X598093D01*
Y154799D01*
X600092Y150800D02*
X602092D01*
X601092D01*
Y156798D01*
X600092D01*
X608090Y150800D02*
X606090D01*
X605091Y151800D01*
Y153799D01*
X606090Y154799D01*
X608090D01*
X609089Y153799D01*
Y152799D01*
X605091D01*
X614088Y150800D02*
Y156798D01*
X611089Y153799D01*
X615087D01*
X435000Y136498D02*
Y130500D01*
X437999D01*
X438999Y131500D01*
Y132499D01*
X437999Y133499D01*
X435000D01*
X437999D01*
X438999Y134499D01*
Y135498D01*
X437999Y136498D01*
X435000D01*
X440998Y130500D02*
X442997D01*
X441998D01*
Y136498D01*
X440998D01*
X445996Y134499D02*
Y131500D01*
X446996Y130500D01*
X449995D01*
Y134499D01*
X454993Y130500D02*
X452994D01*
X451995Y131500D01*
Y133499D01*
X452994Y134499D01*
X454993D01*
X455993Y133499D01*
Y132499D01*
X451995D01*
X458992Y135498D02*
Y134499D01*
X457993D01*
X459992D01*
X458992D01*
Y131500D01*
X459992Y130500D01*
X463991D02*
X465990D01*
X466990Y131500D01*
Y133499D01*
X465990Y134499D01*
X463991D01*
X462991Y133499D01*
Y131500D01*
X463991Y130500D01*
X469989D02*
X471988D01*
X472988Y131500D01*
Y133499D01*
X471988Y134499D01*
X469989D01*
X468989Y133499D01*
Y131500D01*
X469989Y130500D01*
X475987Y135498D02*
Y134499D01*
X474987D01*
X476986D01*
X475987D01*
Y131500D01*
X476986Y130500D01*
X479985Y136498D02*
Y130500D01*
Y133499D01*
X480985Y134499D01*
X482984D01*
X483984Y133499D01*
Y130500D01*
X2213Y262786D02*
X6211D01*
X4212D01*
Y256787D01*
X8211Y260786D02*
Y256787D01*
Y258787D01*
X9210Y259786D01*
X10210Y260786D01*
X11210D01*
X14209Y256787D02*
X16208D01*
X15208D01*
Y260786D01*
X14209D01*
X19207Y256787D02*
Y260786D01*
X20207D01*
X21206Y259786D01*
Y256787D01*
Y259786D01*
X22206Y260786D01*
X23206Y259786D01*
Y256787D01*
X25205Y262786D02*
Y256787D01*
X28204D01*
X29204Y257787D01*
Y258787D01*
Y259786D01*
X28204Y260786D01*
X25205D01*
X31203Y256787D02*
X33203D01*
X32203D01*
Y262786D01*
X31203D01*
X39201Y256787D02*
X37201D01*
X36202Y257787D01*
Y259786D01*
X37201Y260786D01*
X39201D01*
X40200Y259786D01*
Y258787D01*
X36202D01*
X48198Y261786D02*
X49197Y262786D01*
X51197D01*
X52196Y261786D01*
Y260786D01*
X51197Y259786D01*
X50197D01*
X51197D01*
X52196Y258787D01*
Y257787D01*
X51197Y256787D01*
X49197D01*
X48198Y257787D01*
X54196Y262786D02*
X58195D01*
Y261786D01*
X54196Y257787D01*
Y256787D01*
X60194Y261786D02*
X61194Y262786D01*
X63193D01*
X64193Y261786D01*
Y260786D01*
X63193Y259786D01*
X64193Y258787D01*
Y257787D01*
X63193Y256787D01*
X61194D01*
X60194Y257787D01*
Y258787D01*
X61194Y259786D01*
X60194Y260786D01*
Y261786D01*
X61194Y259786D02*
X63193D01*
X70191Y256787D02*
X66192D01*
X70191Y260786D01*
Y261786D01*
X69191Y262786D01*
X67192D01*
X66192Y261786D01*
X75189Y256787D02*
Y262786D01*
X72190Y259786D01*
X76189D01*
X78188D02*
X82187D01*
X84186Y262786D02*
Y256787D01*
X87185D01*
X88185Y257787D01*
Y258787D01*
X87185Y259786D01*
X84186D01*
X87185D01*
X88185Y260786D01*
Y261786D01*
X87185Y262786D01*
X84186D01*
X5703Y103499D02*
Y101500D01*
X6702Y100500D01*
X10701D01*
X11701Y101500D01*
Y103499D01*
X10701Y104499D01*
X6702D01*
X5703Y103499D01*
X11701Y106498D02*
X5703D01*
X11701Y110497D01*
X5703D01*
X530500Y40498D02*
Y34500D01*
X534499D01*
X536498D02*
X538497D01*
X537498D01*
Y38499D01*
X536498D01*
X541496Y34500D02*
Y38499D01*
X544495D01*
X545495Y37499D01*
Y34500D01*
X547495D02*
Y40498D01*
Y36499D02*
X550493Y38499D01*
X547495Y36499D02*
X550493Y34500D01*
X260211Y212286D02*
X259212Y213285D01*
X257212D01*
X256213Y212286D01*
Y208287D01*
X257212Y207287D01*
X259212D01*
X260211Y208287D01*
Y210286D01*
X258212D01*
X262211Y207287D02*
Y213285D01*
X265210D01*
X266209Y212286D01*
Y210286D01*
X265210Y209287D01*
X262211D01*
X272207Y212286D02*
X271208Y213285D01*
X269208D01*
X268209Y212286D01*
Y211286D01*
X269208Y210286D01*
X271208D01*
X272207Y209287D01*
Y208287D01*
X271208Y207287D01*
X269208D01*
X268209Y208287D01*
X284204Y212286D02*
X283204Y213285D01*
X281205D01*
X280205Y212286D01*
Y211286D01*
X281205Y210286D01*
X283204D01*
X284204Y209287D01*
Y208287D01*
X283204Y207287D01*
X281205D01*
X280205Y208287D01*
X289202Y207287D02*
X287203D01*
X286203Y208287D01*
Y210286D01*
X287203Y211286D01*
X289202D01*
X290202Y210286D01*
Y209287D01*
X286203D01*
X292201Y207287D02*
X294200D01*
X293201D01*
Y213285D01*
X292201D01*
X300198Y207287D02*
X298199D01*
X297199Y208287D01*
Y210286D01*
X298199Y211286D01*
X300198D01*
X301198Y210286D01*
Y209287D01*
X297199D01*
X307196Y211286D02*
X304197D01*
X303197Y210286D01*
Y208287D01*
X304197Y207287D01*
X307196D01*
X310195Y212286D02*
Y211286D01*
X309195D01*
X311195D01*
X310195D01*
Y208287D01*
X311195Y207287D01*
X522500Y189998D02*
X524499D01*
X523500D01*
Y184000D01*
X522500D01*
X524499D01*
X531497Y188998D02*
X530497Y189998D01*
X528498D01*
X527498Y188998D01*
Y185000D01*
X528498Y184000D01*
X530497D01*
X531497Y185000D01*
X537495Y184000D02*
X533496D01*
X537495Y187999D01*
Y188998D01*
X536495Y189998D01*
X534496D01*
X533496Y188998D01*
X182574Y177298D02*
X184573D01*
X183574D01*
Y171300D01*
X182574D01*
X184573D01*
X191571Y176298D02*
X190571Y177298D01*
X188572D01*
X187572Y176298D01*
Y172300D01*
X188572Y171300D01*
X190571D01*
X191571Y172300D01*
X193570Y171300D02*
X195570D01*
X194570D01*
Y177298D01*
X193570Y176298D01*
X24998Y229000D02*
Y227001D01*
Y228000D01*
X19000D01*
Y229000D01*
Y227001D01*
X23998Y220003D02*
X24998Y221003D01*
Y223002D01*
X23998Y224002D01*
X20000D01*
X19000Y223002D01*
Y221003D01*
X20000Y220003D01*
X23998Y214005D02*
X24998Y215004D01*
Y217004D01*
X23998Y218004D01*
X22999D01*
X21999Y217004D01*
Y215004D01*
X20999Y214005D01*
X20000D01*
X19000Y215004D01*
Y217004D01*
X20000Y218004D01*
X19000Y212005D02*
X24998D01*
Y209007D01*
X23998Y208007D01*
X21999D01*
X20999Y209007D01*
Y212005D01*
X73699Y36000D02*
Y32001D01*
X72699D01*
X68700Y36000D01*
X67701D01*
X70700Y30002D02*
Y26003D01*
X67701Y24004D02*
Y22005D01*
Y23004D01*
X73699D01*
X72699Y24004D01*
X67701Y15007D02*
Y19005D01*
X71700Y15007D01*
X72699D01*
X73699Y16006D01*
Y18006D01*
X72699Y19005D01*
X73699Y13007D02*
X69700D01*
X67701Y11008D01*
X69700Y9009D01*
X73699D01*
X57699Y95000D02*
X51701D01*
Y92001D01*
X52701Y91001D01*
X53700D01*
X54700Y92001D01*
Y95000D01*
Y92001D01*
X55699Y91001D01*
X56699D01*
X57699Y92001D01*
Y95000D01*
X55699Y88002D02*
Y86003D01*
X54700Y85003D01*
X51701D01*
Y88002D01*
X52701Y89002D01*
X53700Y88002D01*
Y85003D01*
X56699Y82004D02*
X55699D01*
Y83004D01*
Y81005D01*
Y82004D01*
X52701D01*
X51701Y81005D01*
X56699Y77006D02*
X55699D01*
Y78005D01*
Y76006D01*
Y77006D01*
X52701D01*
X51701Y76006D01*
Y70008D02*
Y72007D01*
X52701Y73007D01*
X54700D01*
X55699Y72007D01*
Y70008D01*
X54700Y69008D01*
X53700D01*
Y73007D01*
X55699Y67009D02*
X51701D01*
X53700D01*
X54700Y66009D01*
X55699Y65010D01*
Y64010D01*
Y61011D02*
X52701D01*
X51701Y60011D01*
Y57012D01*
X50701D01*
X49701Y58012D01*
Y59012D01*
X51701Y57012D02*
X55699D01*
X386002Y52000D02*
X392000D01*
Y54999D01*
X391000Y55999D01*
X387002D01*
X386002Y54999D01*
Y52000D01*
X392000Y60997D02*
Y58998D01*
X391000Y57998D01*
X389001D01*
X388001Y58998D01*
Y60997D01*
X389001Y61997D01*
X390001D01*
Y57998D01*
X386002Y63996D02*
X392000D01*
Y66995D01*
X391000Y67995D01*
X390001D01*
X389001D01*
X388001Y66995D01*
Y63996D01*
Y69994D02*
X391000D01*
X392000Y70994D01*
Y73993D01*
X388001D01*
X393999Y77992D02*
Y78991D01*
X393000Y79991D01*
X388001D01*
Y76992D01*
X389001Y75992D01*
X391000D01*
X392000Y76992D01*
Y79991D01*
X386002Y85989D02*
Y81990D01*
X389001D01*
X388001Y83990D01*
Y84989D01*
X389001Y85989D01*
X391000D01*
X392000Y84989D01*
Y82990D01*
X391000Y81990D01*
X316713Y256286D02*
Y250287D01*
X319712D01*
X320711Y251287D01*
Y255286D01*
X319712Y256286D01*
X316713D01*
X325710Y250287D02*
X323710D01*
X322711Y251287D01*
Y253286D01*
X323710Y254286D01*
X325710D01*
X326709Y253286D01*
Y252287D01*
X322711D01*
X328709Y256286D02*
Y250287D01*
X331708D01*
X332707Y251287D01*
Y252287D01*
Y253286D01*
X331708Y254286D01*
X328709D01*
X334707D02*
Y251287D01*
X335706Y250287D01*
X338705D01*
Y254286D01*
X342704Y248288D02*
X343704D01*
X344704Y249288D01*
Y254286D01*
X341705D01*
X340705Y253286D01*
Y251287D01*
X341705Y250287D01*
X344704D01*
X349702D02*
Y256286D01*
X346703Y253286D01*
X350702D01*
X541502Y92500D02*
X547500D01*
Y95499D01*
X546500Y96499D01*
X542502D01*
X541502Y95499D01*
Y92500D01*
X547500Y101497D02*
Y99498D01*
X546500Y98498D01*
X544501D01*
X543501Y99498D01*
Y101497D01*
X544501Y102497D01*
X545501D01*
Y98498D01*
X541502Y104496D02*
X547500D01*
Y107495D01*
X546500Y108495D01*
X545501D01*
X544501D01*
X543501Y107495D01*
Y104496D01*
Y110494D02*
X546500D01*
X547500Y111494D01*
Y114493D01*
X543501D01*
X549499Y118492D02*
Y119491D01*
X548500Y120491D01*
X543501D01*
Y117492D01*
X544501Y116492D01*
X546500D01*
X547500Y117492D01*
Y120491D01*
X542502Y122490D02*
X541502Y123490D01*
Y125489D01*
X542502Y126489D01*
X543501D01*
X544501Y125489D01*
Y124490D01*
Y125489D01*
X545501Y126489D01*
X546500D01*
X547500Y125489D01*
Y123490D01*
X546500Y122490D01*
X470498Y361000D02*
X464500D01*
Y358001D01*
X465500Y357001D01*
X469498D01*
X470498Y358001D01*
Y361000D01*
X464500Y352003D02*
Y354002D01*
X465500Y355002D01*
X467499D01*
X468499Y354002D01*
Y352003D01*
X467499Y351003D01*
X466499D01*
Y355002D01*
X470498Y349004D02*
X464500D01*
Y346005D01*
X465500Y345005D01*
X466499D01*
X467499D01*
X468499Y346005D01*
Y349004D01*
Y343006D02*
X465500D01*
X464500Y342006D01*
Y339007D01*
X468499D01*
X462501Y335008D02*
Y334009D01*
X463500Y333009D01*
X468499D01*
Y336008D01*
X467499Y337008D01*
X465500D01*
X464500Y336008D01*
Y333009D01*
Y327011D02*
Y331010D01*
X468499Y327011D01*
X469498D01*
X470498Y328011D01*
Y330010D01*
X469498Y331010D01*
X473002Y159500D02*
X479000D01*
Y162499D01*
X478000Y163499D01*
X474002D01*
X473002Y162499D01*
Y159500D01*
X479000Y168497D02*
Y166498D01*
X478000Y165498D01*
X476001D01*
X475001Y166498D01*
Y168497D01*
X476001Y169497D01*
X477001D01*
Y165498D01*
X473002Y171496D02*
X479000D01*
Y174495D01*
X478000Y175495D01*
X477001D01*
X476001D01*
X475001Y174495D01*
Y171496D01*
Y177494D02*
X478000D01*
X479000Y178494D01*
Y181493D01*
X475001D01*
X480999Y185492D02*
Y186491D01*
X480000Y187491D01*
X475001D01*
Y184492D01*
X476001Y183492D01*
X478000D01*
X479000Y184492D01*
Y187491D01*
Y189490D02*
Y191490D01*
Y190490D01*
X473002D01*
X474002Y189490D01*
X83202Y124499D02*
X82203Y123499D01*
Y121500D01*
X83202Y120500D01*
X87201D01*
X88201Y121500D01*
Y123499D01*
X87201Y124499D01*
X88201Y130497D02*
Y126498D01*
X84202Y130497D01*
X83202D01*
X82203Y129497D01*
Y127498D01*
X83202Y126498D01*
X82203Y136495D02*
Y132496D01*
X85202D01*
X84202Y134495D01*
Y135495D01*
X85202Y136495D01*
X87201D01*
X88201Y135495D01*
Y133496D01*
X87201Y132496D01*
X94202Y139999D02*
X93203Y138999D01*
Y137000D01*
X94202Y136000D01*
X98201D01*
X99201Y137000D01*
Y138999D01*
X98201Y139999D01*
X99201Y145997D02*
Y141998D01*
X95202Y145997D01*
X94202D01*
X93203Y144997D01*
Y142998D01*
X94202Y141998D01*
X99201Y150995D02*
X93203D01*
X96202Y147996D01*
Y151995D01*
X81999Y63198D02*
X81000Y64198D01*
X79001D01*
X78001Y63198D01*
Y59200D01*
X79001Y58200D01*
X81000D01*
X81999Y59200D01*
X87998Y58200D02*
X83999D01*
X87998Y62199D01*
Y63198D01*
X86998Y64198D01*
X84999D01*
X83999Y63198D01*
X93996Y58200D02*
X89997D01*
X93996Y62199D01*
Y63198D01*
X92996Y64198D01*
X90997D01*
X89997Y63198D01*
X547499Y179498D02*
X546499Y180498D01*
X544500D01*
X543500Y179498D01*
Y175500D01*
X544500Y174500D01*
X546499D01*
X547499Y175500D01*
X553497Y174500D02*
X549498D01*
X553497Y178499D01*
Y179498D01*
X552497Y180498D01*
X550498D01*
X549498Y179498D01*
X555496D02*
X556496Y180498D01*
X558495D01*
X559495Y179498D01*
Y175500D01*
X558495Y174500D01*
X556496D01*
X555496Y175500D01*
Y179498D01*
X547499Y169998D02*
X546499Y170998D01*
X544500D01*
X543500Y169998D01*
Y166000D01*
X544500Y165000D01*
X546499D01*
X547499Y166000D01*
X549498Y165000D02*
X551497D01*
X550498D01*
Y170998D01*
X549498Y169998D01*
X554496Y166000D02*
X555496Y165000D01*
X557495D01*
X558495Y166000D01*
Y169998D01*
X557495Y170998D01*
X555496D01*
X554496Y169998D01*
Y168999D01*
X555496Y167999D01*
X558495D01*
X592478Y206050D02*
X591478Y205050D01*
Y203051D01*
X592478Y202051D01*
X596477D01*
X597476Y203051D01*
Y205050D01*
X596477Y206050D01*
X597476Y208049D02*
Y210049D01*
Y209049D01*
X591478D01*
X592478Y208049D01*
X591478Y217046D02*
X592478Y215047D01*
X594477Y213048D01*
X596477D01*
X597476Y214047D01*
Y216047D01*
X596477Y217046D01*
X595477D01*
X594477Y216047D01*
Y213048D01*
X414799Y22898D02*
X413799Y23898D01*
X411800D01*
X410800Y22898D01*
Y18900D01*
X411800Y17900D01*
X413799D01*
X414799Y18900D01*
X416798Y17900D02*
X418797D01*
X417798D01*
Y23898D01*
X416798Y22898D01*
X421796D02*
X422796Y23898D01*
X424795D01*
X425795Y22898D01*
Y21899D01*
X424795Y20899D01*
X423796D01*
X424795D01*
X425795Y19899D01*
Y18900D01*
X424795Y17900D01*
X422796D01*
X421796Y18900D01*
X257876Y164999D02*
X256876Y163999D01*
Y162000D01*
X257876Y161000D01*
X261874D01*
X262874Y162000D01*
Y163999D01*
X261874Y164999D01*
X262874Y166998D02*
Y168997D01*
Y167998D01*
X256876D01*
X257876Y166998D01*
Y171996D02*
X256876Y172996D01*
Y174996D01*
X257876Y175995D01*
X261874D01*
X262874Y174996D01*
Y172996D01*
X261874Y171996D01*
X257876D01*
Y105499D02*
X256876Y104499D01*
Y102500D01*
X257876Y101500D01*
X261874D01*
X262874Y102500D01*
Y104499D01*
X261874Y105499D01*
Y107498D02*
X262874Y108498D01*
Y110497D01*
X261874Y111497D01*
X257876D01*
X256876Y110497D01*
Y108498D01*
X257876Y107498D01*
X258875D01*
X259875Y108498D01*
Y111497D01*
X197873Y73998D02*
X196873Y74998D01*
X194874D01*
X193874Y73998D01*
Y70000D01*
X194874Y69000D01*
X196873D01*
X197873Y70000D01*
X199872Y73998D02*
X200872Y74998D01*
X202871D01*
X203871Y73998D01*
Y72999D01*
X202871Y71999D01*
X203871Y70999D01*
Y70000D01*
X202871Y69000D01*
X200872D01*
X199872Y70000D01*
Y70999D01*
X200872Y71999D01*
X199872Y72999D01*
Y73998D01*
X200872Y71999D02*
X202871D01*
X222573Y194298D02*
X221573Y195298D01*
X219574D01*
X218574Y194298D01*
Y190300D01*
X219574Y189300D01*
X221573D01*
X222573Y190300D01*
X224572Y195298D02*
X228571D01*
Y194298D01*
X224572Y190300D01*
Y189300D01*
X365000Y343998D02*
Y338000D01*
X367999D01*
X368999Y339000D01*
Y339999D01*
X367999Y340999D01*
X365000D01*
X367999D01*
X368999Y341999D01*
Y342998D01*
X367999Y343998D01*
X365000D01*
X370998Y338000D02*
Y341999D01*
X372997Y343998D01*
X374997Y341999D01*
Y338000D01*
Y340999D01*
X370998D01*
X376996Y343998D02*
X380995D01*
X378995D01*
Y338000D01*
X382994Y343998D02*
X386993D01*
X384994D01*
Y338000D01*
X388992D02*
X390992D01*
X389992D01*
Y343998D01*
X388992Y342998D01*
X247713Y234619D02*
X251711D01*
X249712D01*
Y228621D01*
X257709Y233619D02*
X256710Y234619D01*
X254710D01*
X253711Y233619D01*
Y232620D01*
X254710Y231620D01*
X256710D01*
X257709Y230620D01*
Y229620D01*
X256710Y228621D01*
X254710D01*
X253711Y229620D01*
X259709Y234619D02*
X261708D01*
X260708D01*
Y228621D01*
X259709D01*
X261708D01*
X264707D02*
Y234619D01*
X267706D01*
X268706Y233619D01*
Y231620D01*
X267706Y230620D01*
X264707D01*
X270705Y227621D02*
X274704D01*
X276703Y228621D02*
Y234619D01*
X279702D01*
X280702Y233619D01*
Y231620D01*
X279702Y230620D01*
X276703D01*
X278703D02*
X280702Y228621D01*
X282701Y234619D02*
X286700Y228621D01*
Y234619D02*
X282701Y228621D01*
X247713Y218787D02*
Y224785D01*
X251711Y218787D01*
Y224785D01*
X253711Y218787D02*
Y224785D01*
X255710Y222786D01*
X257709Y224785D01*
Y218787D01*
X263707Y224785D02*
X259709D01*
Y218787D01*
X263707D01*
X259709Y221786D02*
X261708D01*
X265707Y218787D02*
Y222786D01*
X267706Y224785D01*
X269706Y222786D01*
Y218787D01*
Y221786D01*
X265707D01*
X271705Y217788D02*
X275704D01*
X277703Y218787D02*
Y224785D01*
X280702D01*
X281702Y223786D01*
Y221786D01*
X280702Y220787D01*
X277703D01*
X279702D02*
X281702Y218787D01*
X283701Y224785D02*
X287700Y218787D01*
Y224785D02*
X283701Y218787D01*
X247713Y244452D02*
X251711D01*
X249712D01*
Y238454D01*
X257709Y243453D02*
X256710Y244452D01*
X254710D01*
X253711Y243453D01*
Y242453D01*
X254710Y241453D01*
X256710D01*
X257709Y240453D01*
Y239454D01*
X256710Y238454D01*
X254710D01*
X253711Y239454D01*
X259709Y244452D02*
X261708D01*
X260708D01*
Y238454D01*
X259709D01*
X261708D01*
X264707D02*
Y244452D01*
X267706D01*
X268706Y243453D01*
Y241453D01*
X267706Y240453D01*
X264707D01*
X270705Y237454D02*
X274704D01*
X276703Y244452D02*
X280702D01*
X278703D01*
Y238454D01*
X282701Y244452D02*
X286700Y238454D01*
Y244452D02*
X282701Y238454D01*
X247713Y248287D02*
Y254286D01*
X251711Y248287D01*
Y254286D01*
X253711Y248287D02*
Y254286D01*
X255710Y252286D01*
X257709Y254286D01*
Y248287D01*
X263707Y254286D02*
X259709D01*
Y248287D01*
X263707D01*
X259709Y251286D02*
X261708D01*
X265707Y248287D02*
Y252286D01*
X267706Y254286D01*
X269706Y252286D01*
Y248287D01*
Y251286D01*
X265707D01*
X271705Y247288D02*
X275704D01*
X277703Y254286D02*
X281702D01*
X279702D01*
Y248287D01*
X283701Y254286D02*
X287700Y248287D01*
Y254286D02*
X283701Y248287D01*
X592000Y32498D02*
X595999Y26500D01*
Y32498D02*
X592000Y26500D01*
X597998Y32498D02*
Y26500D01*
X600997D01*
X601997Y27500D01*
Y28499D01*
X600997Y29499D01*
X597998D01*
X600997D01*
X601997Y30499D01*
Y31498D01*
X600997Y32498D01*
X597998D01*
X606995Y26500D02*
X604996D01*
X603996Y27500D01*
Y29499D01*
X604996Y30499D01*
X606995D01*
X607995Y29499D01*
Y28499D01*
X603996D01*
X612993Y26500D02*
X610994D01*
X609994Y27500D01*
Y29499D01*
X610994Y30499D01*
X612993D01*
X613993Y29499D01*
Y28499D01*
X609994D01*
X621990Y26500D02*
Y32498D01*
X624989D01*
X625989Y31498D01*
Y29499D01*
X624989Y28499D01*
X621990D01*
X627988Y30499D02*
Y26500D01*
Y28499D01*
X628988Y29499D01*
X629988Y30499D01*
X630987D01*
X634986Y26500D02*
X636985D01*
X637985Y27500D01*
Y29499D01*
X636985Y30499D01*
X634986D01*
X633986Y29499D01*
Y27500D01*
X634986Y26500D01*
X649981Y31498D02*
X648982Y32498D01*
X646982D01*
X645983Y31498D01*
Y30499D01*
X646982Y29499D01*
X648982D01*
X649981Y28499D01*
Y27500D01*
X648982Y26500D01*
X646982D01*
X645983Y27500D01*
X651981Y26500D02*
X653980D01*
X652980D01*
Y32498D01*
X651981Y31498D01*
D37*
X103043Y45000D02*
G03*
X103043Y45000I-9843J0D01*
G01*
X390311Y278657D02*
Y298343D01*
X366689Y278657D02*
X390311D01*
X366689D02*
Y298343D01*
X552500Y93000D02*
Y123000D01*
Y93000D02*
X562500D01*
Y123000D01*
X552500D02*
X562500D01*
X326713Y216787D02*
Y246787D01*
X316713D02*
X326713D01*
X316713Y216787D02*
Y246787D01*
Y216787D02*
X326713D01*
X661244Y165339D02*
Y222819D01*
X602189Y165339D02*
Y222819D01*
Y165339D02*
X611189D01*
X621689D02*
X644189D01*
X654689D02*
X661244D01*
X654709Y222819D02*
X661244D01*
X602189D02*
X611669D01*
X621689Y222839D02*
X644189D01*
X433409Y103870D02*
Y127886D01*
X484591Y103870D02*
Y127886D01*
X433409D02*
X484591D01*
X528000Y64000D02*
X538000D01*
Y44000D02*
Y64000D01*
X528000Y44000D02*
X538000D01*
X528000D02*
Y64000D01*
X651500Y5500D02*
Y15500D01*
X671500D01*
Y5500D02*
Y15500D01*
X651500Y5500D02*
X671500D01*
X326516Y265976D02*
Y390976D01*
X1516D02*
X326516D01*
X1516Y265976D02*
X326516D01*
X1516D02*
Y390976D01*
X311213Y216787D02*
Y256787D01*
X291213Y216787D02*
Y256787D01*
Y216787D02*
X311213D01*
X291213Y256787D02*
X311213D01*
X8000Y189500D02*
Y249500D01*
X6333D02*
X8000Y247833D01*
X-10333Y192833D02*
X3000D01*
X-12000Y194500D02*
X-10333Y192833D01*
X-12000Y194500D02*
X-10333Y196167D01*
X3000D01*
X-10333Y202833D02*
X3000D01*
X-12000Y204500D02*
X-10333Y202833D01*
X-12000Y204500D02*
X-10333Y206167D01*
X3000D01*
X-10333Y212833D02*
X3000D01*
X-12000Y214500D02*
X-10333Y212833D01*
X-12000Y214500D02*
X-10333Y216167D01*
X3000D01*
X-10333Y222833D02*
X3000D01*
X-12000Y224500D02*
X-10333Y222833D01*
X-12000Y224500D02*
X-10333Y226167D01*
X3000D01*
X-10333Y232833D02*
X3000D01*
X-12000Y234500D02*
X-10333Y232833D01*
X-12000Y234500D02*
X-10333Y236167D01*
X3000D01*
X-10333Y242833D02*
X3000D01*
X-12000Y244500D02*
X-10333Y242833D01*
X-12000Y244500D02*
X-10333Y246167D01*
X3000D01*
Y189500D02*
X8000D01*
X3000D02*
Y249500D01*
X8000D01*
X285126Y113559D02*
Y158441D01*
X266622Y113559D02*
X270874D01*
X266622D02*
Y158441D01*
X270874D01*
X280874D02*
X285126D01*
X280874Y113559D02*
X285126D01*
X14114Y136421D02*
X77106D01*
X14114Y176579D02*
X77106D01*
X14114Y170673D02*
Y176579D01*
Y136421D02*
Y141933D01*
X77106Y170673D02*
Y176579D01*
Y136421D02*
Y141933D01*
X95697Y69268D02*
Y102732D01*
X82705Y69268D02*
Y102732D01*
X95697D01*
X82705Y69268D02*
X95697D01*
X97705D02*
Y102732D01*
X110697Y69268D02*
Y102732D01*
X97705Y69268D02*
X110697D01*
X97705Y102732D02*
X110697D01*
X26701Y117823D02*
X36701D01*
Y97823D02*
Y117823D01*
X26701Y97823D02*
X36701D01*
X26701D02*
Y117823D01*
X4453Y5283D02*
Y40717D01*
X39886D01*
X63508D01*
X18232Y5283D02*
Y40717D01*
X4453Y5283D02*
X40453D01*
X63508Y5500D02*
Y40717D01*
X51453Y5500D02*
X63453D01*
X63508Y5555D01*
X4453Y55815D02*
Y95185D01*
X39886Y55815D02*
Y95185D01*
X4453D02*
X39886D01*
X4453Y55815D02*
X39886D01*
X605783Y147429D02*
X641217D01*
X671492Y119870D01*
X575508D02*
X605783Y147429D01*
X671492Y17508D02*
Y119870D01*
X575508Y17508D02*
X671492D01*
X575508D02*
Y119870D01*
X473500Y324000D02*
X483500D01*
X473500D02*
Y364000D01*
X483500Y324000D02*
Y364000D01*
X473500D02*
X483500D01*
X189874Y110000D02*
X239874D01*
X189874Y160000D02*
X239874D01*
Y110000D02*
Y160000D01*
X189874Y110000D02*
Y160000D01*
X384500Y89000D02*
Y119000D01*
Y89000D02*
X394500D01*
Y119000D01*
X384500D02*
X394500D01*
X483000Y155000D02*
X493000D01*
X483000D02*
Y195000D01*
X493000Y155000D02*
Y195000D01*
X483000D02*
X493000D01*
D69*
X194992Y156063D02*
G03*
X194992Y156063I-1181J0D01*
G01*
D70*
X185740Y161279D02*
G03*
X185740Y161279I-492J0D01*
G01*
D71*
X514768Y167697D02*
G03*
X512768Y167697I-1000J-1000D01*
G01*
X507768Y177039D02*
Y178039D01*
Y182039D02*
Y183039D01*
X507862Y186634D02*
Y187382D01*
X507768Y172039D02*
Y173539D01*
X507862Y167697D02*
Y168197D01*
X519673Y167697D02*
Y168197D01*
X507862Y167697D02*
X519673D01*
X507862Y187382D02*
X519673D01*
Y186634D02*
Y187382D01*
X519768Y182039D02*
Y183039D01*
Y177039D02*
Y178039D01*
Y172039D02*
Y173539D01*
D72*
X526969Y165177D02*
Y168327D01*
Y165177D02*
X541142D01*
Y171476D01*
X526969D02*
X541142D01*
X526969Y168327D02*
Y171476D01*
X532055Y165177D02*
Y171476D01*
X526969Y173177D02*
Y176327D01*
Y173177D02*
X541142D01*
Y179476D01*
X526969D02*
X541142D01*
X526969Y176327D02*
Y179476D01*
X532055Y173177D02*
Y179476D01*
X589752Y177528D02*
X594476D01*
X589752D02*
Y199575D01*
X599201D01*
Y177528D02*
Y199575D01*
X594476Y177528D02*
X599201D01*
X432024Y5276D02*
Y10000D01*
X409976Y5276D02*
X432024D01*
X409976D02*
Y14724D01*
X432024D01*
Y10000D02*
Y14724D01*
X410563Y31626D02*
X414500D01*
X410563D02*
Y47374D01*
X418437D01*
Y31626D02*
Y47374D01*
X414500Y31626D02*
X418437D01*
X416500Y97374D02*
X420437D01*
Y81626D02*
Y97374D01*
X412563Y81626D02*
X420437D01*
X412563D02*
Y97374D01*
X416500D01*
X545000Y58000D02*
X546000D01*
X551000Y47500D02*
Y53500D01*
X540000Y47500D02*
Y54500D01*
X544890Y44110D02*
X546000D01*
Y55500D02*
Y58000D01*
Y55500D02*
X548000Y53500D01*
X551000D01*
X558500Y60374D02*
X562437D01*
Y44626D02*
Y60374D01*
X554563Y44626D02*
X562437D01*
X554563D02*
Y60374D01*
X558500D01*
X499563Y25626D02*
X503500D01*
X499563D02*
Y41374D01*
X507437D01*
Y25626D02*
Y41374D01*
X503500Y25626D02*
X507437D01*
X252398Y48445D02*
Y51445D01*
X265398Y48445D02*
Y51445D01*
X205000Y95000D02*
Y98937D01*
X220748D01*
Y91063D02*
Y98937D01*
X205000Y91063D02*
X220748D01*
X205000D02*
Y95000D01*
X198874Y99024D02*
X203598D01*
Y76976D02*
Y99024D01*
X194150Y76976D02*
X203598D01*
X194150D02*
Y99024D01*
X198874D01*
X259874Y159024D02*
X264598D01*
Y136976D02*
Y159024D01*
X255150Y136976D02*
X264598D01*
X255150D02*
Y159024D01*
X259874D01*
X255150Y113476D02*
X259874D01*
X255150D02*
Y135524D01*
X264598D01*
Y113476D02*
Y135524D01*
X259874Y113476D02*
X264598D01*
X18701Y113000D02*
X19701D01*
X24701Y102500D02*
Y108500D01*
X13701Y102500D02*
Y109500D01*
X18591Y99110D02*
X19701D01*
Y110500D02*
Y113000D01*
Y110500D02*
X21701Y108500D01*
X24701D01*
X93051Y168087D02*
X96201D01*
X93051Y153913D02*
Y168087D01*
Y153913D02*
X99350D01*
Y168087D01*
X96201D02*
X99350D01*
X93051Y163000D02*
X99350D01*
X80476Y138476D02*
X85201D01*
X80476D02*
Y160524D01*
X89925D01*
Y138476D02*
Y160524D01*
X85201Y138476D02*
X89925D01*
X220874Y171913D02*
X224024D01*
Y186087D01*
X217724D02*
X224024D01*
X217724Y171913D02*
Y186087D01*
Y171913D02*
X220874D01*
X217724Y177000D02*
X224024D01*
X267898Y37445D02*
Y37945D01*
X294898Y16445D02*
Y25445D01*
Y1445D02*
Y4445D01*
X267898Y1445D02*
Y4445D01*
Y16445D02*
Y25945D01*
Y37945D02*
X294898D01*
X267898Y1445D02*
X294898D01*
Y37445D02*
Y37945D01*
D73*
X77551Y44999D02*
X81487D01*
X79519Y46967D02*
Y43031D01*
M02*
