M48
;Layer_Color=9474304
;FILE_FORMAT=2:5
INCH,LZ
;TYPE=PLATED
T1F00S00C0.01500
T2F00S00C0.02362
T3F00S00C0.02800
T4F00S00C0.02953
T5F00S00C0.03150
T6F00S00C0.03543
T7F00S00C0.03937
T8F00S00C0.04331
T9F00S00C0.04724
T10F00S00C0.12500
T11F00S00C0.15748
%
T01
X02582Y00417
X04908Y0041878
X05535Y00455
X06198Y00401
X06542Y00493
X0549043Y00675
X05333Y016
X05225Y0192
X0613Y01885
X0628362Y018
X06443Y0197492
X06487Y01961
X05138Y01905
X0506Y0192
X04993Y018
X05016Y017
X04261Y0099933
X04Y0094126
X03336Y00918
X03243Y00954
X03297Y00753
X0310137Y00643
X02836Y0098
X026405Y01093
X02665Y01218
X0252Y0127
X025Y0131
X02505Y01485
X0250801Y0154685
X0250637Y0159437
X02391Y0152717
X02299Y01572
X02257Y01565
X02133Y01567
X02175Y017
X02714Y01742
X02689Y0154988
X02876Y01365
X03277Y01181
X02391Y0123189
X0241Y01013
X0243328Y0097339
X02295Y0098126
X02219Y0095
X0214874Y01002
X02197Y01128
X02327Y0072
X02372Y00608
X02444Y00555
X0244Y0082
X025255Y00846
X01993Y0088
X0199862Y0113457
X0206Y01273
X0194294Y01384
X01799Y0142874
X01798Y0129
X0166043Y01435
X0179154Y0156654
X02021Y017
X0189043Y02045
X01414Y01708
X0153Y012
X0022744Y0106
X0137Y02088
X0146067Y02208
X02474Y02105
X03285Y0214
X0334Y02415
X03465Y02315
X03326Y0314992
X02205Y035
X04015Y02295
X04685Y0249626
X0514Y03605
X04785Y0372626
T02
X0580193Y0045067
X0666807
Y0052941
Y0060815
Y0068689
Y0076563
Y0084437
Y0092311
Y0100185
Y0108059
Y0115933
X0580193
Y0108059
Y0100185
Y0092311
Y0084437
Y0076563
Y0068689
Y0060815
Y0052941
T03
X0518Y00945
Y0113
X00635Y0147
X00075Y01445
X0123Y02325
X0185Y034
X0476Y03095
X05165Y0337
T04
X0089264Y0045
X0097138
T05
X0309508Y0294992
X0319508
Y0304992
X0309508
Y0314992
Y0324992
X0319508
Y0314992
T06
X0533Y0049
X06565Y00105
X06665
X0533Y0059
X05575Y0098
Y0108
Y0118
X0488Y016
Y017
Y018
Y019
X03895Y0114
Y0104
Y0094
X0031701Y0102823
Y0112823
X0013Y01945
Y02045
Y02145
Y02245
Y02345
Y02445
X0296213Y0241787
Y0251787
X0306213
Y0241787
Y0231787
X0296213
Y0221787
X0306213
X0321713
Y0231787
Y0241787
X04785Y0329
Y0339
Y0349
Y0359
T07
X0272819Y0022114
X0289787
X0104201Y0061984
X0089201
Y0110016
X0104201
X03785Y02885
X0500213Y0281504
Y0265756
Y0250008
Y0297252
Y0313
Y0328748
Y0344496
Y0360244
Y0375992
X03785Y0368815
T08
X0020201Y0065657
Y0085343
T09
X0045791Y0005283
X003398Y0023
X0057602
T10
X0177165Y0019685
X0560165
X00125Y0277
X03155
Y0379992
X00125
T11
X0518913Y0246071
X0651787Y0263787
Y0362213
X0518913Y0379929
M30
