%FSLAX25Y25*%
%MOIN*%
G70*
G01*
G75*
G04 Layer_Physical_Order=1*
G04 Layer_Color=255*
%ADD10R,0.03150X0.04724*%
%ADD11R,0.06693X0.04921*%
G04:AMPARAMS|DCode=12|XSize=70.87mil|YSize=57.09mil|CornerRadius=0mil|HoleSize=0mil|Usage=FLASHONLY|Rotation=180.000|XOffset=0mil|YOffset=0mil|HoleType=Round|Shape=Octagon|*
%AMOCTAGOND12*
4,1,8,-0.03543,0.01427,-0.03543,-0.01427,-0.02116,-0.02854,0.02116,-0.02854,0.03543,-0.01427,0.03543,0.01427,0.02116,0.02854,-0.02116,0.02854,-0.03543,0.01427,0.0*
%
%ADD12OCTAGOND12*%

G04:AMPARAMS|DCode=13|XSize=59.06mil|YSize=31.5mil|CornerRadius=0mil|HoleSize=0mil|Usage=FLASHONLY|Rotation=180.000|XOffset=0mil|YOffset=0mil|HoleType=Round|Shape=Octagon|*
%AMOCTAGOND13*
4,1,8,-0.02953,0.00787,-0.02953,-0.00787,-0.02165,-0.01575,0.02165,-0.01575,0.02953,-0.00787,0.02953,0.00787,0.02165,0.01575,-0.02165,0.01575,-0.02953,0.00787,0.0*
%
%ADD13OCTAGOND13*%

%ADD14R,0.05906X0.03150*%
G04:AMPARAMS|DCode=15|XSize=70.87mil|YSize=43.31mil|CornerRadius=0mil|HoleSize=0mil|Usage=FLASHONLY|Rotation=270.000|XOffset=0mil|YOffset=0mil|HoleType=Round|Shape=Octagon|*
%AMOCTAGOND15*
4,1,8,-0.01083,-0.03543,0.01083,-0.03543,0.02165,-0.02461,0.02165,0.02461,0.01083,0.03543,-0.01083,0.03543,-0.02165,0.02461,-0.02165,-0.02461,-0.01083,-0.03543,0.0*
%
%ADD15OCTAGOND15*%

%ADD16O,0.05906X0.03937*%
%ADD17R,0.05906X0.03937*%
%ADD18O,0.03937X0.05906*%
%ADD19R,0.04921X0.06693*%
%ADD20R,0.05118X0.04134*%
G04:AMPARAMS|DCode=21|XSize=47.24mil|YSize=39.37mil|CornerRadius=0mil|HoleSize=0mil|Usage=FLASHONLY|Rotation=270.000|XOffset=0mil|YOffset=0mil|HoleType=Round|Shape=Octagon|*
%AMOCTAGOND21*
4,1,8,-0.00984,-0.02362,0.00984,-0.02362,0.01969,-0.01378,0.01969,0.01378,0.00984,0.02362,-0.00984,0.02362,-0.01969,0.01378,-0.01969,-0.01378,-0.00984,-0.02362,0.0*
%
%ADD21OCTAGOND21*%

G04:AMPARAMS|DCode=22|XSize=39.37mil|YSize=25.59mil|CornerRadius=0mil|HoleSize=0mil|Usage=FLASHONLY|Rotation=270.000|XOffset=0mil|YOffset=0mil|HoleType=Round|Shape=Octagon|*
%AMOCTAGOND22*
4,1,8,-0.00640,-0.01969,0.00640,-0.01969,0.01280,-0.01329,0.01280,0.01329,0.00640,0.01969,-0.00640,0.01969,-0.01280,0.01329,-0.01280,-0.01329,-0.00640,-0.01969,0.0*
%
%ADD22OCTAGOND22*%

G04:AMPARAMS|DCode=23|XSize=39.37mil|YSize=19.69mil|CornerRadius=0mil|HoleSize=0mil|Usage=FLASHONLY|Rotation=270.000|XOffset=0mil|YOffset=0mil|HoleType=Round|Shape=Octagon|*
%AMOCTAGOND23*
4,1,8,-0.00492,-0.01969,0.00492,-0.01969,0.00984,-0.01476,0.00984,0.01476,0.00492,0.01969,-0.00492,0.01969,-0.00984,0.01476,-0.00984,-0.01476,-0.00492,-0.01969,0.0*
%
%ADD23OCTAGOND23*%

%ADD24R,0.04134X0.05118*%
%ADD25R,0.07874X0.23622*%
%ADD26R,0.09055X0.04685*%
%ADD27R,0.30299X0.25598*%
%ADD28R,0.04724X0.03150*%
%ADD29R,0.01969X0.09843*%
%ADD30R,0.07874X0.09843*%
%ADD31O,0.00984X0.06102*%
%ADD32O,0.06102X0.00984*%
%ADD33O,0.04134X0.02165*%
%ADD34R,0.04134X0.02165*%
%ADD35C,0.02000*%
%ADD36C,0.01000*%
%ADD37C,0.00787*%
%ADD38C,0.03937*%
%ADD39C,0.01732*%
%ADD40C,0.01181*%
%ADD41C,0.01575*%
%ADD42C,0.19685*%
%ADD43R,0.11811X0.11811*%
%ADD44C,0.11811*%
%ADD45R,0.05906X0.05906*%
%ADD46C,0.05906*%
%ADD47R,0.05906X0.05906*%
%ADD48R,0.06890X0.06890*%
%ADD49C,0.06890*%
%ADD50C,0.06496*%
%ADD51C,0.07874*%
%ADD52O,0.09843X0.07874*%
%ADD53R,0.04921X0.04921*%
%ADD54C,0.04921*%
%ADD55R,0.04724X0.04724*%
%ADD56C,0.04724*%
%ADD57C,0.03937*%
%ADD58C,0.08858*%
%ADD59R,0.08858X0.08858*%
%ADD60C,0.15748*%
%ADD61C,0.05000*%
%ADD62C,0.02701*%
D10*
X529331Y168327D02*
D03*
X538780D02*
D03*
X529331Y176327D02*
D03*
X538780D02*
D03*
D11*
X594476Y181563D02*
D03*
Y195539D02*
D03*
X198874Y94988D02*
D03*
Y81012D02*
D03*
X259874Y154988D02*
D03*
Y141012D02*
D03*
Y117512D02*
D03*
Y131488D02*
D03*
X85201Y142512D02*
D03*
Y156488D02*
D03*
D12*
X616559Y220724D02*
D03*
Y167339D02*
D03*
X649236Y220724D02*
D03*
Y167339D02*
D03*
D13*
X639000Y175839D02*
D03*
Y180169D02*
D03*
Y184500D02*
D03*
Y188831D02*
D03*
Y193161D02*
D03*
Y197492D02*
D03*
Y201823D02*
D03*
D14*
Y206154D02*
D03*
D15*
X503433Y49091D02*
D03*
X518000D02*
D03*
X503433Y73500D02*
D03*
X518000D02*
D03*
X146067Y160409D02*
D03*
X131500D02*
D03*
X146067Y136000D02*
D03*
X131500D02*
D03*
D16*
X484787Y29067D02*
D03*
Y34972D02*
D03*
Y40878D02*
D03*
Y46783D02*
D03*
Y52689D02*
D03*
Y58594D02*
D03*
Y64500D02*
D03*
Y70406D02*
D03*
Y76311D02*
D03*
Y82217D02*
D03*
Y88122D02*
D03*
Y94028D02*
D03*
Y99933D02*
D03*
X433213Y29067D02*
D03*
Y34972D02*
D03*
Y40878D02*
D03*
Y46783D02*
D03*
Y52689D02*
D03*
Y58594D02*
D03*
Y64500D02*
D03*
Y70406D02*
D03*
Y76311D02*
D03*
Y82217D02*
D03*
Y88122D02*
D03*
Y94028D02*
D03*
D17*
Y99933D02*
D03*
D18*
X438331Y22571D02*
D03*
X444236D02*
D03*
X450142D02*
D03*
X456047D02*
D03*
X461953D02*
D03*
X467858D02*
D03*
X473764D02*
D03*
X479669D02*
D03*
D19*
X427988Y10000D02*
D03*
X414012D02*
D03*
D20*
X414500Y34874D02*
D03*
Y44126D02*
D03*
X416500Y94126D02*
D03*
Y84874D02*
D03*
X558500Y57126D02*
D03*
Y47874D02*
D03*
X503500Y28874D02*
D03*
Y38126D02*
D03*
D21*
X549043Y57102D02*
D03*
X541957Y44898D02*
D03*
X549043D02*
D03*
X541957Y57102D02*
D03*
X22744Y112102D02*
D03*
X15658Y99898D02*
D03*
X22744D02*
D03*
X15658Y112102D02*
D03*
D22*
X253878Y46008D02*
D03*
X263917D02*
D03*
X253878Y53882D02*
D03*
X263917D02*
D03*
D23*
X257323Y46008D02*
D03*
X260472D02*
D03*
X257323Y53882D02*
D03*
X260472D02*
D03*
D24*
X208248Y95000D02*
D03*
X217500D02*
D03*
D25*
X275874Y118283D02*
D03*
Y153717D02*
D03*
D26*
X71201Y147000D02*
D03*
Y156500D02*
D03*
Y166000D02*
D03*
D27*
X30500Y156500D02*
D03*
D28*
X96201Y165724D02*
D03*
Y156276D02*
D03*
X220874Y174276D02*
D03*
Y183724D02*
D03*
D29*
X287780Y31760D02*
D03*
X284630D02*
D03*
X281480D02*
D03*
X278331D02*
D03*
X275181D02*
D03*
D30*
X299000D02*
D03*
X263961D02*
D03*
X299000Y10500D02*
D03*
X263961D02*
D03*
D31*
X191252Y164626D02*
D03*
X193220D02*
D03*
X195189D02*
D03*
X197157D02*
D03*
X199126D02*
D03*
X201094D02*
D03*
X203063D02*
D03*
X205031D02*
D03*
X207000D02*
D03*
X208968D02*
D03*
X210937D02*
D03*
X212906D02*
D03*
X214874D02*
D03*
X216843D02*
D03*
X218811D02*
D03*
X220780D02*
D03*
X222748D02*
D03*
X224717D02*
D03*
X226685D02*
D03*
X228654D02*
D03*
X230622D02*
D03*
X232591D02*
D03*
X234559D02*
D03*
X236528D02*
D03*
X238496D02*
D03*
Y105374D02*
D03*
X236528D02*
D03*
X234559D02*
D03*
X232591D02*
D03*
X230622D02*
D03*
X228654D02*
D03*
X226685D02*
D03*
X224717D02*
D03*
X222748D02*
D03*
X220780D02*
D03*
X218811D02*
D03*
X216843D02*
D03*
X214874D02*
D03*
X212906D02*
D03*
X210937D02*
D03*
X208968D02*
D03*
X207000D02*
D03*
X205031D02*
D03*
X203063D02*
D03*
X201094D02*
D03*
X199126D02*
D03*
X197157D02*
D03*
X195189D02*
D03*
X193220D02*
D03*
X191252D02*
D03*
D32*
X244500Y158622D02*
D03*
Y156654D02*
D03*
Y154685D02*
D03*
Y152717D02*
D03*
Y150748D02*
D03*
Y148780D02*
D03*
Y146811D02*
D03*
Y144843D02*
D03*
Y142874D02*
D03*
Y140906D02*
D03*
Y138937D02*
D03*
Y136969D02*
D03*
Y135000D02*
D03*
Y133032D02*
D03*
Y131063D02*
D03*
Y129094D02*
D03*
Y127126D02*
D03*
Y125157D02*
D03*
Y123189D02*
D03*
Y121220D02*
D03*
Y119252D02*
D03*
Y117283D02*
D03*
Y115315D02*
D03*
Y113346D02*
D03*
Y111378D02*
D03*
X185248D02*
D03*
Y113346D02*
D03*
Y115315D02*
D03*
Y117283D02*
D03*
Y119252D02*
D03*
Y121220D02*
D03*
Y123189D02*
D03*
Y125157D02*
D03*
Y127126D02*
D03*
Y129094D02*
D03*
Y131063D02*
D03*
Y133032D02*
D03*
Y135000D02*
D03*
Y136969D02*
D03*
Y138937D02*
D03*
Y140906D02*
D03*
Y142874D02*
D03*
Y144843D02*
D03*
Y146811D02*
D03*
Y148780D02*
D03*
Y150748D02*
D03*
Y152717D02*
D03*
Y154685D02*
D03*
Y156654D02*
D03*
Y158622D02*
D03*
D33*
X509535Y184921D02*
D03*
Y180000D02*
D03*
Y175079D02*
D03*
Y170157D02*
D03*
X518000Y184921D02*
D03*
Y180000D02*
D03*
Y175079D02*
D03*
D34*
Y170157D02*
D03*
D35*
X476000Y144000D02*
X491500Y128500D01*
X476000Y144000D02*
Y309500D01*
X491500Y119500D02*
Y128500D01*
X516500Y337000D02*
X522000Y342500D01*
X542500D01*
X594476Y290524D01*
Y195539D02*
Y290524D01*
X232000Y320500D02*
Y365500D01*
X390000Y218000D02*
X401500Y229500D01*
X390000Y191600D02*
Y218000D01*
X339500Y141100D02*
X390000Y191600D01*
X334000Y241500D02*
X336500Y239000D01*
Y202500D02*
Y239000D01*
X283600Y149600D02*
X336500Y202500D01*
X287600Y136500D02*
X341500Y190400D01*
X332600Y314992D02*
X341500Y306092D01*
Y190400D02*
Y306092D01*
X290500Y214100D02*
X328500D01*
X346500Y231500D02*
X367500D01*
X377500Y221500D01*
Y195300D02*
Y221500D01*
X324300Y142100D02*
X377500Y195300D01*
X189000Y204500D02*
Y277500D01*
X259874Y141012D02*
X275874D01*
X263917Y52500D02*
X266181D01*
X549043Y45500D02*
X553500D01*
X538780Y168500D02*
X564500D01*
X538780Y176327D02*
Y177780D01*
X535000Y181500D02*
X538780Y177720D01*
Y176327D02*
Y177720D01*
X168500Y136000D02*
X169500Y135000D01*
X146067Y136000D02*
X168500D01*
X146500Y115000D02*
X166500D01*
X141400Y120100D02*
X146500Y115000D01*
X153000Y120000D02*
X171500D01*
X141000Y111500D02*
X144500D01*
X137000Y115500D02*
X141000Y111500D01*
X137000Y115500D02*
Y208800D01*
X141400Y120100D02*
Y170800D01*
X339500Y97700D02*
Y141100D01*
X333600Y91800D02*
X339500Y97700D01*
X173400Y302900D02*
X220500Y350000D01*
X173400Y142500D02*
Y302900D01*
X542563Y181563D02*
X594476D01*
X538780Y177780D02*
X542563Y181563D01*
X461300Y34972D02*
X467500Y41172D01*
X433213Y34972D02*
X461300D01*
X467500Y95500D02*
X491500Y119500D01*
X467500Y41172D02*
Y95500D01*
X491500Y119500D02*
X511500D01*
X518000Y113000D01*
X525704Y164700D02*
X529331Y168327D01*
X518000Y156996D02*
X525704Y164700D01*
X498600D02*
X525704D01*
X518000Y113000D02*
Y156996D01*
X613000Y188500D02*
X619900D01*
X620200Y188800D01*
X503539Y195539D02*
X594476D01*
X495800Y187800D02*
X503539Y195539D01*
X495800Y167500D02*
Y187800D01*
X538780Y168500D02*
Y176327D01*
Y168327D02*
Y168500D01*
X564500D02*
X568000Y165000D01*
Y54124D02*
Y165000D01*
X561750Y47874D02*
X568000Y54124D01*
X433213Y6213D02*
Y22124D01*
X430400Y3400D02*
X433213Y6213D01*
X403400Y3400D02*
X430400D01*
X210100Y123695D02*
Y131005D01*
X199862Y113457D02*
X210100Y123695D01*
X210042Y131063D02*
X210100Y131005D01*
X256500Y131500D02*
X256512Y131488D01*
X259874D01*
X468626Y372626D02*
X478500D01*
X456500Y360500D02*
X468626Y372626D01*
X456500Y321000D02*
Y360500D01*
Y321000D02*
X468500Y309000D01*
Y249626D02*
Y309000D01*
X549043Y44898D02*
Y45500D01*
X242489Y96500D02*
X243328Y97339D01*
X240200Y96500D02*
X242489D01*
X238700Y98000D02*
X240200Y96500D01*
X189000Y277500D02*
X232000Y320500D01*
X518000Y94500D02*
Y113000D01*
Y73500D02*
Y94500D01*
X433213Y22124D02*
Y29067D01*
X427988Y16900D02*
X433213Y22124D01*
X199000Y94988D02*
X203500D01*
X198874D02*
X199000D01*
X217500Y95000D02*
X221900D01*
X229900Y157200D02*
X232748Y154352D01*
Y133928D02*
Y154352D01*
Y133928D02*
X235506Y131169D01*
X213300Y156700D02*
X216100Y153900D01*
X202100Y170000D02*
Y247800D01*
X287800Y333500D01*
X335100D01*
X365500Y303100D01*
Y276400D02*
Y303100D01*
Y276400D02*
X370500Y271400D01*
X398500D01*
X416500Y253400D01*
Y94126D02*
Y253400D01*
X263917Y38843D02*
X263961Y31760D01*
X375040D02*
X403400Y3400D01*
X299000Y31760D02*
X375040D01*
X205826Y127126D02*
X206000Y127300D01*
X625169Y188831D02*
X639000D01*
X620200Y188800D02*
X625169Y188831D01*
X628531Y180169D02*
X639000D01*
X628362Y180000D02*
X628531Y180169D01*
X628100Y180000D02*
X628362D01*
X191789Y140906D02*
X194294Y138400D01*
X237200Y60800D02*
Y91600D01*
X252550Y84600D02*
Y104350D01*
X283600Y98000D02*
Y149600D01*
X324300Y95400D02*
Y142100D01*
X207000Y186200D02*
X246200Y225400D01*
X279200D01*
X290500Y214100D01*
X193500Y88000D02*
X199300D01*
X269937Y104500D02*
X310137Y64300D01*
X269937Y104500D02*
Y123750D01*
X268529Y125157D02*
X269937Y123750D01*
X327700Y118100D02*
X329700Y116100D01*
Y75300D02*
Y116100D01*
X629000Y49300D02*
X654200D01*
X619800Y40100D02*
X629000Y49300D01*
X263917Y38843D02*
Y46008D01*
X619637Y184500D02*
X639000D01*
X616700Y181563D02*
X619637Y184500D01*
X594476Y181563D02*
X616700D01*
X259874Y154988D02*
X268900D01*
X212500Y172632D02*
Y184100D01*
X242300Y213900D01*
X255500D01*
X271400Y198000D01*
Y174200D02*
Y198000D01*
X648700Y196100D02*
Y198623D01*
X645500Y201823D02*
X648700Y198623D01*
X639000Y201823D02*
X645500D01*
X254527Y113100D02*
X261050Y106577D01*
Y101150D02*
Y106577D01*
Y101150D02*
X278331Y83869D01*
X264050Y104359D02*
X281480Y86929D01*
X264050Y104359D02*
Y109300D01*
X251527Y110073D02*
Y113756D01*
Y110073D02*
X258050Y103550D01*
Y69150D02*
Y103550D01*
X244400Y55500D02*
X258050Y69150D01*
X249550Y97700D02*
Y99650D01*
X244000Y92150D02*
X249550Y97700D01*
X244000Y82000D02*
Y92150D01*
X218811Y111911D02*
X219700Y112800D01*
X263917Y52500D02*
Y53882D01*
X266181Y52500D02*
X275181Y43500D01*
X218811Y124289D02*
X230622Y112478D01*
X225700Y135100D02*
X232900Y127900D01*
X225700Y135100D02*
Y156500D01*
X207700Y156654D02*
X210535Y159488D01*
X639000Y197492D02*
X644300D01*
X275874Y141012D02*
Y153717D01*
X146067Y160409D02*
Y220800D01*
X220874Y183724D02*
X235500D01*
X247400Y195624D01*
Y210500D01*
X495800Y167500D02*
X498600Y164700D01*
X259874Y117512D02*
X264250D01*
X266500Y119762D01*
Y121800D01*
X538780Y165480D02*
Y168327D01*
X533300Y160000D02*
X538780Y165480D01*
X400000Y94126D02*
X416500D01*
X489800Y40878D02*
X490800Y41878D01*
X484787Y40878D02*
X489800D01*
X259874Y131488D02*
X275874D01*
Y118283D02*
Y131488D01*
X558500Y47874D02*
X561750D01*
X503500Y28874D02*
X547374D01*
X558500Y40000D01*
Y47874D01*
X430193Y94028D02*
X433213D01*
X430094Y94126D02*
X430193Y94028D01*
X416500Y94126D02*
X430094D01*
X426100Y99933D02*
X433213D01*
X256000Y141012D02*
X259874D01*
X235500Y183724D02*
X241000Y178224D01*
Y166500D02*
Y178224D01*
Y166500D02*
X242700Y164800D01*
X253900Y145000D02*
Y153100D01*
X255788Y154988D01*
X259874D01*
X220700Y174276D02*
X220874D01*
X413000Y84874D02*
X416500D01*
X408352Y80226D02*
X413000Y84874D01*
X408352Y37500D02*
Y80226D01*
Y37500D02*
X410978Y34874D01*
X414500D01*
X617878Y193161D02*
X639000D01*
X615500Y195539D02*
X617878Y193161D01*
X594476Y195539D02*
X615500D01*
X524531Y168327D02*
X529331D01*
X522700Y170157D02*
X524531Y168327D01*
X414500Y22588D02*
Y34874D01*
X414012Y22100D02*
X414500Y22588D01*
X414012Y10000D02*
Y22100D01*
X423898Y34972D02*
X433213D01*
X423800Y34874D02*
X423898Y34972D01*
X414500Y34874D02*
X423800D01*
X518000Y49091D02*
Y73500D01*
X427988Y10000D02*
Y16900D01*
X433213Y29067D02*
X484787D01*
X494193Y28874D02*
X503500D01*
X494000Y29067D02*
X494193Y28874D01*
X484787Y29067D02*
X494000D01*
X484787Y28318D02*
Y29067D01*
X479669Y23200D02*
X484787Y28318D01*
X479669Y22571D02*
Y23200D01*
X146067Y136000D02*
Y160409D01*
X203512Y95000D02*
X208248D01*
X203500Y94988D02*
X203512Y95000D01*
X524248Y176327D02*
X529331D01*
X523000Y175079D02*
X524248Y176327D01*
X553724Y57126D02*
X558500D01*
X553700Y57102D02*
X553724Y57126D01*
X549043Y57102D02*
X553700D01*
X425448Y40878D02*
X433213D01*
X422200Y44126D02*
X425448Y40878D01*
X414500Y44126D02*
X422200D01*
X503433Y49091D02*
Y73500D01*
X495898Y49091D02*
X503433D01*
X492300Y52689D02*
X495898Y49091D01*
X484787Y52689D02*
X492300D01*
X503433Y43567D02*
Y49091D01*
Y43567D02*
X503500Y43500D01*
Y38126D02*
Y43500D01*
D36*
X257835Y391335D02*
X503665D01*
X232000Y365500D02*
X257835Y391335D01*
X232591Y72000D02*
Y100791D01*
X166000Y143500D02*
X172531Y136969D01*
X166500Y115000D02*
X172500D01*
X144500Y111500D02*
X144622Y111378D01*
X172500D01*
X237200Y91600D02*
Y94000D01*
X503665Y391335D02*
X509500Y385500D01*
Y374000D02*
Y385500D01*
Y374000D02*
X514000Y369500D01*
Y360500D02*
Y369500D01*
X549043Y57102D02*
Y67500D01*
X173400Y142500D02*
X176963Y138937D01*
X252407Y121220D02*
X254527Y119100D01*
Y113100D02*
Y119100D01*
X251957Y136969D02*
X256000Y141012D01*
D37*
X244500Y127126D02*
X252000D01*
X199000Y94988D02*
Y101900D01*
X220700Y170700D02*
Y174276D01*
X242700Y158622D02*
Y164800D01*
X169500Y135000D02*
X185248D01*
X172500Y115000D02*
X174154Y113346D01*
X185248D01*
X176185Y115315D02*
X185248D01*
X171500Y120000D02*
X176185Y115315D01*
X172500Y111378D02*
X185248D01*
X199862Y113457D02*
X207543D01*
X210937Y110063D01*
X199862Y113457D02*
X201094Y112225D01*
Y105374D02*
Y112225D01*
X210937Y105374D02*
Y110063D01*
X247968Y133032D02*
X250000Y131000D01*
X244500Y133032D02*
X247968D01*
X248962Y125157D02*
X249863Y124256D01*
X253137D01*
X254038Y125157D02*
X268529D01*
X253137Y124256D02*
X254038Y125157D01*
X251000Y127000D02*
X252000D01*
X255000Y131500D02*
X256500D01*
X251500Y135000D02*
X255000Y131500D01*
X244500Y135000D02*
X251500D01*
X244500Y125157D02*
X248962D01*
X229500Y98126D02*
X230622Y99248D01*
Y105374D01*
X234559Y96641D02*
Y105374D01*
Y96641D02*
X237200Y94000D01*
X226500Y99963D02*
X228571Y102034D01*
X226500Y87893D02*
Y99963D01*
X228571Y105291D02*
X228654Y105374D01*
X228571Y102034D02*
Y105291D01*
X179154Y156654D02*
X185248D01*
X240200Y102100D02*
X241000Y101300D01*
X240200Y102100D02*
Y105374D01*
X239000Y110200D02*
X249550Y99650D01*
X172531Y136969D02*
X185248D01*
X218335Y159488D02*
X218811Y159965D01*
X188958Y156654D02*
X207700D01*
X188958D02*
X212906Y132706D01*
X230622Y110000D02*
X239874Y119252D01*
X230622Y110000D02*
Y112478D01*
X218811Y124289D02*
Y159965D01*
X242700Y158622D02*
X244500D01*
X240390D02*
X242700D01*
X217500Y170000D02*
X218800Y168700D01*
Y164637D02*
Y168700D01*
Y164637D02*
X218811Y164626D01*
X235506Y131169D02*
X240697D01*
X240803Y131063D01*
X244500D01*
X216843Y105374D02*
Y109819D01*
X216100Y110562D02*
X216843Y109819D01*
X216100Y110562D02*
Y153900D01*
X185248Y127126D02*
X205826D01*
X179900Y142874D02*
X185248D01*
X239100Y152717D02*
X244500D01*
X185248Y140906D02*
X191789D01*
X176963Y138937D02*
X185248D01*
X244500Y113346D02*
X248000D01*
X249134Y112213D01*
Y107767D02*
Y112213D01*
Y107767D02*
X252550Y104350D01*
X236528Y100172D02*
Y105374D01*
Y100172D02*
X238700Y98000D01*
X238496Y105374D02*
X240200D01*
X207000Y164626D02*
Y186200D01*
X195189Y100500D02*
Y105374D01*
X193500Y100500D02*
X195189D01*
X193500Y88000D02*
Y100500D01*
X244500Y154685D02*
X250801D01*
X214874Y100200D02*
Y105374D01*
X240363Y138937D02*
X244500D01*
X235748Y143552D02*
X240363Y138937D01*
X235748Y143552D02*
Y153980D01*
X240390Y158622D01*
X244500Y148780D02*
X250220D01*
X250500Y148500D01*
X208968Y164626D02*
Y169100D01*
X212500Y172632D01*
X244500Y121220D02*
X252407D01*
X239100Y123189D02*
X244500D01*
Y117283D02*
X248000D01*
X251527Y113756D01*
X240500Y115315D02*
X244500D01*
X239000Y113815D02*
X240500Y115315D01*
X239000Y110200D02*
Y113815D01*
X218811Y105374D02*
Y111911D01*
X185248Y131063D02*
X210042D01*
X185248Y156654D02*
X188958D01*
X212906Y105374D02*
Y132706D01*
X240194Y129094D02*
X244500D01*
X239000Y127900D02*
X240194Y129094D01*
X232900Y127900D02*
X239000D01*
X218811Y159965D02*
Y164626D01*
X210535Y159488D02*
X218335D01*
X232591Y100791D02*
Y105374D01*
X230622D02*
Y110000D01*
X239874Y119252D02*
X244500D01*
X179800Y129000D02*
X179894Y129094D01*
X185248D01*
X244500Y136969D02*
X251957D01*
X244500Y138937D02*
X247837D01*
X253900Y145000D01*
X244500Y156654D02*
X247854D01*
X250637Y159437D01*
X220780Y164626D02*
Y170620D01*
X220700Y170700D02*
X220780Y170620D01*
X199126Y102026D02*
Y105374D01*
X199000Y101900D02*
X199126Y102026D01*
D38*
X86100Y123700D02*
Y142512D01*
X224000Y31500D02*
X263961D01*
X158000Y313500D02*
X185000Y340500D01*
X263961Y31500D02*
Y31760D01*
Y10500D02*
Y31500D01*
X198874Y56626D02*
X224000Y31500D01*
X198874Y56626D02*
Y81012D01*
X185000Y340000D02*
Y340500D01*
X158000Y246000D02*
Y313500D01*
X115834Y203834D02*
X158000Y246000D01*
X115834Y160409D02*
Y203834D01*
X219619Y81012D02*
X226500Y87893D01*
X96200Y206000D02*
X122700Y232500D01*
X123000D01*
X11500Y156500D02*
X30500D01*
X7500Y152500D02*
X11500Y156500D01*
X7500Y144500D02*
Y152500D01*
X86100Y123700D02*
X96500Y113300D01*
Y69283D02*
Y113300D01*
X89201Y61984D02*
X96500Y69283D01*
X63500Y147000D02*
X71201D01*
X83776Y165724D02*
X96200D01*
Y206000D01*
X198874Y81012D02*
X219619D01*
X140488D02*
X198874D01*
X123228D02*
X140488D01*
X131500Y90000D02*
X140488Y81012D01*
X22744Y99898D02*
Y106000D01*
X131500Y90000D02*
Y136000D01*
X83500Y166000D02*
X83776Y165724D01*
X71201Y166000D02*
X83500D01*
X96200Y165724D02*
X96201D01*
X263961Y10500D02*
X299000D01*
X104201Y61984D02*
X123228Y81012D01*
X30500Y156500D02*
X71201D01*
X85201Y142512D02*
X86100D01*
X22744Y112102D02*
Y126944D01*
X30500Y134700D01*
Y156500D01*
X299000Y10500D02*
Y31760D01*
X131500Y136000D02*
Y160409D01*
X115834D02*
X131500D01*
X111700Y156276D02*
X115834Y160409D01*
X96201Y156276D02*
X111700D01*
X78112Y156488D02*
X85201D01*
X78100Y156500D02*
X78112Y156488D01*
X71201Y156500D02*
X78100D01*
X90713Y156276D02*
X96201D01*
X90500Y156488D02*
X90713Y156276D01*
X85201Y156488D02*
X90500D01*
X80388Y142512D02*
X85201D01*
X75900Y147000D02*
X80388Y142512D01*
X71201Y147000D02*
X75900D01*
D39*
X524700Y181500D02*
X535000D01*
X523200Y180000D02*
X524700Y181500D01*
X506000Y184921D02*
Y192000D01*
Y184921D02*
X509535D01*
X522500Y185500D02*
Y192000D01*
X521921Y184921D02*
X522500Y185500D01*
X518000Y184921D02*
X521921D01*
X499300Y180000D02*
X509535D01*
X518000D02*
X523200D01*
X517100Y184921D02*
X518000D01*
X501600Y170000D02*
X506679Y175079D01*
X509535D01*
D40*
X513800Y171300D02*
Y190500D01*
X512657Y170157D02*
X513800Y171300D01*
X509535Y170157D02*
X512657D01*
D41*
X278331Y31760D02*
Y83869D01*
X281480Y31760D02*
Y86929D01*
X258200Y41700D02*
X260472Y43972D01*
Y46008D01*
X275181Y31760D02*
Y43500D01*
X518000Y170157D02*
X522700D01*
X287780Y31760D02*
X299000D01*
X518000Y175079D02*
X523000D01*
X260472Y53882D02*
X263917D01*
D42*
X560165Y19685D02*
D03*
X177165D02*
D03*
X12500Y277000D02*
D03*
X315500Y379992D02*
D03*
Y277000D02*
D03*
X12500Y379992D02*
D03*
D43*
X378500Y288500D02*
D03*
D44*
Y368815D02*
D03*
D45*
X557500Y118000D02*
D03*
X321713Y221787D02*
D03*
X533000Y49000D02*
D03*
X306213Y221787D02*
D03*
X13000Y244500D02*
D03*
X31701Y102823D02*
D03*
X478500Y329000D02*
D03*
X389500Y114000D02*
D03*
X488000Y160000D02*
D03*
D46*
X557500Y108000D02*
D03*
Y98000D02*
D03*
X321713Y231787D02*
D03*
Y241787D02*
D03*
X533000Y59000D02*
D03*
X656500Y10500D02*
D03*
X296213Y251787D02*
D03*
X306213D02*
D03*
X296213Y241787D02*
D03*
X306213D02*
D03*
X296213Y231787D02*
D03*
X306213D02*
D03*
X296213Y221787D02*
D03*
X13000Y194500D02*
D03*
Y204500D02*
D03*
Y214500D02*
D03*
Y224500D02*
D03*
Y234500D02*
D03*
X31701Y112823D02*
D03*
X478500Y359000D02*
D03*
Y349000D02*
D03*
Y339000D02*
D03*
X389500Y104000D02*
D03*
Y94000D02*
D03*
X488000Y190000D02*
D03*
Y180000D02*
D03*
Y170000D02*
D03*
D47*
X666500Y10500D02*
D03*
D48*
X309508Y294992D02*
D03*
D49*
X319508D02*
D03*
X309508Y304992D02*
D03*
X319508D02*
D03*
Y324992D02*
D03*
X309508D02*
D03*
X319508Y314992D02*
D03*
X309508D02*
D03*
D50*
X89201Y110016D02*
D03*
Y61984D02*
D03*
X104201D02*
D03*
Y110016D02*
D03*
D51*
X45791Y5283D02*
D03*
X57602Y23000D02*
D03*
X33980D02*
D03*
D52*
X20201Y65657D02*
D03*
Y85343D02*
D03*
D53*
X89264Y45000D02*
D03*
D54*
X97138D02*
D03*
D55*
X580193Y115933D02*
D03*
D56*
Y108059D02*
D03*
Y100185D02*
D03*
Y92311D02*
D03*
Y84437D02*
D03*
Y76563D02*
D03*
Y68689D02*
D03*
Y60815D02*
D03*
Y52941D02*
D03*
Y45067D02*
D03*
X666807Y115933D02*
D03*
Y108059D02*
D03*
Y100185D02*
D03*
Y92311D02*
D03*
Y84437D02*
D03*
Y76563D02*
D03*
Y68689D02*
D03*
Y60815D02*
D03*
Y52941D02*
D03*
Y45067D02*
D03*
D57*
X289787Y22114D02*
D03*
X272819D02*
D03*
D58*
X500213Y250008D02*
D03*
Y265756D02*
D03*
Y281504D02*
D03*
Y297252D02*
D03*
Y313000D02*
D03*
Y328748D02*
D03*
Y344496D02*
D03*
Y360244D02*
D03*
D59*
Y375992D02*
D03*
D60*
X651787Y362213D02*
D03*
Y263787D02*
D03*
X518913Y379929D02*
D03*
Y246071D02*
D03*
D61*
X476000Y309500D02*
D03*
X518000Y113000D02*
D03*
Y94500D02*
D03*
X516500Y337000D02*
D03*
X63500Y147000D02*
D03*
X185000Y340000D02*
D03*
X123000Y232500D02*
D03*
X7500Y144500D02*
D03*
D62*
X401500Y229500D02*
D03*
X334000Y241500D02*
D03*
X328500Y214000D02*
D03*
X346500Y231500D02*
D03*
X153000Y120000D02*
D03*
X613000Y188500D02*
D03*
X513800Y190500D02*
D03*
X522500Y192000D02*
D03*
X506000D02*
D03*
X252000Y127000D02*
D03*
X250000Y131000D02*
D03*
X229500Y98126D02*
D03*
X179154Y156654D02*
D03*
X468500Y249626D02*
D03*
X478500Y372626D02*
D03*
X553500Y45500D02*
D03*
X243328Y97339D02*
D03*
X241000Y101300D02*
D03*
X166043Y143500D02*
D03*
X189043Y204500D02*
D03*
X514000Y360500D02*
D03*
X549043Y67500D02*
D03*
X217500Y170000D02*
D03*
X221900Y95000D02*
D03*
X229900Y157200D02*
D03*
X213300Y156700D02*
D03*
X202100Y170000D02*
D03*
X199862Y113457D02*
D03*
X206000Y127300D02*
D03*
X287600Y136500D02*
D03*
X332600Y314992D02*
D03*
X22744Y106000D02*
D03*
X179900Y142874D02*
D03*
X628362Y180000D02*
D03*
X499300D02*
D03*
X239100Y152717D02*
D03*
X194294Y138400D02*
D03*
X220500Y350000D02*
D03*
X237200Y60800D02*
D03*
X252550Y84600D02*
D03*
X283600Y98000D02*
D03*
X324300Y95400D02*
D03*
X199300Y88000D02*
D03*
X333600Y91800D02*
D03*
X250801Y154685D02*
D03*
X310137Y64300D02*
D03*
X327700Y118100D02*
D03*
X329700Y75300D02*
D03*
X654200Y49300D02*
D03*
X619800Y40100D02*
D03*
X214874Y100200D02*
D03*
X268900Y154988D02*
D03*
X250500Y148500D02*
D03*
X271400Y174200D02*
D03*
X648700Y196100D02*
D03*
X264050Y109300D02*
D03*
X239100Y123189D02*
D03*
X244400Y55500D02*
D03*
X258200Y41700D02*
D03*
X244000Y82000D02*
D03*
X219700Y112800D02*
D03*
X225700Y156500D02*
D03*
X644300Y197492D02*
D03*
X232700Y72000D02*
D03*
X501600Y170000D02*
D03*
X146067Y220800D02*
D03*
X247400Y210500D02*
D03*
X266500Y121800D02*
D03*
X137000Y208800D02*
D03*
X141400Y170800D02*
D03*
X179800Y129000D02*
D03*
X533300Y160000D02*
D03*
X400000Y94126D02*
D03*
X490800Y41878D02*
D03*
X426100Y99933D02*
D03*
X250637Y159437D02*
D03*
M02*
