%FSLAX25Y25*%
%MOIN*%
G70*
G01*
G75*
G04 Layer_Physical_Order=2*
G04 Layer_Color=16711680*
%ADD10R,0.03150X0.04724*%
%ADD11R,0.06693X0.04921*%
G04:AMPARAMS|DCode=12|XSize=70.87mil|YSize=57.09mil|CornerRadius=0mil|HoleSize=0mil|Usage=FLASHONLY|Rotation=180.000|XOffset=0mil|YOffset=0mil|HoleType=Round|Shape=Octagon|*
%AMOCTAGOND12*
4,1,8,-0.03543,0.01427,-0.03543,-0.01427,-0.02116,-0.02854,0.02116,-0.02854,0.03543,-0.01427,0.03543,0.01427,0.02116,0.02854,-0.02116,0.02854,-0.03543,0.01427,0.0*
%
%ADD12OCTAGOND12*%

G04:AMPARAMS|DCode=13|XSize=59.06mil|YSize=31.5mil|CornerRadius=0mil|HoleSize=0mil|Usage=FLASHONLY|Rotation=180.000|XOffset=0mil|YOffset=0mil|HoleType=Round|Shape=Octagon|*
%AMOCTAGOND13*
4,1,8,-0.02953,0.00787,-0.02953,-0.00787,-0.02165,-0.01575,0.02165,-0.01575,0.02953,-0.00787,0.02953,0.00787,0.02165,0.01575,-0.02165,0.01575,-0.02953,0.00787,0.0*
%
%ADD13OCTAGOND13*%

%ADD14R,0.05906X0.03150*%
G04:AMPARAMS|DCode=15|XSize=70.87mil|YSize=43.31mil|CornerRadius=0mil|HoleSize=0mil|Usage=FLASHONLY|Rotation=270.000|XOffset=0mil|YOffset=0mil|HoleType=Round|Shape=Octagon|*
%AMOCTAGOND15*
4,1,8,-0.01083,-0.03543,0.01083,-0.03543,0.02165,-0.02461,0.02165,0.02461,0.01083,0.03543,-0.01083,0.03543,-0.02165,0.02461,-0.02165,-0.02461,-0.01083,-0.03543,0.0*
%
%ADD15OCTAGOND15*%

%ADD16O,0.05906X0.03937*%
%ADD17R,0.05906X0.03937*%
%ADD18O,0.03937X0.05906*%
%ADD19R,0.04921X0.06693*%
%ADD20R,0.05118X0.04134*%
G04:AMPARAMS|DCode=21|XSize=47.24mil|YSize=39.37mil|CornerRadius=0mil|HoleSize=0mil|Usage=FLASHONLY|Rotation=270.000|XOffset=0mil|YOffset=0mil|HoleType=Round|Shape=Octagon|*
%AMOCTAGOND21*
4,1,8,-0.00984,-0.02362,0.00984,-0.02362,0.01969,-0.01378,0.01969,0.01378,0.00984,0.02362,-0.00984,0.02362,-0.01969,0.01378,-0.01969,-0.01378,-0.00984,-0.02362,0.0*
%
%ADD21OCTAGOND21*%

G04:AMPARAMS|DCode=22|XSize=39.37mil|YSize=25.59mil|CornerRadius=0mil|HoleSize=0mil|Usage=FLASHONLY|Rotation=270.000|XOffset=0mil|YOffset=0mil|HoleType=Round|Shape=Octagon|*
%AMOCTAGOND22*
4,1,8,-0.00640,-0.01969,0.00640,-0.01969,0.01280,-0.01329,0.01280,0.01329,0.00640,0.01969,-0.00640,0.01969,-0.01280,0.01329,-0.01280,-0.01329,-0.00640,-0.01969,0.0*
%
%ADD22OCTAGOND22*%

G04:AMPARAMS|DCode=23|XSize=39.37mil|YSize=19.69mil|CornerRadius=0mil|HoleSize=0mil|Usage=FLASHONLY|Rotation=270.000|XOffset=0mil|YOffset=0mil|HoleType=Round|Shape=Octagon|*
%AMOCTAGOND23*
4,1,8,-0.00492,-0.01969,0.00492,-0.01969,0.00984,-0.01476,0.00984,0.01476,0.00492,0.01969,-0.00492,0.01969,-0.00984,0.01476,-0.00984,-0.01476,-0.00492,-0.01969,0.0*
%
%ADD23OCTAGOND23*%

%ADD24R,0.04134X0.05118*%
%ADD25R,0.07874X0.23622*%
%ADD26R,0.09055X0.04685*%
%ADD27R,0.30299X0.25598*%
%ADD28R,0.04724X0.03150*%
%ADD29R,0.01969X0.09843*%
%ADD30R,0.07874X0.09843*%
%ADD31O,0.00984X0.06102*%
%ADD32O,0.06102X0.00984*%
%ADD33O,0.04134X0.02165*%
%ADD34R,0.04134X0.02165*%
%ADD35C,0.02000*%
%ADD36C,0.01000*%
%ADD37C,0.00787*%
%ADD38C,0.03937*%
%ADD39C,0.01732*%
%ADD40C,0.01181*%
%ADD41C,0.01575*%
%ADD42C,0.19685*%
%ADD43R,0.11811X0.11811*%
%ADD44C,0.11811*%
%ADD45R,0.05906X0.05906*%
%ADD46C,0.05906*%
%ADD47R,0.05906X0.05906*%
%ADD48R,0.06890X0.06890*%
%ADD49C,0.06890*%
%ADD50C,0.06496*%
%ADD51C,0.07874*%
%ADD52O,0.09843X0.07874*%
%ADD53R,0.04921X0.04921*%
%ADD54C,0.04921*%
%ADD55R,0.04724X0.04724*%
%ADD56C,0.04724*%
%ADD57C,0.03937*%
%ADD58C,0.08858*%
%ADD59R,0.08858X0.08858*%
%ADD60C,0.15748*%
%ADD61C,0.05000*%
%ADD62C,0.02701*%
G04:AMPARAMS|DCode=63|XSize=39.37mil|YSize=25.59mil|CornerRadius=0mil|HoleSize=0mil|Usage=FLASHONLY|Rotation=180.000|XOffset=0mil|YOffset=0mil|HoleType=Round|Shape=Octagon|*
%AMOCTAGOND63*
4,1,8,-0.01969,0.00640,-0.01969,-0.00640,-0.01329,-0.01280,0.01329,-0.01280,0.01969,-0.00640,0.01969,0.00640,0.01329,0.01280,-0.01329,0.01280,-0.01969,0.00640,0.0*
%
%ADD63OCTAGOND63*%

G04:AMPARAMS|DCode=64|XSize=39.37mil|YSize=19.69mil|CornerRadius=0mil|HoleSize=0mil|Usage=FLASHONLY|Rotation=180.000|XOffset=0mil|YOffset=0mil|HoleType=Round|Shape=Octagon|*
%AMOCTAGOND64*
4,1,8,-0.01969,0.00492,-0.01969,-0.00492,-0.01476,-0.00984,0.01476,-0.00984,0.01969,-0.00492,0.01969,0.00492,0.01476,0.00984,-0.01476,0.00984,-0.01969,0.00492,0.0*
%
%ADD64OCTAGOND64*%

%ADD65R,0.04724X0.09449*%
%ADD66R,0.04724X0.04724*%
%ADD67R,0.07874X0.07874*%
%ADD68R,0.11000X0.15000*%
D10*
X334488Y274787D02*
D03*
X343937D02*
D03*
D11*
X230874Y106012D02*
D03*
Y119988D02*
D03*
X218874Y163988D02*
D03*
Y150012D02*
D03*
X212874Y106012D02*
D03*
Y119988D02*
D03*
X85701Y138512D02*
D03*
Y152488D02*
D03*
X72701Y11512D02*
D03*
Y25488D02*
D03*
D19*
X334724Y284287D02*
D03*
X348701D02*
D03*
X271862Y168500D02*
D03*
X257886D02*
D03*
X243862Y133000D02*
D03*
X229886D02*
D03*
X185886Y156500D02*
D03*
X199862D02*
D03*
X185886Y129000D02*
D03*
X199862D02*
D03*
X271862Y143500D02*
D03*
X257886D02*
D03*
D20*
X604000Y70374D02*
D03*
Y79626D02*
D03*
X45701Y111626D02*
D03*
Y102374D02*
D03*
D24*
X602626Y45000D02*
D03*
X593374D02*
D03*
X25374Y214500D02*
D03*
X34626D02*
D03*
X25374Y204500D02*
D03*
X34626D02*
D03*
X42626Y244500D02*
D03*
X33374D02*
D03*
X42626Y234500D02*
D03*
X33374D02*
D03*
D26*
X71701Y148000D02*
D03*
Y138500D02*
D03*
Y129000D02*
D03*
D27*
X31000Y138500D02*
D03*
D28*
X593500Y80724D02*
D03*
Y71276D02*
D03*
X96701Y129276D02*
D03*
Y138724D02*
D03*
X82201Y27224D02*
D03*
Y17776D02*
D03*
D35*
X179154Y156654D02*
X186000D01*
X185996Y156498D02*
X186000Y156654D01*
X185886Y151814D02*
X185996Y156497D01*
X212874Y106000D02*
X216750D01*
X500213Y313000D02*
X509300D01*
X479500D02*
X500213D01*
Y313713D02*
X516500Y330000D01*
Y337000D01*
X476000Y309500D02*
X479500Y313000D01*
X46200Y217800D02*
X144300D01*
X33374Y230626D02*
X46200Y217800D01*
X33374Y230626D02*
Y234500D01*
X141400Y170800D02*
Y191600D01*
X128500Y204500D02*
X141400Y191600D01*
X34626Y204500D02*
X128500D01*
X131300Y214500D02*
X137000Y208800D01*
X483500Y305000D02*
X508500D01*
X441500Y263000D02*
X483500Y305000D01*
X424500Y263000D02*
X441500D01*
X375500Y214000D02*
X424500Y263000D01*
X328500Y214000D02*
X375500D01*
X428800Y256800D02*
X459761D01*
X401500Y229500D02*
X428800Y256800D01*
X488000Y190000D02*
X489350Y188650D01*
X508650D01*
X482500Y190000D02*
X488000D01*
X479500Y187000D02*
X482500Y190000D01*
X257500Y187000D02*
X479500D01*
X477000Y192500D02*
X479453Y194953D01*
X504047D02*
X506000Y193000D01*
X479453Y194953D02*
X504047D01*
X520047Y197953D02*
X522500Y195500D01*
X225700Y178700D02*
X244953Y197953D01*
X520047D01*
X251000Y192500D02*
X477000D01*
X229900Y171400D02*
X251000Y192500D01*
X244200Y173700D02*
X257500Y187000D01*
X478000Y180000D02*
X488000Y170000D01*
X259800Y180000D02*
X478000D01*
X248158Y168358D02*
X259800Y180000D01*
X321713Y241787D02*
X333713D01*
X526500Y294000D02*
Y309480D01*
X519500Y294000D02*
X526500D01*
Y276295D02*
Y294000D01*
X240600Y99349D02*
Y101700D01*
X321713Y231787D02*
X346213D01*
X352500Y225000D02*
Y266224D01*
X349287Y221787D02*
X352500Y225000D01*
X321713Y221787D02*
X349287D01*
X343937Y274787D02*
X352500Y266224D01*
X306213Y221787D02*
Y231787D01*
X321713D01*
X306213Y241787D02*
X321713D01*
X306213D02*
Y251787D01*
X539000Y79500D02*
X557500Y98000D01*
X246500Y79500D02*
X539000D01*
X389626Y94126D02*
X400000D01*
X389500Y94000D02*
X389626Y94126D01*
X244200Y163800D02*
Y173700D01*
X225700Y156500D02*
Y178700D01*
X229900Y157200D02*
Y171400D01*
X144300Y217800D02*
X147800Y214300D01*
X97200Y234500D02*
X110900Y220800D01*
X146067D01*
X114731Y227500D02*
X117231Y225000D01*
X164151D01*
X114731Y227500D02*
Y250531D01*
X164151Y225000D02*
X167363Y221787D01*
X34626Y214500D02*
X131300D01*
X666500Y10500D02*
Y27572D01*
X250801Y154685D02*
X258086Y147400D01*
X526500Y319520D02*
Y357500D01*
X425609Y206900D02*
X500213Y281504D01*
X628100Y180000D02*
Y191300D01*
X8000Y170500D02*
X40000Y138500D01*
X557000Y119000D02*
X570500D01*
X122700Y232500D02*
X166975D01*
X114185Y120000D02*
X153000D01*
X285000Y290484D02*
X309508Y314992D01*
X285000Y243000D02*
Y290484D01*
Y243000D02*
X296213Y231787D01*
X384547Y109000D02*
X503500D01*
X379930Y113617D02*
X384547Y109000D01*
X503500D02*
X518000Y94500D01*
X244000Y82000D02*
X246500Y79500D01*
X282939Y97339D02*
X283600Y98000D01*
X243328Y97339D02*
X282939D01*
X249167Y104350D02*
X389500D01*
X348701Y278600D02*
X428100D01*
X345901Y274700D02*
X348701Y278600D01*
X428100D02*
X478500Y329000D01*
X513800Y190500D02*
X517000D01*
X510500D02*
X513800D01*
X606000Y188500D02*
X613000D01*
X605500Y188000D02*
X606000Y188500D01*
X519500Y188000D02*
X605500D01*
X517000Y190500D02*
X519500Y188000D01*
X508650Y188650D02*
X510500Y190500D01*
X522500Y192000D02*
Y195500D01*
X506000Y192000D02*
Y193000D01*
X533300Y142700D02*
X557000Y119000D01*
X533300Y142700D02*
Y160000D01*
X599100Y128000D02*
X611500Y115600D01*
X579500Y128000D02*
X599100D01*
X570500Y119000D02*
X579500Y128000D01*
X518000Y113000D02*
X577260D01*
X557500Y108000D02*
X568800D01*
X568859Y108059D01*
X580193D01*
X577260Y113000D02*
X580193Y115933D01*
X248000Y133000D02*
X250000Y131000D01*
X243862Y133000D02*
X248000D01*
X252000Y127000D02*
X254500D01*
X263400Y118100D02*
X327700D01*
X254500Y127000D02*
X263400Y118100D01*
X253800Y132200D02*
X371300D01*
X244100Y141900D02*
X253800Y132200D01*
X235500Y141900D02*
X244100D01*
X253900Y136500D02*
X287600D01*
X245500Y144900D02*
X253900Y136500D01*
X223600Y144900D02*
X245500D01*
X229500Y98126D02*
X230874Y99500D01*
Y106012D01*
X174000Y166100D02*
X210300Y202400D01*
X174000Y148774D02*
Y166100D01*
Y148774D02*
X179900Y142874D01*
X170000Y169401D02*
X207499Y206900D01*
X170000Y146400D02*
Y169401D01*
Y146400D02*
X178000Y138400D01*
X508008Y375992D02*
X526500Y357500D01*
X500213Y375992D02*
X508008D01*
X508500Y305000D02*
X519500Y294000D01*
X459761Y256800D02*
X500213Y297252D01*
X550043Y42043D02*
X553500Y45500D01*
X549043Y42043D02*
X550043D01*
X549000Y42000D02*
X549043Y42043D01*
X533000Y42000D02*
X549000D01*
X533000D02*
Y49000D01*
X294900Y37900D02*
X575549D01*
X260800Y72000D02*
X294900Y37900D01*
X166975Y232500D02*
X172675Y226800D01*
X8000Y170500D02*
Y219500D01*
X239978Y93473D02*
X241301Y92150D01*
X239978Y98727D02*
X240600Y99349D01*
X239978Y93473D02*
Y98727D01*
X240600Y101700D02*
X241000Y101300D01*
X242721Y106012D02*
X247382Y101350D01*
X230874Y106012D02*
X242721D01*
X240717Y112800D02*
X249167Y104350D01*
X219700Y112800D02*
X240717D01*
X166043Y181500D02*
X189043Y204500D01*
X166043Y143500D02*
Y181500D01*
X562134Y71000D02*
X580193Y52941D01*
X381511Y71000D02*
X562134D01*
X310137Y64300D02*
X374811D01*
X381511Y71000D01*
X305000Y259500D02*
X332200D01*
X301200Y255700D02*
X305000Y259500D01*
X301200Y228750D02*
Y255700D01*
X332200Y259500D02*
X334488Y261788D01*
X214150Y173350D02*
X217500Y170000D01*
X216750Y106000D02*
X221888D01*
X216750D02*
X221900Y100862D01*
X142351Y129000D02*
X179800D01*
X488000Y160000D02*
X533300D01*
X423800Y148300D02*
X476300D01*
X271862D02*
X423800D01*
X266500Y121800D02*
X381700D01*
X271862Y148300D02*
Y157950D01*
X389500Y114000D02*
X423800Y148300D01*
X371300Y132200D02*
X381700Y121800D01*
X199862Y125245D02*
X205119Y119988D01*
X199862Y125245D02*
Y129000D01*
Y113457D02*
Y125245D01*
X499300Y180000D02*
X628100D01*
X501600Y170000D02*
X637400D01*
X258086Y147400D02*
X258500Y147814D01*
X257886Y147200D02*
X258086Y147400D01*
X257886Y143500D02*
X258086Y147400D01*
X658000Y45500D02*
Y67756D01*
X654200Y49300D02*
X658000Y45500D01*
X666500Y37000D01*
X408800Y94500D02*
X518000D01*
X404300Y99000D02*
X408800Y94500D01*
X292950Y99000D02*
X404300D01*
X290600Y101350D02*
X292950Y99000D01*
X247382Y101350D02*
X290600D01*
X218874Y163988D02*
Y168626D01*
X195336Y173350D02*
X214150D01*
X185886Y163900D02*
X195336Y173350D01*
X185886Y163900D02*
X186000Y156654D01*
X217500Y170000D02*
X218874Y168626D01*
X212874Y106000D02*
Y106012D01*
X221900Y95000D02*
Y100862D01*
X96701Y129276D02*
X142351Y129000D01*
X202100Y167900D02*
X213300Y156700D01*
X202100Y167900D02*
Y170000D01*
X343937Y274787D02*
X345901Y274700D01*
X348701Y278600D02*
Y284287D01*
X206350Y150012D02*
X218874D01*
X199862Y156500D02*
X206350Y150012D01*
X229886Y133000D02*
Y136286D01*
X235500Y141900D01*
X206000Y127300D02*
X223600Y144900D01*
X319508Y314992D02*
X332600D01*
X622000Y45000D02*
X656500Y10500D01*
X602626Y45000D02*
X622000D01*
X617000Y202400D02*
X628100Y191300D01*
X210300Y202400D02*
X617000D01*
X628100Y180000D02*
X628362D01*
X488000D02*
X499300D01*
X248158Y161774D02*
Y168358D01*
X239100Y152717D02*
X248158Y161774D01*
X178000Y138400D02*
X194294D01*
X207499Y206900D02*
X425609D01*
X478500Y359000D02*
Y372626D01*
X220500Y350000D02*
X309200D01*
X336000Y376800D01*
X450700D01*
X478500Y349000D01*
X666807Y52941D02*
X671500Y48248D01*
Y3500D02*
Y48248D01*
X670500Y2500D02*
X671500Y3500D01*
X575549Y2500D02*
X670500D01*
X573349Y4700D02*
X575549Y2500D01*
X320400Y4700D02*
X573349D01*
X264300Y60800D02*
X320400Y4700D01*
X237200Y60800D02*
X264300D01*
X252550Y84600D02*
X534100D01*
X557500Y108000D01*
X241301Y92150D02*
X321050D01*
X324300Y95400D01*
X500213Y250008D02*
X526500Y276295D01*
X526437Y309480D02*
X526500D01*
X199300Y88000D02*
X199900Y87400D01*
X240750D01*
X242500Y89150D01*
X330950D01*
X333600Y91800D01*
X329700Y75300D02*
X571056D01*
X580193Y84437D01*
X666500Y27572D02*
Y37000D01*
X658000Y67756D02*
X666807Y76563D01*
X579300Y40100D02*
X619800D01*
X578500Y40900D02*
X579300Y40100D01*
X572700Y40900D02*
X578500D01*
X559600Y54000D02*
X572700Y40900D01*
X526000Y54000D02*
X559600D01*
X520200Y59800D02*
X526000Y54000D01*
X288900Y59800D02*
X520200D01*
X272950Y75750D02*
X288900Y59800D01*
X205150Y75750D02*
X272950D01*
X195900Y85000D02*
X205150Y75750D01*
X195900Y85000D02*
Y90000D01*
X206100Y100200D01*
X214874D01*
X559685Y100185D02*
X580193D01*
X557500Y98000D02*
X559685Y100185D01*
X271862Y157950D02*
Y168500D01*
X268900Y154988D02*
X271862Y157950D01*
X237200Y148500D02*
X250500D01*
X235700Y150000D02*
X237200Y148500D01*
X235700Y150000D02*
Y155300D01*
X244200Y163800D01*
X271400Y174200D02*
X469700D01*
X478900Y165000D01*
X641700D01*
X648700Y172000D01*
Y196100D01*
X243862Y122755D02*
Y133000D01*
Y122755D02*
X253000Y113617D01*
X379930D01*
X252989Y109300D02*
X264050D01*
X239100Y123189D02*
X252989Y109300D01*
X244400Y55500D02*
X258200Y41700D01*
X205119Y119988D02*
X212874D01*
X185886Y151814D02*
X197700Y140000D01*
Y136700D02*
Y140000D01*
X195900Y134900D02*
X197700Y136700D01*
X188000Y134900D02*
X195900D01*
X185886Y132786D02*
X188000Y134900D01*
X185886Y129000D02*
Y132786D01*
X637400Y170000D02*
X642400Y175000D01*
Y195592D01*
X644300Y197492D01*
X650300Y67930D02*
X666807Y84437D01*
X650300Y24600D02*
Y67930D01*
Y24600D02*
X661500Y13400D01*
Y7500D02*
Y13400D01*
X659500Y5500D02*
X661500Y7500D01*
X607949Y5500D02*
X659500D01*
X575549Y37900D02*
X607949Y5500D01*
X232700Y72000D02*
X260800D01*
X488000Y170000D02*
X501600D01*
X42626Y234500D02*
X97200D01*
X291200Y246800D02*
X296213Y241787D01*
X291200Y246800D02*
Y286684D01*
X309508Y304992D01*
X167363Y221787D02*
X296213D01*
X114731Y250531D02*
X189192Y324992D01*
X309508D01*
X247400Y210500D02*
X310425D01*
X321713Y221787D01*
X334488Y261788D02*
Y274787D01*
X299250Y226800D02*
X301200Y228750D01*
X172675Y226800D02*
X299250D01*
X381700Y121800D02*
X389500Y114000D01*
X104201Y110016D02*
X114185Y120000D01*
X199862Y151616D02*
Y156500D01*
Y151616D02*
X201450Y150027D01*
Y135338D02*
Y150027D01*
X199862Y133750D02*
X201450Y135338D01*
X199862Y129000D02*
Y133750D01*
X179800Y129000D02*
X185886D01*
X147800Y135000D02*
Y214300D01*
X142076Y129276D02*
X147800Y135000D01*
X96701Y129276D02*
X142076D01*
X8000Y219500D02*
X13000Y224500D01*
X497922Y49000D02*
X533000D01*
X490800Y41878D02*
X497922Y49000D01*
X500213Y370713D02*
Y375992D01*
X478500Y349000D02*
X500213Y370713D01*
X526437Y319520D02*
X526500D01*
X296213Y251787D02*
Y281697D01*
X309508Y294992D01*
X476300Y148300D02*
X488000Y160000D01*
X271862Y143500D02*
Y148300D01*
X389500Y104000D02*
X422033D01*
X426100Y99933D01*
X212874Y119988D02*
X230874D01*
X611500Y73800D02*
Y115600D01*
X608074Y70374D02*
X611500Y73800D01*
X604000Y70374D02*
X608074D01*
X250637Y159437D02*
X258500D01*
X221888Y106000D02*
X221900Y106012D01*
X230874D01*
X478500Y339000D02*
X495000Y355500D01*
X495469D01*
X500213Y360244D01*
X185886Y108014D02*
Y129000D01*
Y108014D02*
X187888Y106012D01*
X212874D01*
X319508Y294992D02*
X330500D01*
X334724Y290768D01*
Y284287D02*
Y290768D01*
X580193Y112500D02*
Y115933D01*
Y112500D02*
X586000D01*
X593500Y105000D01*
Y80724D02*
Y105000D01*
X599298Y79626D02*
X604000D01*
X598200Y80724D02*
X599298Y79626D01*
X593500Y80724D02*
X598200D01*
X13000Y234500D02*
X33374D01*
X334724Y279636D02*
Y284287D01*
X334488Y279400D02*
X334724Y279636D01*
X334488Y274787D02*
Y279400D01*
X599102Y70374D02*
X604000D01*
X598200Y71276D02*
X599102Y70374D01*
X593500Y71276D02*
X598200D01*
X593500Y58126D02*
Y71276D01*
X593374Y58000D02*
X593500Y58126D01*
X593374Y45000D02*
Y58000D01*
X586767Y45000D02*
X593374D01*
X586700Y45067D02*
X586767Y45000D01*
X580193Y45067D02*
X586700D01*
X229886Y126988D02*
Y133000D01*
Y126988D02*
X230874Y126000D01*
Y119988D02*
Y126000D01*
X13000Y244500D02*
X33374D01*
X42626Y234500D02*
Y244500D01*
X13000Y214500D02*
X25374D01*
X13000Y204500D02*
X25374D01*
X258500Y147814D02*
Y151563D01*
X257886Y143500D02*
Y147200D01*
Y164214D02*
Y168500D01*
Y164214D02*
X258500Y163600D01*
Y159437D02*
Y163600D01*
X509300Y313000D02*
X509375Y312925D01*
D36*
X500469Y360500D02*
X514000D01*
X535500Y67500D02*
X549043D01*
X533000Y65000D02*
X535500Y67500D01*
X533000Y59000D02*
Y65000D01*
X509375Y312925D02*
X518563D01*
Y309480D02*
Y312925D01*
Y316075D02*
Y319520D01*
Y312925D02*
Y316075D01*
D38*
X87400Y45000D02*
Y60348D01*
X81400Y14912D02*
Y17776D01*
X478500Y329000D02*
X499961D01*
X435000D02*
X478500D01*
X395185Y368815D02*
X435000Y329000D01*
X378500Y368815D02*
X395185D01*
X363331D02*
X378500D01*
X334516Y340000D02*
X363331Y368815D01*
X319508Y324992D02*
X334516Y340000D01*
X185000D02*
X334516D01*
X319508Y304992D02*
X362008D01*
X378500Y288500D01*
X7500Y140000D02*
Y144500D01*
Y140000D02*
X9000Y138500D01*
X31000D01*
X40000D02*
X71701D01*
X31000D02*
X40000D01*
X31000D02*
X31701Y137799D01*
Y112823D02*
Y137799D01*
X81434Y152488D02*
X85701D01*
X78839Y149893D02*
X81434Y152488D01*
X78839Y149839D02*
Y149893D01*
X77000Y148000D02*
X78839Y149839D01*
X63500Y147000D02*
X64500Y148000D01*
X60988Y11512D02*
X72701D01*
X57602Y14898D02*
X60988Y11512D01*
X57602Y14898D02*
Y23000D01*
X74185Y92000D02*
X104201Y61984D01*
X26858Y92000D02*
X74185D01*
X20201Y85343D02*
X26858Y92000D01*
X16000Y107300D02*
X21523Y112823D01*
X16000Y89543D02*
Y107300D01*
Y89543D02*
X20201Y85343D01*
X21523Y112823D02*
X31701D01*
X87400Y45000D02*
X89264D01*
X72748D02*
X87400D01*
X85764Y61984D02*
X89201D01*
X85764D02*
X87400Y60348D01*
X28524Y106000D02*
X31701Y102823D01*
X22744Y106000D02*
X28524D01*
X72748Y75000D02*
X85764Y61984D01*
X104201Y92374D02*
Y110016D01*
Y92374D02*
X118701Y77874D01*
X44652Y33671D02*
Y45000D01*
X33980Y23000D02*
X44652Y33671D01*
X64500Y148000D02*
X71701D01*
X101575Y45000D02*
X118701Y62126D01*
X97138Y45000D02*
X101575D01*
X71701Y148000D02*
X77000D01*
X72701Y11512D02*
X78000D01*
X81400Y14912D01*
Y17776D02*
X82201D01*
X57900Y129000D02*
X71701D01*
X45701Y116801D02*
X57900Y129000D01*
X45701Y111626D02*
Y116801D01*
X82201Y17776D02*
X90500D01*
X97138Y24413D01*
Y45000D01*
X84276Y129276D02*
X96701D01*
X84000Y129000D02*
X84276Y129276D01*
X71701Y129000D02*
X84000D01*
X111442Y62126D02*
X118701D01*
X111300Y61984D02*
X111442Y62126D01*
X104201Y61984D02*
X111300D01*
X78612Y138512D02*
X85701D01*
X78600Y138500D02*
X78612Y138512D01*
X71701Y138500D02*
X78600D01*
X91213Y138724D02*
X96701D01*
X91000Y138512D02*
X91213Y138724D01*
X85701Y138512D02*
X91000D01*
X37043Y75000D02*
X44652D01*
X27700Y65657D02*
X37043Y75000D01*
X20201Y65657D02*
X27700D01*
X38849Y102374D02*
X45701D01*
X38400Y102823D02*
X38849Y102374D01*
X31701Y102823D02*
X38400D01*
X89201Y110016D02*
X104201D01*
X78236Y27224D02*
X82201D01*
X76500Y25488D02*
X78236Y27224D01*
X72701Y25488D02*
X76500D01*
X72748Y35247D02*
Y45000D01*
X72701Y35200D02*
X72748Y35247D01*
X72701Y25488D02*
Y35200D01*
D42*
X560165Y19685D02*
D03*
X177165D02*
D03*
X12500Y277000D02*
D03*
X315500Y379992D02*
D03*
Y277000D02*
D03*
X12500Y379992D02*
D03*
D43*
X378500Y288500D02*
D03*
D44*
Y368815D02*
D03*
D45*
X557500Y118000D02*
D03*
X321713Y221787D02*
D03*
X533000Y49000D02*
D03*
X306213Y221787D02*
D03*
X13000Y244500D02*
D03*
X31701Y102823D02*
D03*
X478500Y329000D02*
D03*
X389500Y114000D02*
D03*
X488000Y160000D02*
D03*
D46*
X557500Y108000D02*
D03*
Y98000D02*
D03*
X321713Y231787D02*
D03*
Y241787D02*
D03*
X533000Y59000D02*
D03*
X656500Y10500D02*
D03*
X296213Y251787D02*
D03*
X306213D02*
D03*
X296213Y241787D02*
D03*
X306213D02*
D03*
X296213Y231787D02*
D03*
X306213D02*
D03*
X296213Y221787D02*
D03*
X13000Y194500D02*
D03*
Y204500D02*
D03*
Y214500D02*
D03*
Y224500D02*
D03*
Y234500D02*
D03*
X31701Y112823D02*
D03*
X478500Y359000D02*
D03*
Y349000D02*
D03*
Y339000D02*
D03*
X389500Y104000D02*
D03*
Y94000D02*
D03*
X488000Y190000D02*
D03*
Y180000D02*
D03*
Y170000D02*
D03*
D47*
X666500Y10500D02*
D03*
D48*
X309508Y294992D02*
D03*
D49*
X319508D02*
D03*
X309508Y304992D02*
D03*
X319508D02*
D03*
Y324992D02*
D03*
X309508D02*
D03*
X319508Y314992D02*
D03*
X309508D02*
D03*
D50*
X89201Y110016D02*
D03*
Y61984D02*
D03*
X104201D02*
D03*
Y110016D02*
D03*
D51*
X45791Y5283D02*
D03*
X57602Y23000D02*
D03*
X33980D02*
D03*
D52*
X20201Y65657D02*
D03*
Y85343D02*
D03*
D53*
X89264Y45000D02*
D03*
D54*
X97138D02*
D03*
D55*
X580193Y115933D02*
D03*
D56*
Y108059D02*
D03*
Y100185D02*
D03*
Y92311D02*
D03*
Y84437D02*
D03*
Y76563D02*
D03*
Y68689D02*
D03*
Y60815D02*
D03*
Y52941D02*
D03*
Y45067D02*
D03*
X666807Y115933D02*
D03*
Y108059D02*
D03*
Y100185D02*
D03*
Y92311D02*
D03*
Y84437D02*
D03*
Y76563D02*
D03*
Y68689D02*
D03*
Y60815D02*
D03*
Y52941D02*
D03*
Y45067D02*
D03*
D57*
X289787Y22114D02*
D03*
X272819D02*
D03*
D58*
X500213Y250008D02*
D03*
Y265756D02*
D03*
Y281504D02*
D03*
Y297252D02*
D03*
Y313000D02*
D03*
Y328748D02*
D03*
Y344496D02*
D03*
Y360244D02*
D03*
D59*
Y375992D02*
D03*
D60*
X651787Y362213D02*
D03*
Y263787D02*
D03*
X518913Y379929D02*
D03*
Y246071D02*
D03*
D61*
X476000Y309500D02*
D03*
X518000Y113000D02*
D03*
Y94500D02*
D03*
X516500Y337000D02*
D03*
X63500Y147000D02*
D03*
X185000Y340000D02*
D03*
X123000Y232500D02*
D03*
X7500Y144500D02*
D03*
D62*
X401500Y229500D02*
D03*
X334000Y241500D02*
D03*
X328500Y214000D02*
D03*
X346500Y231500D02*
D03*
X153000Y120000D02*
D03*
X613000Y188500D02*
D03*
X513800Y190500D02*
D03*
X522500Y192000D02*
D03*
X506000D02*
D03*
X252000Y127000D02*
D03*
X250000Y131000D02*
D03*
X229500Y98126D02*
D03*
X179154Y156654D02*
D03*
X468500Y249626D02*
D03*
X478500Y372626D02*
D03*
X553500Y45500D02*
D03*
X243328Y97339D02*
D03*
X241000Y101300D02*
D03*
X166043Y143500D02*
D03*
X189043Y204500D02*
D03*
X514000Y360500D02*
D03*
X549043Y67500D02*
D03*
X217500Y170000D02*
D03*
X221900Y95000D02*
D03*
X229900Y157200D02*
D03*
X213300Y156700D02*
D03*
X202100Y170000D02*
D03*
X199862Y113457D02*
D03*
X206000Y127300D02*
D03*
X287600Y136500D02*
D03*
X332600Y314992D02*
D03*
X22744Y106000D02*
D03*
X179900Y142874D02*
D03*
X628362Y180000D02*
D03*
X499300D02*
D03*
X239100Y152717D02*
D03*
X194294Y138400D02*
D03*
X220500Y350000D02*
D03*
X237200Y60800D02*
D03*
X252550Y84600D02*
D03*
X283600Y98000D02*
D03*
X324300Y95400D02*
D03*
X199300Y88000D02*
D03*
X333600Y91800D02*
D03*
X250801Y154685D02*
D03*
X310137Y64300D02*
D03*
X327700Y118100D02*
D03*
X329700Y75300D02*
D03*
X654200Y49300D02*
D03*
X619800Y40100D02*
D03*
X214874Y100200D02*
D03*
X268900Y154988D02*
D03*
X250500Y148500D02*
D03*
X271400Y174200D02*
D03*
X648700Y196100D02*
D03*
X264050Y109300D02*
D03*
X239100Y123189D02*
D03*
X244400Y55500D02*
D03*
X258200Y41700D02*
D03*
X244000Y82000D02*
D03*
X219700Y112800D02*
D03*
X225700Y156500D02*
D03*
X644300Y197492D02*
D03*
X232700Y72000D02*
D03*
X501600Y170000D02*
D03*
X146067Y220800D02*
D03*
X247400Y210500D02*
D03*
X266500Y121800D02*
D03*
X137000Y208800D02*
D03*
X141400Y170800D02*
D03*
X179800Y129000D02*
D03*
X533300Y160000D02*
D03*
X400000Y94126D02*
D03*
X490800Y41878D02*
D03*
X426100Y99933D02*
D03*
X250637Y159437D02*
D03*
D63*
X518563Y309480D02*
D03*
Y319520D02*
D03*
X526437Y309480D02*
D03*
Y319520D02*
D03*
D64*
X518563Y312925D02*
D03*
Y316075D02*
D03*
X526437Y312925D02*
D03*
Y316075D02*
D03*
D65*
X289602Y155500D02*
D03*
D66*
X258500Y159437D02*
D03*
Y151563D02*
D03*
D67*
X118701Y62126D02*
D03*
Y77874D02*
D03*
D68*
X44652Y75000D02*
D03*
X72748D02*
D03*
X44652Y45000D02*
D03*
X72748D02*
D03*
M02*
