%FSLAX25Y25*%
%MOIN*%
G70*
G01*
G75*
G04 Layer_Color=2752767*
%ADD10C,0.01575*%
%ADD11C,0.01476*%
%ADD12R,0.07874X0.01969*%
%ADD13R,0.01969X0.07874*%
G04:AMPARAMS|DCode=14|XSize=19.69mil|YSize=78.74mil|CornerRadius=0mil|HoleSize=0mil|Usage=FLASHONLY|Rotation=180.000|XOffset=0mil|YOffset=0mil|HoleType=Round|Shape=Octagon|*
%AMOCTAGOND14*
4,1,8,0.00492,-0.03937,-0.00492,-0.03937,-0.00984,-0.03445,-0.00984,0.03445,-0.00492,0.03937,0.00492,0.03937,0.00984,0.03445,0.00984,-0.03445,0.00492,-0.03937,0.0*
%
%ADD14OCTAGOND14*%

G04:AMPARAMS|DCode=15|XSize=39.37mil|YSize=25.59mil|CornerRadius=0mil|HoleSize=0mil|Usage=FLASHONLY|Rotation=0.000|XOffset=0mil|YOffset=0mil|HoleType=Round|Shape=Octagon|*
%AMOCTAGOND15*
4,1,8,0.01969,-0.00640,0.01969,0.00640,0.01329,0.01280,-0.01329,0.01280,-0.01969,0.00640,-0.01969,-0.00640,-0.01329,-0.01280,0.01329,-0.01280,0.01969,-0.00640,0.0*
%
%ADD15OCTAGOND15*%

G04:AMPARAMS|DCode=16|XSize=39.37mil|YSize=19.69mil|CornerRadius=0mil|HoleSize=0mil|Usage=FLASHONLY|Rotation=0.000|XOffset=0mil|YOffset=0mil|HoleType=Round|Shape=Octagon|*
%AMOCTAGOND16*
4,1,8,0.01969,-0.00492,0.01969,0.00492,0.01476,0.00984,-0.01476,0.00984,-0.01969,0.00492,-0.01969,-0.00492,-0.01476,-0.00984,0.01476,-0.00984,0.01969,-0.00492,0.0*
%
%ADD16OCTAGOND16*%

G04:AMPARAMS|DCode=17|XSize=47.24mil|YSize=39.37mil|CornerRadius=0mil|HoleSize=0mil|Usage=FLASHONLY|Rotation=270.000|XOffset=0mil|YOffset=0mil|HoleType=Round|Shape=Octagon|*
%AMOCTAGOND17*
4,1,8,-0.00984,-0.02362,0.00984,-0.02362,0.01969,-0.01378,0.01969,0.01378,0.00984,0.02362,-0.00984,0.02362,-0.01969,0.01378,-0.01969,-0.01378,-0.00984,-0.02362,0.0*
%
%ADD17OCTAGOND17*%

%ADD18R,0.04921X0.06693*%
%ADD19R,0.05118X0.04134*%
%ADD20R,0.06299X0.06299*%
%ADD21C,0.06299*%
%ADD22C,0.05906*%
%ADD23C,0.04724*%
%ADD24R,0.05906X0.05906*%
%ADD25C,0.04921*%
%ADD26R,0.04921X0.04921*%
%ADD27C,0.05000*%
%ADD28R,0.03150X0.04724*%
%ADD29C,0.01000*%
%ADD30C,0.00500*%
%ADD31C,0.00667*%
D30*
X133335Y75594D02*
Y79594D01*
X137335D01*
Y75594D01*
X133335D01*
X123335D02*
Y79594D01*
X127335D01*
Y75594D01*
X123335D01*
X113335D02*
Y79594D01*
X117335D01*
Y75594D01*
X113335D01*
X103335D02*
Y79594D01*
X107335D01*
Y75594D01*
X103335D01*
X16500Y17500D02*
X14500Y21500D01*
X18500D01*
X16500Y17500D01*
Y7500D02*
X14500Y11500D01*
X18500D01*
X16500Y7500D01*
X224000D02*
X222000Y11500D01*
X226000D01*
X224000Y7500D01*
Y17500D02*
X222000Y21500D01*
X226000D01*
X224000Y17500D01*
X223000Y178000D02*
X221000Y182000D01*
X225000D01*
X223000Y178000D01*
Y188000D02*
X221000Y192000D01*
X225000D01*
X223000Y188000D01*
X17000Y187000D02*
X15000Y191000D01*
X19000D01*
X17000Y187000D01*
Y197000D02*
X15000Y201000D01*
X19000D01*
X17000Y197000D01*
X190000Y245500D02*
X191000Y246500D01*
X192000D01*
X191000Y247500D01*
X192000Y248500D01*
X191000D01*
X190000Y249500D01*
X189000Y248500D01*
X188000D01*
X189000Y247500D01*
X188000Y246500D01*
X189000D01*
X190000Y245500D01*
X30000D02*
X31000Y246500D01*
X32000D01*
X31000Y247500D01*
X32000Y248500D01*
X31000D01*
X30000Y249500D01*
X29000Y248500D01*
X28000D01*
X29000Y247500D01*
X28000Y246500D01*
X29000D01*
X30000Y245500D01*
Y255500D02*
X31000Y256500D01*
X32000D01*
X31000Y257500D01*
X32000Y258500D01*
X31000D01*
X30000Y259500D01*
X29000Y258500D01*
X28000D01*
X29000Y257500D01*
X28000Y256500D01*
X29000D01*
X30000Y255500D01*
X40000Y245500D02*
X41000Y246500D01*
X42000D01*
X41000Y247500D01*
X42000Y248500D01*
X41000D01*
X40000Y249500D01*
X39000Y248500D01*
X38000D01*
X39000Y247500D01*
X38000Y246500D01*
X39000D01*
X40000Y245500D01*
Y255500D02*
X41000Y256500D01*
X42000D01*
X41000Y257500D01*
X42000Y258500D01*
X41000D01*
X40000Y259500D01*
X39000Y258500D01*
X38000D01*
X39000Y257500D01*
X38000Y256500D01*
X39000D01*
X40000Y255500D01*
X50000Y245500D02*
X51000Y246500D01*
X52000D01*
X51000Y247500D01*
X52000Y248500D01*
X51000D01*
X50000Y249500D01*
X49000Y248500D01*
X48000D01*
X49000Y247500D01*
X48000Y246500D01*
X49000D01*
X50000Y245500D01*
Y255500D02*
X51000Y256500D01*
X52000D01*
X51000Y257500D01*
X52000Y258500D01*
X51000D01*
X50000Y259500D01*
X49000Y258500D01*
X48000D01*
X49000Y257500D01*
X48000Y256500D01*
X49000D01*
X50000Y255500D01*
X60000Y245500D02*
X61000Y246500D01*
X62000D01*
X61000Y247500D01*
X62000Y248500D01*
X61000D01*
X60000Y249500D01*
X59000Y248500D01*
X58000D01*
X59000Y247500D01*
X58000Y246500D01*
X59000D01*
X60000Y245500D01*
Y255500D02*
X61000Y256500D01*
X62000D01*
X61000Y257500D01*
X62000Y258500D01*
X61000D01*
X60000Y259500D01*
X59000Y258500D01*
X58000D01*
X59000Y257500D01*
X58000Y256500D01*
X59000D01*
X60000Y255500D01*
X70000Y245500D02*
X71000Y246500D01*
X72000D01*
X71000Y247500D01*
X72000Y248500D01*
X71000D01*
X70000Y249500D01*
X69000Y248500D01*
X68000D01*
X69000Y247500D01*
X68000Y246500D01*
X69000D01*
X70000Y245500D01*
Y255500D02*
X71000Y256500D01*
X72000D01*
X71000Y257500D01*
X72000Y258500D01*
X71000D01*
X70000Y259500D01*
X69000Y258500D01*
X68000D01*
X69000Y257500D01*
X68000Y256500D01*
X69000D01*
X70000Y255500D01*
X80000Y245500D02*
X81000Y246500D01*
X82000D01*
X81000Y247500D01*
X82000Y248500D01*
X81000D01*
X80000Y249500D01*
X79000Y248500D01*
X78000D01*
X79000Y247500D01*
X78000Y246500D01*
X79000D01*
X80000Y245500D01*
Y255500D02*
X81000Y256500D01*
X82000D01*
X81000Y257500D01*
X82000Y258500D01*
X81000D01*
X80000Y259500D01*
X79000Y258500D01*
X78000D01*
X79000Y257500D01*
X78000Y256500D01*
X79000D01*
X80000Y255500D01*
X90000Y245500D02*
X91000Y246500D01*
X92000D01*
X91000Y247500D01*
X92000Y248500D01*
X91000D01*
X90000Y249500D01*
X89000Y248500D01*
X88000D01*
X89000Y247500D01*
X88000Y246500D01*
X89000D01*
X90000Y245500D01*
Y255500D02*
X91000Y256500D01*
X92000D01*
X91000Y257500D01*
X92000Y258500D01*
X91000D01*
X90000Y259500D01*
X89000Y258500D01*
X88000D01*
X89000Y257500D01*
X88000Y256500D01*
X89000D01*
X90000Y255500D01*
X100000Y245500D02*
X101000Y246500D01*
X102000D01*
X101000Y247500D01*
X102000Y248500D01*
X101000D01*
X100000Y249500D01*
X99000Y248500D01*
X98000D01*
X99000Y247500D01*
X98000Y246500D01*
X99000D01*
X100000Y245500D01*
Y255500D02*
X101000Y256500D01*
X102000D01*
X101000Y257500D01*
X102000Y258500D01*
X101000D01*
X100000Y259500D01*
X99000Y258500D01*
X98000D01*
X99000Y257500D01*
X98000Y256500D01*
X99000D01*
X100000Y255500D01*
X110000Y245500D02*
X111000Y246500D01*
X112000D01*
X111000Y247500D01*
X112000Y248500D01*
X111000D01*
X110000Y249500D01*
X109000Y248500D01*
X108000D01*
X109000Y247500D01*
X108000Y246500D01*
X109000D01*
X110000Y245500D01*
Y255500D02*
X111000Y256500D01*
X112000D01*
X111000Y257500D01*
X112000Y258500D01*
X111000D01*
X110000Y259500D01*
X109000Y258500D01*
X108000D01*
X109000Y257500D01*
X108000Y256500D01*
X109000D01*
X110000Y255500D01*
X120000Y245500D02*
X121000Y246500D01*
X122000D01*
X121000Y247500D01*
X122000Y248500D01*
X121000D01*
X120000Y249500D01*
X119000Y248500D01*
X118000D01*
X119000Y247500D01*
X118000Y246500D01*
X119000D01*
X120000Y245500D01*
Y255500D02*
X121000Y256500D01*
X122000D01*
X121000Y257500D01*
X122000Y258500D01*
X121000D01*
X120000Y259500D01*
X119000Y258500D01*
X118000D01*
X119000Y257500D01*
X118000Y256500D01*
X119000D01*
X120000Y255500D01*
X130000Y245500D02*
X131000Y246500D01*
X132000D01*
X131000Y247500D01*
X132000Y248500D01*
X131000D01*
X130000Y249500D01*
X129000Y248500D01*
X128000D01*
X129000Y247500D01*
X128000Y246500D01*
X129000D01*
X130000Y245500D01*
Y255500D02*
X131000Y256500D01*
X132000D01*
X131000Y257500D01*
X132000Y258500D01*
X131000D01*
X130000Y259500D01*
X129000Y258500D01*
X128000D01*
X129000Y257500D01*
X128000Y256500D01*
X129000D01*
X130000Y255500D01*
X140000Y245500D02*
X141000Y246500D01*
X142000D01*
X141000Y247500D01*
X142000Y248500D01*
X141000D01*
X140000Y249500D01*
X139000Y248500D01*
X138000D01*
X139000Y247500D01*
X138000Y246500D01*
X139000D01*
X140000Y245500D01*
Y255500D02*
X141000Y256500D01*
X142000D01*
X141000Y257500D01*
X142000Y258500D01*
X141000D01*
X140000Y259500D01*
X139000Y258500D01*
X138000D01*
X139000Y257500D01*
X138000Y256500D01*
X139000D01*
X140000Y255500D01*
X150000Y245500D02*
X151000Y246500D01*
X152000D01*
X151000Y247500D01*
X152000Y248500D01*
X151000D01*
X150000Y249500D01*
X149000Y248500D01*
X148000D01*
X149000Y247500D01*
X148000Y246500D01*
X149000D01*
X150000Y245500D01*
Y255500D02*
X151000Y256500D01*
X152000D01*
X151000Y257500D01*
X152000Y258500D01*
X151000D01*
X150000Y259500D01*
X149000Y258500D01*
X148000D01*
X149000Y257500D01*
X148000Y256500D01*
X149000D01*
X150000Y255500D01*
X160000Y245500D02*
X161000Y246500D01*
X162000D01*
X161000Y247500D01*
X162000Y248500D01*
X161000D01*
X160000Y249500D01*
X159000Y248500D01*
X158000D01*
X159000Y247500D01*
X158000Y246500D01*
X159000D01*
X160000Y245500D01*
Y255500D02*
X161000Y256500D01*
X162000D01*
X161000Y257500D01*
X162000Y258500D01*
X161000D01*
X160000Y259500D01*
X159000Y258500D01*
X158000D01*
X159000Y257500D01*
X158000Y256500D01*
X159000D01*
X160000Y255500D01*
X170000Y245500D02*
X171000Y246500D01*
X172000D01*
X171000Y247500D01*
X172000Y248500D01*
X171000D01*
X170000Y249500D01*
X169000Y248500D01*
X168000D01*
X169000Y247500D01*
X168000Y246500D01*
X169000D01*
X170000Y245500D01*
Y255500D02*
X171000Y256500D01*
X172000D01*
X171000Y257500D01*
X172000Y258500D01*
X171000D01*
X170000Y259500D01*
X169000Y258500D01*
X168000D01*
X169000Y257500D01*
X168000Y256500D01*
X169000D01*
X170000Y255500D01*
X180000Y245500D02*
X181000Y246500D01*
X182000D01*
X181000Y247500D01*
X182000Y248500D01*
X181000D01*
X180000Y249500D01*
X179000Y248500D01*
X178000D01*
X179000Y247500D01*
X178000Y246500D01*
X179000D01*
X180000Y245500D01*
Y255500D02*
X181000Y256500D01*
X182000D01*
X181000Y257500D01*
X182000Y258500D01*
X181000D01*
X180000Y259500D01*
X179000Y258500D01*
X178000D01*
X179000Y257500D01*
X178000Y256500D01*
X179000D01*
X180000Y255500D01*
X190000D02*
X191000Y256500D01*
X192000D01*
X191000Y257500D01*
X192000Y258500D01*
X191000D01*
X190000Y259500D01*
X189000Y258500D01*
X188000D01*
X189000Y257500D01*
X188000Y256500D01*
X189000D01*
X190000Y255500D01*
X200000Y245500D02*
X201000Y246500D01*
X202000D01*
X201000Y247500D01*
X202000Y248500D01*
X201000D01*
X200000Y249500D01*
X199000Y248500D01*
X198000D01*
X199000Y247500D01*
X198000Y246500D01*
X199000D01*
X200000Y245500D01*
Y255500D02*
X201000Y256500D01*
X202000D01*
X201000Y257500D01*
X202000Y258500D01*
X201000D01*
X200000Y259500D01*
X199000Y258500D01*
X198000D01*
X199000Y257500D01*
X198000Y256500D01*
X199000D01*
X200000Y255500D01*
X210000Y245500D02*
X211000Y246500D01*
X212000D01*
X211000Y247500D01*
X212000Y248500D01*
X211000D01*
X210000Y249500D01*
X209000Y248500D01*
X208000D01*
X209000Y247500D01*
X208000Y246500D01*
X209000D01*
X210000Y245500D01*
Y255500D02*
X211000Y256500D01*
X212000D01*
X211000Y257500D01*
X212000Y258500D01*
X211000D01*
X210000Y259500D01*
X209000Y258500D01*
X208000D01*
X209000Y257500D01*
X208000Y256500D01*
X209000D01*
X210000Y255500D01*
X220000Y245500D02*
X221000Y246500D01*
X222000D01*
X221000Y247500D01*
X222000Y248500D01*
X221000D01*
X220000Y249500D01*
X219000Y248500D01*
X218000D01*
X219000Y247500D01*
X218000Y246500D01*
X219000D01*
X220000Y245500D01*
Y255500D02*
X221000Y256500D01*
X222000D01*
X221000Y257500D01*
X222000Y258500D01*
X221000D01*
X220000Y259500D01*
X219000Y258500D01*
X218000D01*
X219000Y257500D01*
X218000Y256500D01*
X219000D01*
X220000Y255500D01*
X168437Y94500D02*
X169437Y96500D01*
X168437Y98500D01*
X170437Y97500D01*
X172437Y98500D01*
X171437Y96500D01*
X172437Y94500D01*
X170437Y95500D01*
X168437Y94500D01*
X160563D02*
X161563Y96500D01*
X160563Y98500D01*
X162563Y97500D01*
X164563Y98500D01*
X163563Y96500D01*
X164563Y94500D01*
X162563Y95500D01*
X160563Y94500D01*
X67700Y134300D02*
Y138300D01*
X71700D01*
Y134300D01*
X67700D01*
X199300Y124900D02*
Y128900D01*
X203300D01*
Y124900D01*
X199300D01*
X30256Y176900D02*
Y180900D01*
X34256D01*
Y176900D01*
X30256D01*
X214500Y111600D02*
Y115600D01*
X218500D01*
Y111600D01*
X214500D01*
X148100Y45200D02*
Y49200D01*
X152100D01*
Y45200D01*
X148100D01*
X146800Y226300D02*
Y230300D01*
X150800D01*
Y226300D01*
X146800D01*
X231800Y124600D02*
Y128600D01*
X235800D01*
Y124600D01*
X231800D01*
X107411Y204763D02*
Y208763D01*
X111411D01*
Y204763D01*
X107411D01*
X160300Y211700D02*
Y215700D01*
X164300D01*
Y211700D01*
X160300D01*
X152219Y158400D02*
Y162400D01*
X156219D01*
Y158400D01*
X152219D01*
X123000Y146800D02*
Y150800D01*
X127000D01*
Y146800D01*
X123000D01*
X126000Y141300D02*
Y145300D01*
X130000D01*
Y141300D01*
X126000D01*
X65200Y192800D02*
Y196800D01*
X69200D01*
Y192800D01*
X65200D01*
X103300Y136400D02*
Y140400D01*
X107300D01*
Y136400D01*
X103300D01*
X208200D02*
Y140400D01*
X212200D01*
Y136400D01*
X208200D01*
X136500Y234800D02*
Y238800D01*
X140500D01*
Y234800D01*
X136500D01*
X27775Y224800D02*
Y228800D01*
X31775D01*
Y224800D01*
X27775D01*
X67000Y157400D02*
Y161400D01*
X71000D01*
Y157400D01*
X67000D01*
X88106D02*
Y161400D01*
X92106D01*
Y157400D01*
X88106D01*
X46700Y223100D02*
Y227100D01*
X50700D01*
Y223100D01*
X46700D01*
X125500Y234800D02*
Y238800D01*
X129500D01*
Y234800D01*
X125500D01*
X108659Y230500D02*
Y234500D01*
X112659D01*
Y230500D01*
X108659D01*
X130900Y223100D02*
Y227100D01*
X134900D01*
Y223100D01*
X130900D01*
X73600Y265800D02*
Y269800D01*
X77600D01*
Y265800D01*
X73600D01*
X124700Y225800D02*
Y229800D01*
X128700D01*
Y225800D01*
X124700D01*
X53900Y203600D02*
Y207600D01*
X57900D01*
Y203600D01*
X53900D01*
X79500Y181500D02*
Y185500D01*
X83500D01*
Y181500D01*
X79500D01*
X68600Y176100D02*
Y180100D01*
X72600D01*
Y176100D01*
X68600D01*
X138600Y154412D02*
Y158412D01*
X142600D01*
Y154412D01*
X138600D01*
X75600Y226400D02*
Y230400D01*
X79600D01*
Y226400D01*
X75600D01*
X35000Y210100D02*
Y214100D01*
X39000D01*
Y210100D01*
X35000D01*
X155800Y165600D02*
Y169600D01*
X159800D01*
Y165600D01*
X155800D01*
X178000Y202800D02*
Y206800D01*
X182000D01*
Y202800D01*
X178000D01*
X181100Y192500D02*
Y196500D01*
X185100D01*
Y192500D01*
X181100D01*
X94000Y188100D02*
Y192100D01*
X98000D01*
Y188100D01*
X94000D01*
X133600Y217500D02*
Y221500D01*
X137600D01*
Y217500D01*
X133600D01*
X35000Y216400D02*
Y220400D01*
X39000D01*
Y216400D01*
X35000D01*
X65200Y166700D02*
Y170700D01*
X69200D01*
Y166700D01*
X65200D01*
X88800D02*
Y170700D01*
X92800D01*
Y166700D01*
X88800D01*
X70000Y230900D02*
Y234900D01*
X74000D01*
Y230900D01*
X70000D01*
X87700Y234800D02*
Y238800D01*
X91700D01*
Y234800D01*
X87700D01*
D31*
X203083Y76413D02*
G03*
X203083Y76413I-2000J0D01*
G01*
X41587Y9484D02*
G03*
X41587Y9484I-2000J0D01*
G01*
M02*
