%FSLAX25Y25*%
%MOIN*%
G70*
G01*
G75*
G04 Layer_Physical_Order=1*
G04 Layer_Color=255*
%ADD10C,0.01575*%
%ADD11C,0.01476*%
%ADD12R,0.07874X0.01969*%
%ADD13R,0.01969X0.07874*%
G04:AMPARAMS|DCode=14|XSize=19.69mil|YSize=78.74mil|CornerRadius=0mil|HoleSize=0mil|Usage=FLASHONLY|Rotation=180.000|XOffset=0mil|YOffset=0mil|HoleType=Round|Shape=Octagon|*
%AMOCTAGOND14*
4,1,8,0.00492,-0.03937,-0.00492,-0.03937,-0.00984,-0.03445,-0.00984,0.03445,-0.00492,0.03937,0.00492,0.03937,0.00984,0.03445,0.00984,-0.03445,0.00492,-0.03937,0.0*
%
%ADD14OCTAGOND14*%

G04:AMPARAMS|DCode=15|XSize=39.37mil|YSize=25.59mil|CornerRadius=0mil|HoleSize=0mil|Usage=FLASHONLY|Rotation=0.000|XOffset=0mil|YOffset=0mil|HoleType=Round|Shape=Octagon|*
%AMOCTAGOND15*
4,1,8,0.01969,-0.00640,0.01969,0.00640,0.01329,0.01280,-0.01329,0.01280,-0.01969,0.00640,-0.01969,-0.00640,-0.01329,-0.01280,0.01329,-0.01280,0.01969,-0.00640,0.0*
%
%ADD15OCTAGOND15*%

G04:AMPARAMS|DCode=16|XSize=39.37mil|YSize=19.69mil|CornerRadius=0mil|HoleSize=0mil|Usage=FLASHONLY|Rotation=0.000|XOffset=0mil|YOffset=0mil|HoleType=Round|Shape=Octagon|*
%AMOCTAGOND16*
4,1,8,0.01969,-0.00492,0.01969,0.00492,0.01476,0.00984,-0.01476,0.00984,-0.01969,0.00492,-0.01969,-0.00492,-0.01476,-0.00984,0.01476,-0.00984,0.01969,-0.00492,0.0*
%
%ADD16OCTAGOND16*%

G04:AMPARAMS|DCode=17|XSize=47.24mil|YSize=39.37mil|CornerRadius=0mil|HoleSize=0mil|Usage=FLASHONLY|Rotation=270.000|XOffset=0mil|YOffset=0mil|HoleType=Round|Shape=Octagon|*
%AMOCTAGOND17*
4,1,8,-0.00984,-0.02362,0.00984,-0.02362,0.01969,-0.01378,0.01969,0.01378,0.00984,0.02362,-0.00984,0.02362,-0.01969,0.01378,-0.01969,-0.01378,-0.00984,-0.02362,0.0*
%
%ADD17OCTAGOND17*%

%ADD18R,0.04921X0.06693*%
%ADD19R,0.05118X0.04134*%
%ADD20R,0.06299X0.06299*%
%ADD21C,0.06299*%
%ADD22C,0.05906*%
%ADD23C,0.04724*%
%ADD24R,0.05906X0.05906*%
%ADD25C,0.04921*%
%ADD26R,0.04921X0.04921*%
%ADD27C,0.05000*%
D10*
X89603Y236703D02*
G03*
X85263Y238500I-4339J-4339D01*
G01*
X88489Y235589D02*
G03*
X81461Y238500I-7028J-7028D01*
G01*
X71903Y232803D02*
G03*
X66839Y234900I-5064J-5064D01*
G01*
X70789Y231689D02*
G03*
X63037Y234900I-7752J-7752D01*
G01*
X70366Y233412D02*
G03*
X70000Y234900I-1412J442D01*
G01*
X70000Y234900D02*
G03*
X71488Y234534I1046J1046D01*
G01*
X65487Y168700D02*
G03*
X64276Y171624I-4135J0D01*
G01*
D02*
G03*
X67200Y170413I2924J2924D01*
G01*
X36915Y216689D02*
G03*
X32532Y215000I-288J-5785D01*
G01*
X137313Y219490D02*
G03*
X138500Y216600I4054J-23D01*
G01*
X138500Y216600D02*
G03*
X135610Y217787I-2867J-2867D01*
G01*
X184311Y193289D02*
G03*
X183100Y190365I2924J-2924D01*
G01*
D02*
G03*
X181889Y193289I-4135J0D01*
G01*
X180000Y203087D02*
G03*
X177076Y201876I0J-4135D01*
G01*
D02*
G03*
X178287Y204800I-2924J2924D01*
G01*
X156087Y167600D02*
G03*
X154876Y170524I-4135J0D01*
G01*
D02*
G03*
X157800Y169313I2924J2924D01*
G01*
X38713Y212100D02*
G03*
X39924Y209176I4135J0D01*
G01*
D02*
G03*
X37000Y210387I-2924J-2924D01*
G01*
X78811Y229611D02*
G03*
X81735Y228400I2924J2924D01*
G01*
D02*
G03*
X78811Y227189I0J-4135D01*
G01*
X142313Y156412D02*
G03*
X143524Y153488I4135J0D01*
G01*
D02*
G03*
X140600Y154699I-2924J-2924D01*
G01*
X72313Y178100D02*
G03*
X73524Y175176I4135J0D01*
G01*
D02*
G03*
X70600Y176387I-2924J-2924D01*
G01*
X79787Y183500D02*
G03*
X78576Y186424I-4135J0D01*
G01*
D02*
G03*
X81500Y185213I2924J2924D01*
G01*
X57111Y206811D02*
G03*
X60035Y205600I2924J2924D01*
G01*
D02*
G03*
X57111Y204389I0J-4135D01*
G01*
X127327Y229394D02*
G03*
X128548Y229648I416J1059D01*
G01*
D02*
G03*
X128294Y228427I805J-805D01*
G01*
X76811Y269011D02*
G03*
X79735Y267800I2924J2924D01*
G01*
D02*
G03*
X76811Y266589I0J-4135D01*
G01*
X132900Y223387D02*
G03*
X129976Y222176I0J-4135D01*
G01*
D02*
G03*
X131187Y225100I-2924J2924D01*
G01*
X112372Y232500D02*
G03*
X113583Y229576I4135J0D01*
G01*
D02*
G03*
X110659Y230787I-2924J-2924D01*
G01*
X127403Y236703D02*
G03*
X124029Y238100I-3374J-3374D01*
G01*
X126289Y235589D02*
G03*
X120227Y238100I-6062J-6062D01*
G01*
X49911Y226311D02*
G03*
X52835Y225100I2924J2924D01*
G01*
D02*
G03*
X49911Y223889I0J-4135D01*
G01*
X67287Y159400D02*
G03*
X66076Y162324I-4135J0D01*
G01*
D02*
G03*
X69000Y161113I2924J2924D01*
G01*
X30986Y225589D02*
G03*
X29775Y222665I2924J-2924D01*
G01*
D02*
G03*
X28564Y225589I-4135J0D01*
G01*
X139711Y238011D02*
G03*
X142635Y236800I2924J2924D01*
G01*
D02*
G03*
X139711Y235589I0J-4135D01*
G01*
X208989Y139611D02*
G03*
X210200Y142535I-2924J2924D01*
G01*
D02*
G03*
X211411Y139611I4135J0D01*
G01*
X104089D02*
G03*
X105300Y142535I-2924J2924D01*
G01*
D02*
G03*
X106511Y139611I4135J0D01*
G01*
X67297Y194703D02*
G03*
X66131Y191887I2815J-2815D01*
G01*
X68411Y193589D02*
G03*
X66131Y188086I5503J-5503D01*
G01*
X129211Y142089D02*
G03*
X128000Y139165I2924J-2924D01*
G01*
D02*
G03*
X126789Y142089I-4135J0D01*
G01*
X152506Y160400D02*
G03*
X151295Y163324I-4135J0D01*
G01*
D02*
G03*
X154219Y162113I2924J2924D01*
G01*
X163511Y212489D02*
G03*
X162300Y209565I2924J-2924D01*
G01*
D02*
G03*
X161089Y212489I-4135J0D01*
G01*
X107699Y206763D02*
G03*
X106488Y209687I-4135J0D01*
G01*
D02*
G03*
X109411Y208476I2924J2924D01*
G01*
X232277Y125818D02*
G03*
X229864Y127865I-3678J-1889D01*
G01*
X229864Y127865D02*
G03*
X233018Y128123I1265J3936D01*
G01*
X232126Y126239D02*
G03*
X231042Y127805I-2433J-525D01*
G01*
X231009Y127826D02*
G03*
X232714Y127924I785J1218D01*
G01*
X230746Y127188D02*
G03*
X232650Y127869I130J2639D01*
G01*
X150011Y229511D02*
G03*
X152935Y228300I2924J2924D01*
G01*
D02*
G03*
X150011Y227089I0J-4135D01*
G01*
X150100Y45487D02*
G03*
X147176Y44276I0J-4135D01*
G01*
D02*
G03*
X148387Y47200I-2924J2924D01*
G01*
X215289Y114811D02*
G03*
X216500Y117735I-2924J2924D01*
G01*
D02*
G03*
X217711Y114811I4135J0D01*
G01*
X33467Y177689D02*
G03*
X32256Y174765I2924J-2924D01*
G01*
D02*
G03*
X31045Y177689I-4135J0D01*
G01*
X67987Y136300D02*
G03*
X66776Y139224I-4135J0D01*
G01*
D02*
G03*
X69700Y138013I2924J2924D01*
G01*
X164236Y96500D02*
G03*
X165419Y93644I4039J0D01*
G01*
D02*
G03*
X162563Y94827I-2856J-2856D01*
G01*
X168764Y96500D02*
G03*
X167581Y99356I-4039J0D01*
G01*
D02*
G03*
X170437Y98173I2856J2856D01*
G01*
X18114Y187886D02*
G03*
X17000Y185198I2688J-2688D01*
G01*
D02*
G03*
X15886Y187886I-3802J0D01*
G01*
X222425Y9500D02*
G03*
X221312Y12188I-3802J0D01*
G01*
D02*
G03*
X224000Y11075I2688J2688D01*
G01*
X16500Y21075D02*
G03*
X19188Y22188I0J3802D01*
G01*
D02*
G03*
X18075Y19500I2688J-2688D01*
G01*
X104192Y79662D02*
G03*
X105335Y81600I-1072J1938D01*
G01*
D02*
G03*
X106478Y79662I2215J0D01*
G01*
X105335Y79957D02*
G03*
X109367Y81627I0J5703D01*
G01*
D02*
G03*
X107697Y77594I4033J-4033D01*
G01*
X115335Y79957D02*
G03*
X119367Y81627I0J5703D01*
G01*
D02*
G03*
X117697Y77594I4033J-4033D01*
G01*
X116405Y123469D02*
G03*
X115500Y121285I2184J-2184D01*
G01*
D02*
G03*
X114595Y123469I-3089J0D01*
G01*
X114103Y132721D02*
G03*
X111919Y133626I-2184J-2184D01*
G01*
D02*
G03*
X114103Y134531I0J3089D01*
G01*
X114595D02*
G03*
X115500Y136715I-2184J2184D01*
G01*
D02*
G03*
X116405Y134531I3089J0D01*
G01*
X139603Y122969D02*
G03*
X137419Y123874I-2184J-2184D01*
G01*
D02*
G03*
X139603Y124779I0J3089D01*
G01*
X141905Y122969D02*
G03*
X141000Y120785I2184J-2184D01*
G01*
D02*
G03*
X140095Y122969I-3089J0D01*
G01*
Y134031D02*
G03*
X141000Y136215I-2184J2184D01*
G01*
D02*
G03*
X141905Y134031I3089J0D01*
G01*
X127803Y133126D02*
G03*
X125985Y137515I-6207J0D01*
G01*
X126228Y133126D02*
G03*
X123297Y140203I-10008J0D01*
G01*
X127297Y134195D02*
G03*
X128000Y135500I-859J1305D01*
G01*
D02*
G03*
X128703Y134195I1562J0D01*
G01*
X127095Y134031D02*
G03*
X128000Y136215I-2184J2184D01*
G01*
D02*
G03*
X128905Y134031I3089J0D01*
G01*
X127297Y134195D02*
G03*
X128000Y135500I-859J1305D01*
G01*
D02*
G03*
X128703Y134195I1562J0D01*
G01*
X129397Y124779D02*
G03*
X131581Y123874I2184J2184D01*
G01*
D02*
G03*
X129397Y122969I0J-3089D01*
G01*
X158679Y149548D02*
G03*
X162300Y150812I502J4383D01*
G01*
X160718Y149230D02*
G03*
X160161Y147886I1344J-1344D01*
G01*
X159671Y144931D02*
G03*
X158488Y142075I2856J-2856D01*
G01*
D02*
G03*
X157305Y144931I-4039J0D01*
G01*
Y149069D02*
G03*
X158488Y151925I-2856J2856D01*
G01*
D02*
G03*
X159671Y149069I4039J0D01*
G01*
X143329D02*
G03*
X144512Y151925I-2856J2856D01*
G01*
D02*
G03*
X145695Y149069I4039J0D01*
G01*
X99159Y197419D02*
G03*
X97988Y194632I2732J-2788D01*
G01*
D02*
G03*
X96817Y197419I-3903J0D01*
G01*
X96805Y201569D02*
G03*
X97988Y204425I-2856J2856D01*
G01*
D02*
G03*
X99171Y201569I4039J0D01*
G01*
X85195Y197431D02*
G03*
X84012Y194575I2856J-2856D01*
G01*
D02*
G03*
X82829Y197431I-4039J0D01*
G01*
Y201569D02*
G03*
X84012Y204425I-2856J2856D01*
G01*
D02*
G03*
X85195Y201569I4039J0D01*
G01*
X99171Y211931D02*
G03*
X97988Y209075I2856J-2856D01*
G01*
D02*
G03*
X96805Y211931I-4039J0D01*
G01*
X99171Y215183D02*
G03*
X102028Y214000I2856J2856D01*
G01*
D02*
G03*
X99171Y212817I0J-4039D01*
G01*
X85195Y211931D02*
G03*
X84012Y209075I2856J-2856D01*
G01*
D02*
G03*
X82829Y211931I-4039J0D01*
G01*
X228379Y41669D02*
G03*
X227543Y39652I2016J-2016D01*
G01*
D02*
G03*
X226708Y41669I-2851J0D01*
G01*
X220720Y55001D02*
G03*
X217672Y54922I-1483J-1644D01*
G01*
X219666Y53832D02*
G03*
X216500Y53750I-1540J-1707D01*
G01*
X219568Y54324D02*
G03*
X217852Y55102I-1715J-1502D01*
G01*
D02*
G03*
X219568Y55880I0J2280D01*
G01*
X219621Y56331D02*
G03*
X220457Y58347I-2016J2016D01*
G01*
D02*
G03*
X221292Y56331I2851J0D01*
G01*
X226295Y50745D02*
G03*
X227937Y54709I-3963J3963D01*
G01*
X223607Y48057D02*
G03*
X226362Y54709I-6652J6652D01*
G01*
X226708Y56331D02*
G03*
X227543Y58347I-2016J2016D01*
G01*
D02*
G03*
X228379Y56331I2851J0D01*
G01*
X228349Y53845D02*
G03*
X227543Y51994I1725J-1851D01*
G01*
D02*
G03*
X226738Y53845I-2530J0D01*
G01*
X219992Y44377D02*
G03*
X221785Y46212I-1318J3081D01*
G01*
X221522Y45555D02*
G03*
X221543Y43756I2183J-875D01*
G01*
X19437Y44291D02*
G03*
X18224Y47219I-4140J0D01*
G01*
X17862Y44291D02*
G03*
X15536Y49907I-7942J0D01*
G01*
X18831Y43960D02*
G03*
X21615Y44262I1203J1883D01*
G01*
X19680Y45287D02*
G03*
X23000Y45647I1436J2246D01*
G01*
X20026Y44553D02*
G03*
X21250Y43898I1224J816D01*
G01*
D02*
G03*
X20026Y43243I0J-1471D01*
G01*
X18426Y45298D02*
G03*
X19043Y46400I-675J1101D01*
G01*
D02*
G03*
X19660Y45298I1292J0D01*
G01*
X11563Y55709D02*
G03*
X12856Y52588I4414J0D01*
G01*
X13138Y55709D02*
G03*
X15544Y49899I8216J0D01*
G01*
X12617Y54730D02*
G03*
X11957Y53487I839J-1243D01*
G01*
D02*
G03*
X11296Y54730I-1499J0D01*
G01*
X18208Y57331D02*
G03*
X19043Y59347I-2016J2016D01*
G01*
D02*
G03*
X19879Y57331I2851J0D01*
G01*
X11121Y43062D02*
G03*
X9105Y43898I-2016J-2016D01*
G01*
D02*
G03*
X11121Y44733I0J2851D01*
G01*
X12792Y42669D02*
G03*
X11957Y40652I2016J-2016D01*
G01*
D02*
G03*
X11121Y42669I-2851J0D01*
G01*
X15937Y217791D02*
G03*
X14724Y220719I-4140J0D01*
G01*
X14362Y217791D02*
G03*
X12036Y223407I-7942J0D01*
G01*
X14926Y218798D02*
G03*
X15543Y219900I-675J1101D01*
G01*
D02*
G03*
X16160Y218798I1292J0D01*
G01*
X8063Y229209D02*
G03*
X9356Y226088I4414J0D01*
G01*
X9638Y229209D02*
G03*
X12044Y223399I8216J0D01*
G01*
X7621Y230831D02*
G03*
X8457Y232847I-2016J2016D01*
G01*
D02*
G03*
X9292Y230831I2851J0D01*
G01*
X9117Y228230D02*
G03*
X8457Y226987I839J-1243D01*
G01*
D02*
G03*
X7796Y228230I-1499J0D01*
G01*
X16379Y230438D02*
G03*
X18395Y229602I2016J2016D01*
G01*
D02*
G03*
X16379Y228767I0J-2851D01*
G01*
X9292Y218233D02*
G03*
X11308Y217398I2016J2016D01*
G01*
D02*
G03*
X9292Y216562I0J-2851D01*
G01*
X226063Y224209D02*
G03*
X227356Y221087I4414J0D01*
G01*
X227638Y224209D02*
G03*
X230044Y218399I8216J0D01*
G01*
X225622Y225831D02*
G03*
X226457Y227848I-2016J2016D01*
G01*
D02*
G03*
X227292Y225831I2851J0D01*
G01*
X227117Y223230D02*
G03*
X226457Y221987I839J-1243D01*
G01*
D02*
G03*
X225796Y223230I-1500J0D01*
G01*
X233937Y212791D02*
G03*
X232724Y215719I-4140J0D01*
G01*
X232362Y212791D02*
G03*
X230036Y218407I-7942J0D01*
G01*
X232926Y213798D02*
G03*
X233543Y214900I-675J1101D01*
G01*
D02*
G03*
X234160Y213798I1292J0D01*
G01*
X225622Y211562D02*
G03*
X223605Y212398I-2016J-2016D01*
G01*
D02*
G03*
X225622Y213233I0J2851D01*
G01*
X227029Y210971D02*
G03*
X226457Y210000I537J-970D01*
G01*
D02*
G03*
X225885Y210971I-1109J0D01*
G01*
X226063Y212004D02*
G03*
X227202Y209255I3887J0D01*
G01*
X227638Y212004D02*
G03*
X229890Y206567I7689J0D01*
G01*
X234409Y225406D02*
G03*
X236250Y224602I1840J1707D01*
G01*
D02*
G03*
X234409Y223799I0J-2510D01*
G01*
X236377Y224476D02*
G03*
X233267Y224489I-1561J-1561D01*
G01*
X237500Y223353D02*
G03*
X234371Y223366I-1571J-1571D01*
G01*
X10000Y129360D02*
G03*
X10411Y128368I1403J0D01*
G01*
X17000Y129806D02*
G03*
X17596Y128368I2035J0D01*
G01*
X230066Y127800D02*
G03*
X228827Y127412I-345J-1072D01*
G01*
X232192Y127117D02*
G03*
X230078Y126455I-588J-1830D01*
G01*
X230309Y126706D02*
G03*
X229206Y128077I-1592J-152D01*
G01*
X230308Y126434D02*
G03*
X229242Y128065I-1539J158D01*
G01*
X228546Y130093D02*
G03*
X230111Y127786I2257J-154D01*
G01*
X230117Y129986D02*
G03*
X232027Y127170I2755J-187D01*
G01*
X228663Y129525D02*
G03*
X231079Y127474I3683J1892D01*
G01*
X221411Y119632D02*
G03*
X221000Y118640I992J-992D01*
G01*
X218600Y130020D02*
Y211000D01*
X17000Y128020D02*
Y189000D01*
X221000Y111300D02*
Y119980D01*
X228937Y128163D02*
Y130020D01*
X229400Y128014D02*
X233800Y126600D01*
X228937Y128163D02*
X229400Y128014D01*
X10000Y128020D02*
Y191500D01*
X119874Y143626D02*
X128000Y135500D01*
Y143300D01*
Y133126D02*
Y135500D01*
X144512Y152500D02*
Y156720D01*
Y147000D02*
Y152500D01*
X140600Y156412D02*
X144512Y152500D01*
X15543Y229602D02*
X19500D01*
X25431Y224171D01*
Y204464D02*
Y224171D01*
Y204464D02*
X57400Y172495D01*
Y148600D02*
Y172495D01*
Y148600D02*
X69700Y136300D01*
X201300Y126900D02*
X201625Y126575D01*
X32256Y134331D02*
Y178900D01*
X22500Y124575D02*
X32256Y134331D01*
X216500Y113600D02*
Y121175D01*
X117400Y14500D02*
X150100Y47200D01*
X14957Y14500D02*
X117400D01*
X11957Y17500D02*
X14957Y14500D01*
X11957Y17500D02*
Y43898D01*
X17000Y128020D02*
X17937D01*
X227543Y51993D02*
Y55102D01*
X221800Y46250D02*
X227543Y51993D01*
X220457Y42898D02*
X221800Y46250D01*
X148800Y228300D02*
X163800D01*
X187600Y204500D01*
Y82100D02*
Y204500D01*
X186300Y80800D02*
X187600Y82100D01*
X148700Y80800D02*
X186300D01*
X146000Y83500D02*
X148700Y80800D01*
X121240Y83500D02*
X146000D01*
X115335Y77594D02*
X121240Y83500D01*
X228937Y126575D02*
Y128163D01*
X158488Y108449D02*
Y147000D01*
Y108449D02*
X170437Y96500D01*
X97988Y214000D02*
X102175D01*
X109411Y206763D01*
X162300Y150812D02*
Y213700D01*
X158488Y147000D02*
X162300Y150812D01*
X143800Y170819D02*
X154219Y160400D01*
X141000Y133126D02*
Y138400D01*
X82500Y133626D02*
X115500D01*
X76774Y139352D02*
X82500Y133626D01*
X76774Y139352D02*
Y165957D01*
X69099Y173631D02*
X76774Y165957D01*
X67500Y173631D02*
X69099D01*
X66131Y175000D02*
X67500Y173631D01*
X66131Y175000D02*
Y193731D01*
X67200Y194800D01*
X105300Y138400D02*
Y144113D01*
X210200Y138400D02*
Y197500D01*
X170900Y236800D02*
X210200Y197500D01*
X138500Y236800D02*
X170900D01*
X29775Y204018D02*
Y226800D01*
Y204018D02*
X60619Y173174D01*
Y167781D02*
Y173174D01*
Y167781D02*
X69000Y159400D01*
X79512Y192210D02*
Y207293D01*
X61705Y225100D02*
X79512Y207293D01*
X48700Y225100D02*
X61705D01*
X105800Y231000D02*
X118693Y218107D01*
X105800Y231000D02*
Y235000D01*
X108900Y238100D01*
X126200D01*
X127500Y236800D01*
X110659Y232500D02*
X122236Y220923D01*
X125780Y217980D02*
X132900Y225100D01*
X75600Y267800D02*
X225700D01*
X228500Y265000D01*
Y232400D02*
Y265000D01*
X226457Y230357D02*
X228500Y232400D01*
X226457Y224602D02*
Y230357D01*
X220457Y55102D02*
Y92300D01*
X192900Y119857D02*
X220457Y92300D01*
X192900Y119857D02*
Y206800D01*
X166886Y232814D02*
X192900Y206800D01*
X144300Y232814D02*
X166886D01*
X141134Y229648D02*
X144300Y232814D01*
X128548Y229648D02*
X141134D01*
X126700Y227800D02*
X128548Y229648D01*
X55900Y205600D02*
X73600D01*
X76700Y202500D01*
Y188300D02*
Y202500D01*
Y188300D02*
X81500Y183500D01*
X70600Y178100D02*
X82500Y166200D01*
Y155200D02*
Y166200D01*
Y155200D02*
X87500Y150200D01*
X227543Y39343D02*
Y42898D01*
X225000Y36800D02*
X227543Y39343D01*
X219700Y36800D02*
X225000D01*
X216500Y40000D02*
X219700Y36800D01*
X216500Y40000D02*
Y53750D01*
X217852Y55102D01*
X220457D01*
X8000Y43898D02*
X11957D01*
X8000D02*
Y59200D01*
X10000Y61200D01*
X17500D01*
X19043Y59657D01*
Y56102D02*
Y59657D01*
X219998Y212398D02*
X226457D01*
X218600Y211000D02*
X219998Y212398D01*
X218600Y130020D02*
X221063D01*
X221000Y119980D02*
X221063D01*
X221000Y111300D02*
X227543Y104757D01*
Y55102D02*
Y104757D01*
X17937Y117980D02*
X22820D01*
X25800Y115000D01*
Y28800D02*
Y115000D01*
X16500Y19500D02*
X25800Y28800D01*
X23575Y121425D02*
X30000Y115000D01*
Y84100D02*
Y115000D01*
Y84100D02*
X61700Y52400D01*
X181100D01*
X224000Y9500D01*
X84012Y193756D02*
Y199500D01*
X103500Y228400D02*
X115150Y216750D01*
X77600Y228400D02*
X103500D01*
X73861Y183116D02*
X83796Y173181D01*
X73861Y183116D02*
Y198064D01*
X72494Y199431D02*
X73861Y198064D01*
X49669Y199431D02*
X72494D01*
X37000Y212100D02*
X49669Y199431D01*
X151038Y174362D02*
X157800Y167600D01*
X105335Y77594D02*
Y81600D01*
X110100Y86365D01*
Y95000D01*
X104400Y100700D02*
X110100Y95000D01*
X90300Y100700D02*
X104400D01*
X38438Y152562D02*
X90300Y100700D01*
X38438Y152562D02*
Y181462D01*
X25900Y194000D02*
X38438Y181462D01*
X12500Y194000D02*
X25900D01*
X10000Y191500D02*
X12500Y194000D01*
X10000Y128020D02*
X10063D01*
X174900Y199700D02*
X180000Y204800D01*
X174900Y93750D02*
Y199700D01*
X172588Y91438D02*
X174900Y93750D01*
X167625Y91438D02*
X172588D01*
X162563Y96500D02*
X167625Y91438D01*
X183100Y94200D02*
Y194500D01*
X172500Y83600D02*
X183100Y94200D01*
X160100Y83600D02*
X172500D01*
X141000Y102700D02*
X160100Y83600D01*
X141000Y102700D02*
Y123874D01*
X135600Y219500D02*
X138500Y216600D01*
X84012Y199500D02*
Y214000D01*
X35931Y218400D02*
X37000D01*
X32531Y215000D02*
X35931Y218400D01*
X32531Y205869D02*
Y215000D01*
Y205869D02*
X63375Y175025D01*
Y172525D02*
Y175025D01*
Y172525D02*
X67200Y168700D01*
X90800D02*
X91738Y169638D01*
X70000Y234900D02*
X72000Y232900D01*
X10000Y234900D02*
X70000D01*
X8457Y233357D02*
X10000Y234900D01*
X8457Y229602D02*
Y233357D01*
X97988Y194631D02*
X98921Y193698D01*
X97988Y194631D02*
Y199500D01*
X158488Y147000D02*
Y152500D01*
X155988Y155000D02*
X158488Y152500D01*
X150201Y155000D02*
X155988D01*
X115500Y133626D02*
Y148000D01*
X88000Y238500D02*
X89700Y236800D01*
X7900Y238500D02*
X88000D01*
X4300Y234900D02*
X7900Y238500D01*
X4300Y103900D02*
Y234900D01*
Y103900D02*
X23000Y85200D01*
Y45648D02*
Y85200D01*
X21250Y43898D02*
X23000Y45648D01*
X19043Y43898D02*
X21250D01*
X8457Y226987D02*
Y229602D01*
Y226987D02*
X15543Y219900D01*
Y217398D02*
Y219900D01*
X8457Y217398D02*
X11600D01*
Y215000D02*
Y217398D01*
Y215000D02*
X13600Y213000D01*
X17500D01*
X19500Y215000D01*
Y229602D01*
X226457Y210000D02*
Y212398D01*
Y210000D02*
X229957Y206500D01*
X235000D01*
X237500Y209000D01*
Y223352D01*
X236250Y224602D02*
X237500Y223352D01*
X233543Y224602D02*
X236250D01*
X105335Y77594D02*
X115500Y87760D01*
Y124374D01*
X97988Y199500D02*
Y214000D01*
X226457Y221987D02*
Y224602D01*
Y221987D02*
X233543Y214900D01*
Y212398D02*
Y214900D01*
X11957Y53487D02*
Y56102D01*
Y53487D02*
X19043Y46400D01*
Y43898D02*
Y46400D01*
X128000Y123874D02*
X141000D01*
D11*
X93753Y169638D02*
G03*
X91002Y168498I0J-3891D01*
G01*
X97317Y169638D02*
G03*
X92046Y167454I0J-7455D01*
G01*
X97246Y188854D02*
G03*
X96000Y185847I3008J-3008D01*
G01*
D02*
G03*
X94754Y188854I-4253J0D01*
G01*
X141715Y155993D02*
G03*
X140742Y160491I-3978J1493D01*
G01*
X140333Y156512D02*
G03*
X139121Y162111I-4952J1859D01*
G01*
X138951Y157031D02*
G03*
X137500Y163732I-5927J2225D01*
G01*
X90106Y161162D02*
G03*
X93113Y162408I0J4253D01*
G01*
D02*
G03*
X91867Y159400I3008J-3008D01*
G01*
X126246Y150046D02*
G03*
X128194Y149239I1949J1949D01*
G01*
X130161D02*
G03*
X126271Y147580I0J-5391D01*
G01*
X123446Y149631D02*
G03*
X123647Y152603I-3196J1709D01*
G01*
X123647Y152603D02*
G03*
X125712Y150412I3627J1349D01*
G01*
X123553Y149804D02*
G03*
X123541Y151909I-1504J1044D01*
G01*
X123890Y151418D02*
G03*
X125294Y150537I1765J1254D01*
G01*
X202546Y128146D02*
G03*
X206339Y126575I3793J3793D01*
G01*
X204768D02*
G03*
X202546Y125654I0J-3143D01*
G01*
X10446Y127637D02*
G03*
X10063Y126713I924J-924D01*
G01*
D02*
G03*
X9680Y127637I-1307J0D01*
G01*
Y118363D02*
G03*
X10063Y119287I-924J924D01*
G01*
D02*
G03*
X10446Y118363I1307J0D01*
G01*
X230384Y119433D02*
G03*
X230163Y122200I-1735J1254D01*
G01*
X229187Y120298D02*
G03*
X228937Y123425I-1961J1417D01*
G01*
X230659Y121703D02*
G03*
X230158Y120080I1286J-1286D01*
G01*
X228717Y123678D02*
G03*
X228731Y123631I51J-11D01*
G01*
X230162Y123375D02*
G03*
X230659Y121703I1792J-377D01*
G01*
X123660Y153652D02*
G03*
X124306Y150833I3726J-630D01*
G01*
X228937Y123425D02*
X230659Y121703D01*
X228900Y123425D02*
Y126575D01*
X10100Y121425D02*
Y124575D01*
X96000Y181768D02*
Y190100D01*
X84012Y193756D02*
X96000Y181768D01*
X137500Y163732D02*
X144512Y156720D01*
X201625Y126575D02*
X221063D01*
X17937Y124575D02*
X22500D01*
X218750Y123425D02*
X221063D01*
X216500Y121175D02*
X218750Y123425D01*
X10063Y124575D02*
Y128020D01*
Y117980D02*
Y121425D01*
X228937Y119980D02*
X230659Y121703D01*
X132866Y170819D02*
X143800D01*
X123417Y152083D02*
Y156646D01*
Y152083D02*
X125439Y149239D01*
X130161D01*
X141000Y138400D01*
X125000Y148800D02*
X125439Y149239D01*
X112787Y151600D02*
Y156646D01*
X105300Y144113D02*
X112787Y151600D01*
X90106Y159400D02*
X96800Y166094D01*
X102157D01*
X94998Y176724D02*
X102157D01*
X79512Y192210D02*
X94998Y176724D01*
X118693Y187354D02*
Y218107D01*
X122236Y187354D02*
Y220923D01*
X125780Y187354D02*
Y217980D01*
X87500Y150200D02*
X107500D01*
X109244Y151944D01*
Y156646D01*
X17937Y121425D02*
X23575D01*
X97500Y180268D02*
X102157D01*
X115150Y187354D02*
Y216750D01*
X83796Y173181D02*
X102157D01*
X132866Y174362D02*
X151038D01*
X96000Y181768D02*
X97500Y180268D01*
X132866Y177906D02*
X138500D01*
Y216600D01*
X91738Y169638D02*
X102157D01*
X111606Y187354D02*
Y193294D01*
X111202Y193698D02*
X111606Y193294D01*
X98921Y193698D02*
X111202D01*
X10063Y121425D02*
X10100D01*
X10063Y124575D02*
X10100D01*
X119874Y143626D02*
Y156646D01*
X137926Y167276D02*
X150201Y155000D01*
X132866Y167276D02*
X137926D01*
X132866Y163732D02*
X137500D01*
X116331Y148831D02*
Y156646D01*
X115500Y148000D02*
X116331Y148831D01*
X228900Y123425D02*
X228937D01*
X228900Y126575D02*
X228937D01*
D12*
X102157Y180268D02*
D03*
Y176724D02*
D03*
Y173181D02*
D03*
Y169638D02*
D03*
Y166094D02*
D03*
X132866Y163732D02*
D03*
Y167276D02*
D03*
Y170819D02*
D03*
Y174362D02*
D03*
Y177906D02*
D03*
D13*
X125780Y187354D02*
D03*
X122236D02*
D03*
X118693D02*
D03*
X115150D02*
D03*
X111606D02*
D03*
X112787Y156646D02*
D03*
X116331D02*
D03*
X119874D02*
D03*
X123417D02*
D03*
D14*
X109244D02*
D03*
D15*
X221063Y130020D02*
D03*
Y119980D02*
D03*
X228937Y130020D02*
D03*
Y119980D02*
D03*
X17937Y117980D02*
D03*
Y128020D02*
D03*
X10063Y117980D02*
D03*
Y128020D02*
D03*
D16*
X221063Y126575D02*
D03*
Y123425D02*
D03*
X228937Y126575D02*
D03*
Y123425D02*
D03*
X17937Y121425D02*
D03*
Y124575D02*
D03*
X10063Y121425D02*
D03*
Y124575D02*
D03*
D17*
X233543Y224602D02*
D03*
X226457Y212398D02*
D03*
X233543D02*
D03*
X226457Y224602D02*
D03*
X8457Y217398D02*
D03*
X15543Y229602D02*
D03*
X8457D02*
D03*
X15543Y217398D02*
D03*
X11957Y43898D02*
D03*
X19043Y56102D02*
D03*
X11957D02*
D03*
X19043Y43898D02*
D03*
X220457Y42898D02*
D03*
X227543Y55102D02*
D03*
X220457D02*
D03*
X227543Y42898D02*
D03*
D18*
X84012Y214000D02*
D03*
X97988D02*
D03*
X84012Y199500D02*
D03*
X97988D02*
D03*
X144512Y147000D02*
D03*
X158488D02*
D03*
D19*
X128000Y123874D02*
D03*
Y133126D02*
D03*
X141000D02*
D03*
Y123874D02*
D03*
X115500Y133626D02*
D03*
Y124374D02*
D03*
D20*
X135335Y77594D02*
D03*
D21*
X125335D02*
D03*
X115335D02*
D03*
X105335D02*
D03*
D22*
X201083Y76413D02*
D03*
X39587Y9484D02*
D03*
X190000Y247500D02*
D03*
X30000D02*
D03*
Y257500D02*
D03*
X40000Y247500D02*
D03*
Y257500D02*
D03*
X50000Y247500D02*
D03*
Y257500D02*
D03*
X60000Y247500D02*
D03*
Y257500D02*
D03*
X70000Y247500D02*
D03*
Y257500D02*
D03*
X80000Y247500D02*
D03*
Y257500D02*
D03*
X90000Y247500D02*
D03*
Y257500D02*
D03*
X100000Y247500D02*
D03*
Y257500D02*
D03*
X110000Y247500D02*
D03*
Y257500D02*
D03*
X120000Y247500D02*
D03*
Y257500D02*
D03*
X130000Y247500D02*
D03*
Y257500D02*
D03*
X140000Y247500D02*
D03*
Y257500D02*
D03*
X150000Y247500D02*
D03*
Y257500D02*
D03*
X160000Y247500D02*
D03*
Y257500D02*
D03*
X170000Y247500D02*
D03*
Y257500D02*
D03*
X180000Y247500D02*
D03*
Y257500D02*
D03*
X190000D02*
D03*
X200000Y247500D02*
D03*
Y257500D02*
D03*
X210000Y247500D02*
D03*
Y257500D02*
D03*
X220000Y247500D02*
D03*
D23*
X16500Y19500D02*
D03*
Y9500D02*
D03*
X224000D02*
D03*
Y19500D02*
D03*
X223000Y180000D02*
D03*
Y190000D02*
D03*
X17000Y189000D02*
D03*
Y199000D02*
D03*
D24*
X220000Y257500D02*
D03*
D25*
X170437Y96500D02*
D03*
D26*
X162563D02*
D03*
D27*
X69700Y136300D02*
D03*
X201300Y126900D02*
D03*
X32256Y178900D02*
D03*
X216500Y113600D02*
D03*
X150100Y47200D02*
D03*
X148800Y228300D02*
D03*
X233800Y126600D02*
D03*
X109411Y206763D02*
D03*
X162300Y213700D02*
D03*
X154219Y160400D02*
D03*
X125000Y148800D02*
D03*
X128000Y143300D02*
D03*
X67200Y194800D02*
D03*
X105300Y138400D02*
D03*
X210200D02*
D03*
X138500Y236800D02*
D03*
X29775Y226800D02*
D03*
X69000Y159400D02*
D03*
X90106D02*
D03*
X48700Y225100D02*
D03*
X127500Y236800D02*
D03*
X110659Y232500D02*
D03*
X132900Y225100D02*
D03*
X75600Y267800D02*
D03*
X126700Y227800D02*
D03*
X55900Y205600D02*
D03*
X81500Y183500D02*
D03*
X70600Y178100D02*
D03*
X140600Y156412D02*
D03*
X77600Y228400D02*
D03*
X37000Y212100D02*
D03*
X157800Y167600D02*
D03*
X180000Y204800D02*
D03*
X183100Y194500D02*
D03*
X96000Y190100D02*
D03*
X135600Y219500D02*
D03*
X37000Y218400D02*
D03*
X67200Y168700D02*
D03*
X90800D02*
D03*
X72000Y232900D02*
D03*
X89700Y236800D02*
D03*
M02*
