%FSLAX25Y25*%
%MOIN*%
G70*
G01*
G75*
G04 Layer_Physical_Order=2*
G04 Layer_Color=16711680*
%ADD10C,0.01575*%
%ADD11C,0.01476*%
%ADD12R,0.07874X0.01969*%
%ADD13R,0.01969X0.07874*%
G04:AMPARAMS|DCode=14|XSize=19.69mil|YSize=78.74mil|CornerRadius=0mil|HoleSize=0mil|Usage=FLASHONLY|Rotation=180.000|XOffset=0mil|YOffset=0mil|HoleType=Round|Shape=Octagon|*
%AMOCTAGOND14*
4,1,8,0.00492,-0.03937,-0.00492,-0.03937,-0.00984,-0.03445,-0.00984,0.03445,-0.00492,0.03937,0.00492,0.03937,0.00984,0.03445,0.00984,-0.03445,0.00492,-0.03937,0.0*
%
%ADD14OCTAGOND14*%

G04:AMPARAMS|DCode=15|XSize=39.37mil|YSize=25.59mil|CornerRadius=0mil|HoleSize=0mil|Usage=FLASHONLY|Rotation=0.000|XOffset=0mil|YOffset=0mil|HoleType=Round|Shape=Octagon|*
%AMOCTAGOND15*
4,1,8,0.01969,-0.00640,0.01969,0.00640,0.01329,0.01280,-0.01329,0.01280,-0.01969,0.00640,-0.01969,-0.00640,-0.01329,-0.01280,0.01329,-0.01280,0.01969,-0.00640,0.0*
%
%ADD15OCTAGOND15*%

G04:AMPARAMS|DCode=16|XSize=39.37mil|YSize=19.69mil|CornerRadius=0mil|HoleSize=0mil|Usage=FLASHONLY|Rotation=0.000|XOffset=0mil|YOffset=0mil|HoleType=Round|Shape=Octagon|*
%AMOCTAGOND16*
4,1,8,0.01969,-0.00492,0.01969,0.00492,0.01476,0.00984,-0.01476,0.00984,-0.01969,0.00492,-0.01969,-0.00492,-0.01476,-0.00984,0.01476,-0.00984,0.01969,-0.00492,0.0*
%
%ADD16OCTAGOND16*%

G04:AMPARAMS|DCode=17|XSize=47.24mil|YSize=39.37mil|CornerRadius=0mil|HoleSize=0mil|Usage=FLASHONLY|Rotation=270.000|XOffset=0mil|YOffset=0mil|HoleType=Round|Shape=Octagon|*
%AMOCTAGOND17*
4,1,8,-0.00984,-0.02362,0.00984,-0.02362,0.01969,-0.01378,0.01969,0.01378,0.00984,0.02362,-0.00984,0.02362,-0.01969,0.01378,-0.01969,-0.01378,-0.00984,-0.02362,0.0*
%
%ADD17OCTAGOND17*%

%ADD18R,0.04921X0.06693*%
%ADD19R,0.05118X0.04134*%
%ADD20R,0.06299X0.06299*%
%ADD21C,0.06299*%
%ADD22C,0.05906*%
%ADD23C,0.04724*%
%ADD24R,0.05906X0.05906*%
%ADD25C,0.04921*%
%ADD26R,0.04921X0.04921*%
%ADD27C,0.05000*%
%ADD28R,0.03150X0.04724*%
D10*
X88489Y238011D02*
G03*
X90000Y241659I-3648J3648D01*
G01*
Y240210D02*
G03*
X90911Y238011I3110J0D01*
G01*
X70789Y234111D02*
G03*
X72000Y237035I-2924J2924D01*
G01*
D02*
G03*
X73211Y234111I4135J0D01*
G01*
X89589Y167489D02*
G03*
X86665Y168700I-2924J-2924D01*
G01*
D02*
G03*
X89589Y169911I0J4135D01*
G01*
X68411D02*
G03*
X71335Y168700I2924J2924D01*
G01*
D02*
G03*
X68411Y167489I0J-4135D01*
G01*
X35789Y217189D02*
G03*
X32865Y218400I-2924J-2924D01*
G01*
D02*
G03*
X35789Y219611I0J4135D01*
G01*
X134389Y218289D02*
G03*
X131465Y219500I-2924J-2924D01*
G01*
D02*
G03*
X134389Y220711I0J4135D01*
G01*
X97211Y191311D02*
G03*
X100135Y190100I2924J2924D01*
G01*
D02*
G03*
X97211Y188889I0J-4135D01*
G01*
X183100Y196213D02*
G03*
X186024Y197424I0J4135D01*
G01*
D02*
G03*
X184813Y194500I2924J-2924D01*
G01*
X178789Y206011D02*
G03*
X180000Y208935I-2924J2924D01*
G01*
D02*
G03*
X181211Y206011I4135J0D01*
G01*
X159011Y168811D02*
G03*
X161935Y167600I2924J2924D01*
G01*
D02*
G03*
X159011Y166389I0J-4135D01*
G01*
X35789Y210889D02*
G03*
X32865Y212100I-2924J-2924D01*
G01*
D02*
G03*
X35789Y213311I0J4135D01*
G01*
X76389Y227189D02*
G03*
X73465Y228400I-2924J-2924D01*
G01*
D02*
G03*
X76389Y229611I0J4135D01*
G01*
X139389Y157623D02*
G03*
X140600Y160546I-2924J2924D01*
G01*
D02*
G03*
X141811Y157623I4135J0D01*
G01*
X70600Y179813D02*
G03*
X71804Y180312I0J1704D01*
G01*
X74236Y182743D02*
G03*
X72313Y178100I4643J-4643D01*
G01*
X83176Y185631D02*
G03*
X80484Y184516I0J-3808D01*
G01*
X86978Y185631D02*
G03*
X81597Y183403I0J-7610D01*
G01*
X90780Y185631D02*
G03*
X82711Y182289I0J-11412D01*
G01*
X55803Y205697D02*
G03*
X57834Y210602I-4905J4905D01*
G01*
X54689Y206811D02*
G03*
X57834Y214404I-7593J7593D01*
G01*
X125183Y227005D02*
G03*
X123869Y227800I-1314J-689D01*
G01*
D02*
G03*
X125183Y228595I0J1484D01*
G01*
X76811Y266589D02*
G03*
X75000Y262217I4372J-4372D01*
G01*
Y265114D02*
G03*
X74389Y266589I-2086J0D01*
G01*
X131962Y226533D02*
G03*
X132900Y228268I-1137J1736D01*
G01*
D02*
G03*
X133838Y226533I2075J0D01*
G01*
X108947Y232500D02*
G03*
X107736Y235424I-4135J0D01*
G01*
D02*
G03*
X110659Y234213I2924J2924D01*
G01*
X46987Y225100D02*
G03*
X45776Y228024I-4135J0D01*
G01*
D02*
G03*
X48700Y226813I2924J2924D01*
G01*
X88895Y158189D02*
G03*
X85971Y159400I-2924J-2924D01*
G01*
D02*
G03*
X88895Y160611I0J4135D01*
G01*
X70211D02*
G03*
X73135Y159400I2924J2924D01*
G01*
D02*
G03*
X70211Y158189I0J-4135D01*
G01*
X28063Y226800D02*
G03*
X26852Y229724I-4135J0D01*
G01*
D02*
G03*
X29775Y228513I2924J2924D01*
G01*
X138500Y238513D02*
G03*
X141424Y239724I0J4135D01*
G01*
D02*
G03*
X140213Y236800I2924J-2924D01*
G01*
X208989Y137189D02*
G03*
X206065Y138400I-2924J-2924D01*
G01*
D02*
G03*
X208989Y139611I0J4135D01*
G01*
X106511D02*
G03*
X109435Y138400I2924J2924D01*
G01*
D02*
G03*
X106511Y137189I0J-4135D01*
G01*
X67200Y196513D02*
G03*
X70124Y197724I0J4135D01*
G01*
D02*
G03*
X68913Y194800I2924J-2924D01*
G01*
X129211Y144511D02*
G03*
X132135Y143300I2924J2924D01*
G01*
D02*
G03*
X129211Y142089I0J-4135D01*
G01*
X123789Y147589D02*
G03*
X120865Y148800I-2924J-2924D01*
G01*
D02*
G03*
X123789Y150011I0J4135D01*
G01*
X155430Y161611D02*
G03*
X158354Y160400I2924J2924D01*
G01*
D02*
G03*
X155430Y159189I0J-4135D01*
G01*
X160960Y210797D02*
G03*
X162162Y213700I-2903J2903D01*
G01*
X158271Y208108D02*
G03*
X160587Y213700I-5592J5592D01*
G01*
X162300Y213838D02*
G03*
X165203Y215040I0J4106D01*
G01*
X162300Y215413D02*
G03*
X167892Y217729I0J7908D01*
G01*
X110622Y207974D02*
G03*
X113546Y206763I2924J2924D01*
G01*
D02*
G03*
X110622Y205552I0J-4135D01*
G01*
X232589Y125389D02*
G03*
X229665Y126600I-2924J-2924D01*
G01*
D02*
G03*
X232589Y127811I0J4135D01*
G01*
X148703Y228397D02*
G03*
X150000Y231530I-3132J3132D01*
G01*
X147589Y229511D02*
G03*
X150000Y235332I-5821J5821D01*
G01*
X150100Y48913D02*
G03*
X153024Y50124I0J4135D01*
G01*
D02*
G03*
X151813Y47200I2924J-2924D01*
G01*
X216500Y111887D02*
G03*
X213576Y110676I0J-4135D01*
G01*
D02*
G03*
X214787Y113600I-2924J2924D01*
G01*
X33969Y178900D02*
G03*
X35180Y175976I4135J0D01*
G01*
D02*
G03*
X32256Y177187I-2924J-2924D01*
G01*
X200089Y125689D02*
G03*
X197165Y126900I-2924J-2924D01*
G01*
D02*
G03*
X200089Y128111I0J4135D01*
G01*
X70911Y137511D02*
G03*
X73835Y136300I2924J2924D01*
G01*
D02*
G03*
X70911Y135089I0J-4135D01*
G01*
X112514Y63729D02*
G03*
X113512Y65712I-1471J1982D01*
G01*
D02*
G03*
X114509Y63729I2469J0D01*
G01*
X125559Y55959D02*
G03*
X127390Y60611I-4429J4429D01*
G01*
X123000Y53400D02*
G03*
X125816Y60555I-6812J6812D01*
G01*
X128246Y59122D02*
G03*
X127488Y57888I626J-1234D01*
G01*
D02*
G03*
X126731Y59122I-1384J0D01*
G01*
X116931Y51951D02*
G03*
X115002Y49936I597J-2502D01*
G01*
X119304Y52518D02*
G03*
X116549Y49638I853J-3575D01*
G01*
X117813Y52162D02*
G03*
X115105Y50200I1015J-4250D01*
G01*
X121511Y53045D02*
G03*
X116446Y49375I1897J-7948D01*
G01*
X115222Y50347D02*
G03*
X115776Y51675I-1316J1329D01*
G01*
D02*
G03*
X116330Y50347I1870J0D01*
G01*
X116563Y48213D02*
G03*
X117129Y46847I1931J0D01*
G01*
X117098Y46877D02*
G03*
X115776Y47425I-1323J-1323D01*
G01*
X125291Y50572D02*
G03*
X126653Y51006I157J1861D01*
G01*
X126689Y51036D02*
G03*
X126009Y49721I1247J-1478D01*
G01*
X162563Y94827D02*
G03*
X159707Y93644I0J-4039D01*
G01*
D02*
G03*
X160890Y96500I-2856J2856D01*
G01*
X171620Y97683D02*
G03*
X174477Y96500I2856J2856D01*
G01*
D02*
G03*
X171620Y95317I0J-4039D01*
G01*
D02*
G03*
X170437Y92461I2856J-2856D01*
G01*
D02*
G03*
X169254Y95317I-4039J0D01*
G01*
X218469Y255969D02*
G03*
X214772Y257500I-3697J-3697D01*
G01*
D02*
G03*
X218469Y259031I0J5228D01*
G01*
X208469Y255969D02*
G03*
X204772Y257500I-3697J-3697D01*
G01*
D02*
G03*
X208469Y259031I0J5228D01*
G01*
X211531D02*
G03*
X215228Y257500I3697J3697D01*
G01*
D02*
G03*
X211531Y255969I0J-5228D01*
G01*
Y245969D02*
G03*
X210000Y242272I3697J-3697D01*
G01*
D02*
G03*
X208469Y245969I-5228J0D01*
G01*
X198469Y255969D02*
G03*
X194772Y257500I-3697J-3697D01*
G01*
D02*
G03*
X198469Y259031I0J5228D01*
G01*
X201531D02*
G03*
X205228Y257500I3697J3697D01*
G01*
D02*
G03*
X201531Y255969I0J-5228D01*
G01*
Y245969D02*
G03*
X200000Y242272I3697J-3697D01*
G01*
D02*
G03*
X198469Y245969I-5228J0D01*
G01*
X191531Y259031D02*
G03*
X195228Y257500I3697J3697D01*
G01*
D02*
G03*
X191531Y255969I0J-5228D01*
G01*
X188469D02*
G03*
X184772Y257500I-3697J-3697D01*
G01*
D02*
G03*
X188469Y259031I0J5228D01*
G01*
X181531D02*
G03*
X185228Y257500I3697J3697D01*
G01*
D02*
G03*
X181531Y255969I0J-5228D01*
G01*
X180000Y255335D02*
G03*
X176304Y253803I0J-5228D01*
G01*
X176304Y253803D02*
G03*
X177835Y257500I-3697J3697D01*
G01*
X181531Y245969D02*
G03*
X180000Y242272I3697J-3697D01*
G01*
D02*
G03*
X178469Y245969I-5228J0D01*
G01*
X170000Y259665D02*
G03*
X173696Y261196I0J5228D01*
G01*
X173696Y261196D02*
G03*
X172165Y257500I3697J-3697D01*
G01*
X162165D02*
G03*
X163697Y253803I5228J0D01*
G01*
X163697Y253803D02*
G03*
X160000Y255335I-3697J-3697D01*
G01*
X161531Y245969D02*
G03*
X160000Y242272I3697J-3697D01*
G01*
D02*
G03*
X158469Y245969I-5228J0D01*
G01*
X152165Y257500D02*
G03*
X153697Y253803I5228J0D01*
G01*
X153697Y253803D02*
G03*
X150000Y255335I-3697J-3697D01*
G01*
X151531Y245969D02*
G03*
X150000Y242272I3697J-3697D01*
G01*
D02*
G03*
X148469Y245969I-5228J0D01*
G01*
X142165Y257500D02*
G03*
X143696Y253803I5228J0D01*
G01*
X143696Y253803D02*
G03*
X140000Y255335I-3697J-3697D01*
G01*
X130000Y259665D02*
G03*
X133696Y261196I0J5228D01*
G01*
X133696Y261196D02*
G03*
X132165Y257500I3697J-3697D01*
G01*
X120000Y259665D02*
G03*
X123696Y261196I0J5228D01*
G01*
X123696Y261196D02*
G03*
X122165Y257500I3697J-3697D01*
G01*
X107835D02*
G03*
X106304Y261196I-5228J0D01*
G01*
X106304Y261196D02*
G03*
X110000Y259665I3697J3697D01*
G01*
X102165Y257500D02*
G03*
X103697Y253803I5228J0D01*
G01*
X103697Y253803D02*
G03*
X100000Y255335I-3697J-3697D01*
G01*
X101531Y245969D02*
G03*
X100000Y242272I3697J-3697D01*
G01*
D02*
G03*
X98469Y245969I-5228J0D01*
G01*
X92165Y257500D02*
G03*
X93696Y253803I5228J0D01*
G01*
X93696Y253803D02*
G03*
X90000Y255335I-3697J-3697D01*
G01*
X91531Y245969D02*
G03*
X90000Y242272I3697J-3697D01*
G01*
D02*
G03*
X88469Y245969I-5228J0D01*
G01*
X79926Y258086D02*
G03*
X82244Y260714I-331J2628D01*
G01*
X79729Y259648D02*
G03*
X82244Y262500I-359J2851D01*
G01*
X80000Y245335D02*
G03*
X76303Y243804I0J-5228D01*
G01*
X76303Y243804D02*
G03*
X77835Y247500I-3697J3697D01*
G01*
X70000Y255335D02*
G03*
X66303Y253803I0J-5228D01*
G01*
X66303Y253803D02*
G03*
X67835Y257500I-3697J3697D01*
G01*
X70000Y249665D02*
G03*
X73697Y251197I0J5228D01*
G01*
X73697Y251197D02*
G03*
X72165Y247500I3697J-3697D01*
G01*
X60000Y255335D02*
G03*
X56304Y253803I0J-5228D01*
G01*
X56304Y253803D02*
G03*
X57835Y257500I-3697J3697D01*
G01*
X61531Y245969D02*
G03*
X60000Y242272I3697J-3697D01*
G01*
D02*
G03*
X58469Y245969I-5228J0D01*
G01*
X47835Y257500D02*
G03*
X46303Y261196I-5228J0D01*
G01*
X46303Y261196D02*
G03*
X50000Y259665I3697J3697D01*
G01*
X51496Y245935D02*
G03*
X50000Y242434I3346J-3500D01*
G01*
D02*
G03*
X48504Y245935I-4843J0D01*
G01*
X37835Y257500D02*
G03*
X36303Y261196I-5228J0D01*
G01*
X36303Y261196D02*
G03*
X40000Y259665I3697J3697D01*
G01*
X42165Y247500D02*
G03*
X43696Y243804I5228J0D01*
G01*
X43696Y243804D02*
G03*
X40000Y245335I-3697J-3697D01*
G01*
X30000Y255335D02*
G03*
X26303Y253803I0J-5228D01*
G01*
X26303Y253803D02*
G03*
X27835Y257500I-3697J3697D01*
G01*
X31531Y245969D02*
G03*
X30000Y242272I3697J-3697D01*
G01*
D02*
G03*
X28469Y245969I-5228J0D01*
G01*
X18114Y200114D02*
G03*
X20802Y199000I2688J2688D01*
G01*
D02*
G03*
X18114Y197886I0J-3802D01*
G01*
X223000Y188425D02*
G03*
X220312Y187312I0J-3802D01*
G01*
D02*
G03*
X221425Y190000I-2688J2688D01*
G01*
Y180000D02*
G03*
X220312Y182688I-3802J0D01*
G01*
D02*
G03*
X223000Y181575I2688J2688D01*
G01*
X222425Y19500D02*
G03*
X221312Y22188I-3802J0D01*
G01*
D02*
G03*
X224000Y21075I2688J2688D01*
G01*
X14925Y9500D02*
G03*
X13812Y12188I-3802J0D01*
G01*
D02*
G03*
X16500Y11075I2688J2688D01*
G01*
X107005Y75924D02*
G03*
X105335Y71891I4033J-4033D01*
G01*
D02*
G03*
X103664Y75924I-5703J0D01*
G01*
X122972Y77594D02*
G03*
X121302Y81627I-5703J0D01*
G01*
D02*
G03*
X125335Y79957I4033J4033D01*
G01*
X135335Y75232D02*
G03*
X131302Y73562I0J-5703D01*
G01*
D02*
G03*
X132972Y77594I-4033J4033D01*
G01*
X137005Y79265D02*
G03*
X141037Y77594I4033J4033D01*
G01*
D02*
G03*
X137005Y75924I0J-5703D01*
G01*
D02*
G03*
X135335Y71891I4033J-4033D01*
G01*
D02*
G03*
X133664Y75924I-5703J0D01*
G01*
X162300Y213700D02*
X163081Y212919D01*
X175000Y224837D01*
X156926Y206763D02*
X163081Y212919D01*
X200000Y205000D02*
Y211400D01*
Y197600D02*
Y205000D01*
Y211400D02*
Y247500D01*
X195000Y200000D02*
X200000Y205000D01*
X188600Y200000D02*
X200000Y211400D01*
X183100Y194500D02*
X188600Y200000D01*
X195000D01*
X91493D02*
X188600D01*
X69700Y136300D02*
X94300D01*
X103700Y126900D01*
X201300D01*
X219100Y183900D02*
X223000Y180000D01*
X104249Y183900D02*
X219100D01*
X93981Y173631D02*
X104249Y183900D01*
X37525Y173631D02*
X93981D01*
X32256Y178900D02*
X37525Y173631D01*
X150100Y47200D02*
X216500Y113600D01*
X150000Y229500D02*
Y247500D01*
X148800Y228300D02*
X150000Y229500D01*
X219465Y126600D02*
X233800D01*
X189365Y96500D02*
X219465Y126600D01*
X170437Y96500D02*
X189365D01*
X109411Y206763D02*
X156926D01*
X175000Y252500D02*
X180000Y257500D01*
X175000Y224837D02*
Y252500D01*
X115776Y49000D02*
Y51676D01*
X123000Y53400D01*
X127488Y57888D01*
Y61500D01*
X112500Y53400D02*
X123000D01*
X105335Y60565D02*
X112500Y53400D01*
X105335Y60565D02*
Y77594D01*
X154219Y160400D02*
X229700D01*
X235599Y166299D01*
Y261101D01*
X226011Y270689D02*
X235599Y261101D01*
X133189Y270689D02*
X226011D01*
X120000Y257500D02*
X133189Y270689D01*
X55238Y148800D02*
X125000D01*
X27788Y176250D02*
X55238Y148800D01*
X27788Y176250D02*
Y183750D01*
X31613Y187575D01*
X74596D01*
X101055Y214034D01*
X113956D01*
X118471Y209519D01*
X149182D01*
X165000Y225337D01*
Y252500D01*
X160000Y257500D02*
X165000Y252500D01*
X170000Y257500D02*
X175000Y262500D01*
X225000D01*
X230087Y257413D01*
Y175500D02*
Y257413D01*
X227500Y172913D02*
X230087Y175500D01*
X152500Y172913D02*
X227500D01*
X145150Y165563D02*
X152500Y172913D01*
X145150Y154348D02*
Y165563D01*
X134101Y143300D02*
X145150Y154348D01*
X128000Y143300D02*
X134101D01*
X67200Y194800D02*
X91946Y219546D01*
X119468D01*
X123983Y215031D01*
X141936D01*
X155000Y228095D01*
Y252500D01*
X150000Y257500D02*
X155000Y252500D01*
X105300Y138400D02*
X210200D01*
X138500Y236800D02*
X145000Y243300D01*
Y252500D01*
X140000Y257500D02*
X145000Y252500D01*
X25000D02*
X30000Y257500D01*
X25000Y231575D02*
Y252500D01*
Y231575D02*
X29775Y226800D01*
X69000Y159400D02*
X90106D01*
X35000Y238800D02*
X48700Y225100D01*
X35000Y238800D02*
Y250000D01*
X37500Y252500D01*
X55000D01*
X60000Y257500D01*
X125000Y239300D02*
X127500Y236800D01*
X125000Y239300D02*
Y250000D01*
X122500Y252500D02*
X125000Y250000D01*
X117500Y252500D02*
X122500D01*
X115000Y255000D02*
X117500Y252500D01*
X115000Y255000D02*
Y260000D01*
X109823Y265177D02*
X115000Y260000D01*
X84921Y265177D02*
X109823D01*
X82244Y262500D02*
X84921Y265177D01*
X82244Y259744D02*
Y262500D01*
X80000Y257500D02*
X82244Y259744D01*
X106659Y236500D02*
X110659Y232500D01*
X97500Y236500D02*
X106659D01*
X95000Y239000D02*
X97500Y236500D01*
X95000Y239000D02*
Y252500D01*
X90000Y257500D02*
X95000Y252500D01*
X100000Y257500D02*
X105000Y252500D01*
Y245000D02*
Y252500D01*
Y245000D02*
X107430Y242570D01*
X114579D01*
X124881Y232269D01*
X128900D01*
X132900Y228269D01*
Y225100D02*
Y228269D01*
X70000Y247500D02*
X75000Y252500D01*
Y267200D01*
X75600Y267800D01*
X123869Y227800D02*
X126700D01*
X112169Y239500D02*
X123869Y227800D01*
X102500Y239500D02*
X112169D01*
X100000Y242000D02*
X102500Y239500D01*
X100000Y242000D02*
Y247500D01*
X201587Y41913D02*
X224000Y19500D01*
X112487Y41913D02*
X201587D01*
X12669Y141731D02*
X112487Y41913D01*
X12669Y141731D02*
Y201250D01*
X14750Y203331D01*
X42239D01*
X55078Y216170D01*
Y232422D01*
X40000Y247500D02*
X55078Y232422D01*
X50000Y242434D02*
Y247500D01*
Y242434D02*
X57834Y234600D01*
Y207534D02*
Y234600D01*
X55900Y205600D02*
X57834Y207534D01*
X81500Y183500D02*
X83631Y185631D01*
X98431D01*
X99800Y187000D01*
X220000D01*
X223000Y190000D01*
X125224Y49000D02*
Y49800D01*
X135335Y58335D01*
Y77594D01*
X70600Y179107D02*
X91493Y200000D01*
X70600Y178100D02*
Y179107D01*
X210000Y209831D02*
Y247500D01*
Y209831D02*
X227331Y192500D01*
Y177500D02*
Y192500D01*
X225500Y175669D02*
X227331Y177500D01*
X146269Y175669D02*
X225500D01*
X140600Y170000D02*
X146269Y175669D01*
X140600Y156412D02*
Y170000D01*
X170437Y86306D02*
Y96500D01*
X128800Y44669D02*
X170437Y86306D01*
X119306Y44669D02*
X128800D01*
X115776Y48200D02*
X119306Y44669D01*
X115776Y48200D02*
Y49000D01*
X113512Y61500D02*
Y65712D01*
X117500Y69700D01*
X127440D01*
X135335Y77594D01*
X70000Y228400D02*
X77600D01*
X65000Y233400D02*
X70000Y228400D01*
X65000Y233400D02*
Y252500D01*
X70000Y257500D01*
X20600Y212100D02*
X37000D01*
X19400Y213300D02*
X20600Y212100D01*
X19400Y213300D02*
Y262500D01*
X22300Y265400D01*
X42100D01*
X50000Y257500D01*
X157800Y167600D02*
X230286D01*
X232843Y170157D01*
Y259857D01*
X224767Y267933D02*
X232843Y259857D01*
X149478Y267933D02*
X224767D01*
X146745Y265200D02*
X149478Y267933D01*
X137700Y265200D02*
X146745D01*
X130000Y257500D02*
X137700Y265200D01*
X160000Y224875D02*
Y247500D01*
X147401Y212275D02*
X160000Y224875D01*
X121227Y212275D02*
X147401D01*
X116712Y216790D02*
X121227Y212275D01*
X96459Y216790D02*
X116712D01*
X70000Y190331D02*
X96459Y216790D01*
X27957Y190331D02*
X70000D01*
X25032Y187406D02*
X27957Y190331D01*
X25032Y173297D02*
Y187406D01*
Y173297D02*
X67500Y130828D01*
X72101D01*
X125335Y77594D01*
X180000Y204800D02*
Y247500D01*
X96000Y190100D02*
X192500D01*
X200000Y197600D01*
X127900Y219500D02*
X135600D01*
X125000Y222400D02*
X127900Y219500D01*
X92000Y222400D02*
X125000D01*
X85000Y229400D02*
X92000Y222400D01*
X85000Y229400D02*
Y260100D01*
X87321Y262421D01*
X105079D01*
X110000Y257500D01*
X30000Y239902D02*
Y247500D01*
Y239902D02*
X41731Y228171D01*
Y207731D02*
Y228171D01*
X40087Y206087D02*
X41731Y207731D01*
X12500Y206087D02*
X40087D01*
X9913Y203500D02*
X12500Y206087D01*
X9913Y16087D02*
Y203500D01*
Y16087D02*
X16500Y9500D01*
X35000Y262500D02*
X40000Y257500D01*
X25500Y262500D02*
X35000D01*
X22200Y259200D02*
X25500Y262500D01*
X22200Y218700D02*
Y259200D01*
Y218700D02*
X22500Y218400D01*
X37000D01*
X67200Y168700D02*
X90800D01*
X60000Y237934D02*
Y247500D01*
Y237934D02*
X60590Y237343D01*
Y199290D02*
Y237343D01*
X60300Y199000D02*
X60590Y199290D01*
X17000Y199000D02*
X60300D01*
X72000Y239500D02*
X80000Y247500D01*
X72000Y232900D02*
Y239500D01*
X90000Y237100D02*
Y247500D01*
X89700Y236800D02*
X90000Y237100D01*
X135335Y77594D02*
X143657D01*
X162563Y96500D01*
X190000Y257500D02*
X200000D01*
X180000D02*
X190000D01*
X200000D02*
X210000D01*
X220000D01*
D18*
X127488Y61500D02*
D03*
X113512D02*
D03*
D20*
X135335Y77594D02*
D03*
D21*
X125335D02*
D03*
X115335D02*
D03*
X105335D02*
D03*
D22*
X201083Y76413D02*
D03*
X39587Y9484D02*
D03*
X190000Y247500D02*
D03*
X30000D02*
D03*
Y257500D02*
D03*
X40000Y247500D02*
D03*
Y257500D02*
D03*
X50000Y247500D02*
D03*
Y257500D02*
D03*
X60000Y247500D02*
D03*
Y257500D02*
D03*
X70000Y247500D02*
D03*
Y257500D02*
D03*
X80000Y247500D02*
D03*
Y257500D02*
D03*
X90000Y247500D02*
D03*
Y257500D02*
D03*
X100000Y247500D02*
D03*
Y257500D02*
D03*
X110000Y247500D02*
D03*
Y257500D02*
D03*
X120000Y247500D02*
D03*
Y257500D02*
D03*
X130000Y247500D02*
D03*
Y257500D02*
D03*
X140000Y247500D02*
D03*
Y257500D02*
D03*
X150000Y247500D02*
D03*
Y257500D02*
D03*
X160000Y247500D02*
D03*
Y257500D02*
D03*
X170000Y247500D02*
D03*
Y257500D02*
D03*
X180000Y247500D02*
D03*
Y257500D02*
D03*
X190000D02*
D03*
X200000Y247500D02*
D03*
Y257500D02*
D03*
X210000Y247500D02*
D03*
Y257500D02*
D03*
X220000Y247500D02*
D03*
D23*
X16500Y19500D02*
D03*
Y9500D02*
D03*
X224000D02*
D03*
Y19500D02*
D03*
X223000Y180000D02*
D03*
Y190000D02*
D03*
X17000Y189000D02*
D03*
Y199000D02*
D03*
D24*
X220000Y257500D02*
D03*
D25*
X170437Y96500D02*
D03*
D26*
X162563D02*
D03*
D27*
X69700Y136300D02*
D03*
X201300Y126900D02*
D03*
X32256Y178900D02*
D03*
X216500Y113600D02*
D03*
X150100Y47200D02*
D03*
X148800Y228300D02*
D03*
X233800Y126600D02*
D03*
X109411Y206763D02*
D03*
X162300Y213700D02*
D03*
X154219Y160400D02*
D03*
X125000Y148800D02*
D03*
X128000Y143300D02*
D03*
X67200Y194800D02*
D03*
X105300Y138400D02*
D03*
X210200D02*
D03*
X138500Y236800D02*
D03*
X29775Y226800D02*
D03*
X69000Y159400D02*
D03*
X90106D02*
D03*
X48700Y225100D02*
D03*
X127500Y236800D02*
D03*
X110659Y232500D02*
D03*
X132900Y225100D02*
D03*
X75600Y267800D02*
D03*
X126700Y227800D02*
D03*
X55900Y205600D02*
D03*
X81500Y183500D02*
D03*
X70600Y178100D02*
D03*
X140600Y156412D02*
D03*
X77600Y228400D02*
D03*
X37000Y212100D02*
D03*
X157800Y167600D02*
D03*
X180000Y204800D02*
D03*
X183100Y194500D02*
D03*
X96000Y190100D02*
D03*
X135600Y219500D02*
D03*
X37000Y218400D02*
D03*
X67200Y168700D02*
D03*
X90800D02*
D03*
X72000Y232900D02*
D03*
X89700Y236800D02*
D03*
D28*
X125224Y49000D02*
D03*
X115776D02*
D03*
M02*
