M48
;Layer_Color=9474304
;FILE_FORMAT=2:5
INCH,LZ
;TYPE=PLATED
T1F00S00C0.02756
T2F00S00C0.02953
T3F00S00C0.03543
T4F00S00C0.03937
T5F00S00C0.05906
;TYPE=NON_PLATED
%
T01
X0224Y00095
Y00195
X00165
Y00095
X0017Y0189
Y0199
X0223Y019
Y018
T02
X0162563Y00965
X0170437
T03
X003Y02475
Y02575
X004
Y02475
X005
Y02575
X006
Y02475
X007
Y02575
X008
Y02475
X009
Y02575
X01
Y02475
X011
Y02575
X012
Y02475
X013
Y02575
X014
Y02475
X015
Y02575
X016
Y02475
X017
Y02575
X018
Y02475
X019
Y02575
X02
Y02475
X021
Y02575
X022
Y02475
T04
X02165Y01136
X0135335Y0077594
X0125335
X0115335
X0105335
X01501Y00472
X0032256Y01789
X0037Y02121
Y02184
X0029775Y02268
X00487Y02251
X00559Y02056
X00672Y01948
X00706Y01781
X00672Y01687
X0069Y01594
X0090106
X00908Y01687
X00815Y01835
X0096Y01901
X0109411Y0206763
X0110659Y02325
X01267Y02278
X01329Y02251
X01356Y02195
X01385Y02368
X01275
X01488Y02283
X01623Y02137
X018Y02048
X01831Y01945
X01578Y01676
X0154219Y01604
X01406Y0156412
X0125Y01488
X0128Y01433
X01053Y01384
X00697Y01363
X0072Y02329
X00776Y02284
X00897Y02368
X00756Y02678
X02013Y01269
X02102Y01384
X02338Y01266
T05
X0201083Y0076413
X0039587Y0009484
M30
