M48
;Layer_Color=9474304
;FILE_FORMAT=2:5
INCH,LZ
;TYPE=PLATED
T1F00S00C0.01500
T2F00S00C0.02362
T3F00S00C0.02800
T4F00S00C0.02953
T5F00S00C0.03543
T6F00S00C0.03937
T7F00S00C0.04331
T8F00S00C0.04724
T9F00S00C0.05906
T10F00S00C0.11811
%
T01
X0490582Y0003182
Y0012782
X0496482Y0026182
X05065Y00285
X0509282Y0031382
X0502982Y0036182
X0484782Y0051482
X0468482Y0051782
X0472474Y0055951
X0473982Y0060951
Y0079282
X0477082Y0090582
X0451182Y0072982
Y0062982
X04505Y0057
X0454582Y0052782
X0459582Y0048082
X0524Y0064012
X0524282Y0068831
X0523Y0073
X0515Y0075
X05455Y0079682
X05555Y0073
X0559582Y0074582
X0549182Y0060982
X0561Y00435
X0557205Y01215
X0532823Y0114523
X0527179Y0107382
X05215Y01245
X0520782Y01295
X0521264Y0137
X0493582Y0124482
X0422067Y0046082
X0423282Y0041482
X0415585Y0011379
X0401208Y001745
X0380482Y0032
X0370067Y0045307
X0363382Y0075282
X0355882Y0068082
X0375182Y0085282
X0363782Y0012682
X0351982Y0013182
X0324715Y00225
X0312182Y0027882
X0320567Y0051682
X0269182Y0048382
X02625Y0052
X0244457Y0018882
X0241Y001
X0231467Y0015582
X0200082Y0030382
X0188582Y0031382
X0180982Y0047482
X0183682Y0004782
X0189Y0135282
X0249882Y0134882
X00345Y01405
X0079082Y0020882
X0046984Y0162984
X0042382Y0171782
X0035482Y0156682
X00335Y015
X0025589Y0145661
X0022882Y0192479
X0014843Y0190524
X00325Y0193364
X0034782Y0202682
X0036606Y0212882
X00285Y02115
X0022921Y0214921
X0017248Y0217782
X0011782Y0229
X0011482Y0236382
X0048782Y0240382
X0052682Y0223382
X0050168Y0219832
X0044382Y0208082
X0044Y02785
X0047Y02815
X0057864Y0268
X0066382Y0270382
X0072082Y0273882
X0148282Y0270382
X0162382Y0271582
X0167Y02727
X0168577Y0267598
X0177282Y0271482
X0195785Y0269785
X0197082Y0261982
X0211537Y0260227
X0211382Y0264982
X0222211Y0265832
X0233Y0267032
X0222282Y0282182
X0194Y0284
X0191882Y0287182
X0183682Y0286282
X0187982Y0296882
X0197017Y0292992
X0206482Y0296982
X0159782Y0295282
X0162282Y0283482
X0168182Y0284607
X0145482Y0289553
X0139682Y0288382
X0175382Y0245482
X01815Y02465
X0171782Y0225482
X0199682Y0222282
X0195882Y0192982
X0213Y0189482
X0212949Y0176482
X02195Y01755
X0208582Y0172082
X0214319Y0165982
X0224682Y0157158
X0233982Y0173582
X0228508Y0189482
X0215782Y0256582
X0251682Y0290082
X0118482Y0183882
X0276882Y0286982
X0299582Y0289882
X0369582Y0292782
X0373882Y0286982
X0373582Y0282882
X0374822Y0279222
X0367382Y0276282
X0368982Y0264282
X0391182Y0265582
X0391231Y0274976
X0391166Y0281266
X0403079Y0270882
X0407482Y0289882
X0423433Y0287614
X0419496Y0261582
X0421464Y02476
X0416582Y0240582
X0397842Y0235842
X0389182Y0252982
X0379182Y0295882
X0366182Y0222882
X0377382Y0165451
X0374482Y0161782
X0400482Y0167182
X0445382Y0201582
X0441149Y0241582
Y025
X0434368Y0250458
X0429338Y0248947
X0429082Y0242682
X0428082Y0235582
X0426982Y0228182
X0439181Y0262582
X0436882Y0275523
X0428282Y0274282
X0454782
X0461382Y0292693
X0450814Y0296882
X0476082Y0287782
X0484982Y0288682
X0491082Y0290582
X0489532Y0294782
X0486632Y0280882
X0484927Y0274976
X048851Y0270671
X0495582Y0269182
X0491182Y026375
X0489482Y0253682
X0485682Y0255282
X047797Y0245552
X0462564Y0249
X0464082Y0258382
X0479482Y0272182
X0502282Y0287782
X0508982Y0294182
X0524682Y0285241
X0517482Y0276445
X0539682Y0282818
X0548082Y0279382
X0544082Y0290782
X0553682Y0256082
X0533982Y0250782
X0518782Y0245982
X0540982Y0222882
X0535149Y0203882
X0542382Y0198626
X05474Y0198382
X0551482Y0195481
X05515Y0186264
X054959Y0182374
X0528282Y0196882
X052913Y0157434
X0506382Y0151882
X0493582Y0174082
X0498432Y0179798
X0564882Y0226982
X0579882Y025
X0541182Y0302682
X0537582Y0304182
X0531882Y0311982
X0527982Y0298782
X0519132Y0298244
X0512182Y0307082
X0484363Y0305691
X0482432Y0301632
X0475Y03025
X0474382Y0297932
X0480582Y0314282
X0485282
X0485082Y0320182
X0488282Y0331232
X0476182Y0329182
X0473682Y0331946
X0474482Y0342782
X0467082Y0346982
X0456897Y0345905
X0453482Y0347582
X0449023Y0349115
X0447382Y0353082
X0440858Y0350782
X0437382Y0347882
X0432282Y0353682
X0428482Y0351275
X0433382Y0359882
X0445782Y0372082
X0448682Y0390382
X044071Y0391606
X0484521Y0386682
X0487882Y0385082
X0499812Y0384082
X0489182Y0371882
X0487337Y0353437
X0491882Y0348382
X0509782Y0338532
X0538282Y0326282
X0546682Y0327482
X0552482Y034
X0549582Y0356182
X0546282Y0353282
X0550564Y038
X0541182Y0382932
X0549982Y0397682
X05535Y0400264
X0554982Y0419682
X0555Y0428
X0570382Y0447382
X0526382Y044396
X0522Y0451
X0490782Y0398582
X0467386Y0367478
X0472382Y0360682
X0462882Y0355482
X0456282Y0351982
X0446082Y0344782
X0448882Y0325626
X0448182Y0319282
X0449782Y0314282
X0454482Y0307582
X0459032Y0308532
X0461582Y0315882
X0462282Y0320582
X0455682Y0320682
X0462182Y0328126
X0421464Y0319282
X0402882Y0322182
X0399382Y0328982
X0390482Y0323082
X0391182Y0311082
X0379182Y0303682
X0373082Y0304282
X0368882Y0302882
X0362632Y0307432
X0363533Y0314232
X0362712Y0324082
X0366804Y0324989
X0363082Y0330982
X0357982Y0329182
X0386782Y0338995
X0391982Y0348482
X0403782Y0357082
X0405748Y0363256
X0411982Y0361782
X0414971Y0358821
X0417905Y0352556
X0422082Y0349682
X0409131Y0352432
X0410482Y0344782
X0411622Y0332832
X0408082Y0300982
X0403082Y0373189
X0414782Y0376044
X0418382Y0374082
X0418782Y0398582
X0385182Y0402582
X0337598Y0390598
X0335Y03793
X0325Y0374253
X0326882Y0346482
X0331182Y0312982
X0285782Y0358782
X0290482Y03665
X0272782Y0354482
X0302482Y0401782
X0317982Y0410982
X0325Y0416182
X0335Y0417343
X03355Y0422843
X0331982Y0410982
X0234Y041
X02165
X0176982Y0379141
X0185942Y0361782
X01915Y0347
X0197753Y0349482
X020169Y0346482
X0208282Y0337282
X0206582Y0329682
X0215582Y0334382
X0222382Y0329482
X02205Y0325
X02185Y0321
X0218882Y0305482
X0224782Y0308082
X0238218Y0299282
X0259582Y0310082
X0254582Y0349482
X0251682Y0365182
X0174131Y0346632
X0158383Y0344382
X0155525Y0355382
X0144756Y0365008
X0118082Y0364982
X0114082Y0358882
X0122282Y0358482
X0129879Y0343579
X0143482Y0337282
X0142582Y0332766
X0145986Y0318282
X0143582Y0312482
X0133482Y0317282
X0129879Y0319282
Y0309982
X0136878Y0301182
X0172905Y0300382
X0175Y03135
X0172298Y0323998
X0163782Y0331082
X0159882Y0331682
X0187182Y0332382
X0193482Y0316882
X0206482Y0312982
X0203782Y0305582
X0199982Y0297782
X0163382Y0438082
X0139264Y0449
X0113482Y0419982
X0107082Y0425418
X0104232Y0438269
X0022182Y0404282
X0019882Y0380882
X0016882Y0311582
X0012191Y0311591
X0040782Y0311512
X00325Y03025
X0095082Y0325182
X01019Y0454
X0086382Y0467882
X0060482Y0454
X0032744Y0467144
X0023492Y0478882
X0037982Y0508182
X0064482Y0525182
X0057982Y0532682
X0089882Y0532736
X0084882Y0518482
X0110182Y0492873
X0132582Y0497882
X0127682Y0524673
X0126882Y0540421
X0113482Y0529573
X0227582Y0495761
X0381182Y0481182
X0429182Y0513382
X0449Y05525
X0483782Y0484082
X0510276Y0466118
X0519725Y0461775
X0528Y04675
T02
X0123921Y0372882
X0133921
X0143921
X0153921
X0119929Y0485303
Y0493177
Y0501051
Y0508925
Y0516799
Y0524673
Y0532547
Y0540421
Y0548295
Y0556169
X0206543
Y0548295
Y0540421
Y0532547
Y0524673
Y0516799
Y0508925
Y0501051
Y0493177
Y0485303
T03
X0521497Y00505
X0576Y0010351
X05775Y010147
X0396Y00725
X0313Y00975
X02115Y00925
X01495Y00595
X014894Y01345
X00155Y01385
X003588Y00195
X00965Y02455
X0097Y0285
X01435Y0201404
X0253Y01985
X0313Y0237912
X0465532Y0163329
X05815Y02355
X0583Y0382
X0262903Y04105
X01325Y0423
X0072941Y0387
X0073Y03635
X0085Y0342
X00765Y0312
X00245Y04235
X00565Y05645
X01675Y0567148
X02095Y0457744
X0287Y04605
X0322Y0567
X0456317Y04565
X0578Y04715
T04
X00065Y0008
Y0018
Y0028
Y0038
Y0048
Y0058
Y0068
Y0078
Y0088
Y0098
Y0108
Y0118
X00665
Y0108
Y0098
Y0088
Y0078
Y0068
Y0058
Y0048
Y0038
Y0028
Y0018
Y0008
X0321945Y0490382
X0329819
X0554109Y0489709
Y0497583
X0575882Y0497555
Y0489681
T05
X0439286Y0007451
X0449286
X0459286
X0469286
X0479286
Y001745
X0469286
X0459286
X0449286
X0439286
X0439286Y003045
X0449286
X0459286
X0469286
X0479286
Y0040451
X0469286
X0459286
X0449286
X0439286
X02915Y003925
X02815
X02715
Y000925
X02815
X02915
X027Y01375
X0239Y0124
X0229
X0219
X0209
X0199
X0189
X0169882Y0036382
Y0026382
X0170048Y0013882
X0160048
X0140215
X0130215
X0120215
X0129882Y0026382
Y0036382
X0180049Y0013882
X0200667
X0210667
X0220667
X0210667Y0026382
Y0036382
X02615Y003925
Y000925
X0099382Y0013882
X0089382
X0079382
X0089382Y0026382
Y0036382
X0066524Y0197644
Y0207644
Y0217644
Y0227644
X027Y01575
Y01475
X05625Y025
X05725
Y026
X05625
Y027
X05725
Y028
X05625
Y029
X05725
Y03
X05625
Y031
X05725
Y032
X05625
Y033
X05725
Y034
X05625
Y035
X05725
Y036
X05625
Y037
X05725
Y038
X05625
Y039
X05725
Y04
X05625
Y041
X05725
Y042
X05625
Y043
X05725
Y044
X05625
X03545Y0417343
X03445
Y0405843
X03545
X02645Y03865
Y03765
Y03665
Y03565
X01725Y0449
X01625
X01525
X0011882Y0400882
Y0390882
Y0380882
Y0370882
Y0360882
Y0350882
X00225Y0454
X00325
X00425
X00685
X00785
X00885
X0533138Y0486169
X0527626Y0505067
T06
X0023051Y0269992
Y0286961
X0011736Y0472736
Y0482736
Y0492736
Y0502736
Y0512736
Y0522736
Y0532736
Y0542736
Y0552736
Y0562736
X0100319
Y0552736
Y0542736
Y0532736
Y0522736
Y0512736
Y0502736
Y0492736
Y0482736
Y0472736
X0310547Y0511788
X0320547
X0330547
X0340547
X0464866Y0497118
Y0481118
X0512897
Y0497118
T07
X0558039Y0571618
X0577724
T08
X0510665Y0546028
X0528382Y0557838
Y0534216
T09
X0244799Y0512968
X0406295Y0579898
T10
X0211417Y0211417
X0388583
Y0388583
X0211417
M30
