%FSLAX25Y25*%
%MOIN*%
G70*
G01*
G75*
%ADD10C,0.01000*%
%ADD11C,0.00689*%
%ADD12C,0.00669*%
%ADD13C,0.00827*%
%ADD14C,0.01575*%
%ADD15C,0.00787*%
%ADD16O,0.07087X0.01181*%
%ADD17O,0.01181X0.07087*%
%ADD18R,0.04921X0.06693*%
%ADD19R,0.09843X0.07874*%
%ADD20R,0.09843X0.01969*%
%ADD21O,0.04724X0.02362*%
%ADD22R,0.00984X0.01378*%
%ADD23O,0.00984X0.01378*%
%ADD24R,0.04724X0.04724*%
%ADD25R,0.04724X0.09449*%
G04:AMPARAMS|DCode=26|XSize=70.87mil|YSize=43.31mil|CornerRadius=0mil|HoleSize=0mil|Usage=FLASHONLY|Rotation=270.000|XOffset=0mil|YOffset=0mil|HoleType=Round|Shape=Octagon|*
%AMOCTAGOND26*
4,1,8,-0.01083,-0.03543,0.01083,-0.03543,0.02165,-0.02461,0.02165,0.02461,0.01083,0.03543,-0.01083,0.03543,-0.02165,0.02461,-0.02165,-0.02461,-0.01083,-0.03543,0.0*
%
%ADD26OCTAGOND26*%

%ADD27R,0.05118X0.04134*%
%ADD28R,0.04134X0.05118*%
G04:AMPARAMS|DCode=29|XSize=39.37mil|YSize=25.59mil|CornerRadius=0mil|HoleSize=0mil|Usage=FLASHONLY|Rotation=270.000|XOffset=0mil|YOffset=0mil|HoleType=Round|Shape=Octagon|*
%AMOCTAGOND29*
4,1,8,-0.00640,-0.01969,0.00640,-0.01969,0.01280,-0.01329,0.01280,0.01329,0.00640,0.01969,-0.00640,0.01969,-0.01280,0.01329,-0.01280,-0.01329,-0.00640,-0.01969,0.0*
%
%ADD29OCTAGOND29*%

G04:AMPARAMS|DCode=30|XSize=39.37mil|YSize=19.69mil|CornerRadius=0mil|HoleSize=0mil|Usage=FLASHONLY|Rotation=270.000|XOffset=0mil|YOffset=0mil|HoleType=Round|Shape=Octagon|*
%AMOCTAGOND30*
4,1,8,-0.00492,-0.01969,0.00492,-0.01969,0.00984,-0.01476,0.00984,0.01476,0.00492,0.01969,-0.00492,0.01969,-0.00984,0.01476,-0.00984,-0.01476,-0.00492,-0.01969,0.0*
%
%ADD30OCTAGOND30*%

%ADD31R,0.05906X0.03150*%
G04:AMPARAMS|DCode=32|XSize=59.06mil|YSize=31.5mil|CornerRadius=0mil|HoleSize=0mil|Usage=FLASHONLY|Rotation=180.000|XOffset=0mil|YOffset=0mil|HoleType=Round|Shape=Octagon|*
%AMOCTAGOND32*
4,1,8,-0.02953,0.00787,-0.02953,-0.00787,-0.02165,-0.01575,0.02165,-0.01575,0.02953,-0.00787,0.02953,0.00787,0.02165,0.01575,-0.02165,0.01575,-0.02953,0.00787,0.0*
%
%ADD32OCTAGOND32*%

G04:AMPARAMS|DCode=33|XSize=78.74mil|YSize=57.09mil|CornerRadius=0mil|HoleSize=0mil|Usage=FLASHONLY|Rotation=180.000|XOffset=0mil|YOffset=0mil|HoleType=Round|Shape=Octagon|*
%AMOCTAGOND33*
4,1,8,-0.03937,0.01427,-0.03937,-0.01427,-0.02510,-0.02854,0.02510,-0.02854,0.03937,-0.01427,0.03937,0.01427,0.02510,0.02854,-0.02510,0.02854,-0.03937,0.01427,0.0*
%
%ADD33OCTAGOND33*%

G04:AMPARAMS|DCode=34|XSize=47.24mil|YSize=39.37mil|CornerRadius=0mil|HoleSize=0mil|Usage=FLASHONLY|Rotation=90.000|XOffset=0mil|YOffset=0mil|HoleType=Round|Shape=Octagon|*
%AMOCTAGOND34*
4,1,8,0.00984,0.02362,-0.00984,0.02362,-0.01969,0.01378,-0.01969,-0.01378,-0.00984,-0.02362,0.00984,-0.02362,0.01969,-0.01378,0.01969,0.01378,0.00984,0.02362,0.0*
%
%ADD34OCTAGOND34*%

%ADD35O,0.02087X0.07795*%
%ADD36R,0.02087X0.07795*%
%ADD37O,0.06102X0.00984*%
%ADD38O,0.00984X0.06102*%
%ADD39O,0.01772X0.01181*%
%ADD40R,0.01772X0.01181*%
%ADD41R,0.01181X0.01772*%
%ADD42R,0.02165X0.04134*%
%ADD43O,0.02165X0.04134*%
%ADD44R,0.01969X0.01575*%
%ADD45O,0.01969X0.01575*%
%ADD46O,0.02232X0.01181*%
%ADD47R,0.02232X0.01181*%
%ADD48R,0.01181X0.02232*%
%ADD49O,0.01181X0.01575*%
%ADD50R,0.01181X0.01575*%
%ADD51R,0.01575X0.01181*%
%ADD52R,0.07874X0.07874*%
%ADD53R,0.06693X0.04921*%
%ADD54R,0.03150X0.04724*%
%ADD55R,0.03150X0.03543*%
%ADD56R,0.04724X0.03150*%
%ADD57C,0.00650*%
%ADD58C,0.01969*%
%ADD59C,0.02362*%
%ADD60R,0.23000X0.17000*%
%ADD61R,0.05906X0.05906*%
%ADD62C,0.05906*%
%ADD63R,0.04724X0.04724*%
%ADD64C,0.04724*%
%ADD65C,0.07087*%
%ADD66R,0.07087X0.07087*%
%ADD67R,0.05906X0.05906*%
%ADD68C,0.06496*%
%ADD69R,0.06299X0.06299*%
%ADD70C,0.06299*%
%ADD71O,0.07874X0.09843*%
%ADD72C,0.07874*%
%ADD73R,0.04921X0.04921*%
%ADD74C,0.04921*%
%ADD75R,0.04921X0.04921*%
%ADD76C,0.19685*%
%ADD77C,0.02701*%
%ADD78C,0.05000*%
%ADD79C,0.03937*%
%ADD80C,0.07874*%
%ADD81C,0.02756*%
%ADD82C,0.02953*%
%ADD83C,0.05394*%
%ADD84R,0.02756X0.03150*%
%ADD85R,0.19685X0.28543*%
%ADD86R,0.08268X0.05118*%
%ADD87O,0.08268X0.05118*%
%ADD88R,0.23622X0.07874*%
%ADD89R,0.25598X0.30299*%
%ADD90R,0.04685X0.09055*%
G04:AMPARAMS|DCode=91|XSize=39.37mil|YSize=25.59mil|CornerRadius=0mil|HoleSize=0mil|Usage=FLASHONLY|Rotation=0.000|XOffset=0mil|YOffset=0mil|HoleType=Round|Shape=Octagon|*
%AMOCTAGOND91*
4,1,8,0.01969,-0.00640,0.01969,0.00640,0.01329,0.01280,-0.01329,0.01280,-0.01969,0.00640,-0.01969,-0.00640,-0.01329,-0.01280,0.01329,-0.01280,0.01969,-0.00640,0.0*
%
%ADD91OCTAGOND91*%

G04:AMPARAMS|DCode=92|XSize=39.37mil|YSize=19.69mil|CornerRadius=0mil|HoleSize=0mil|Usage=FLASHONLY|Rotation=0.000|XOffset=0mil|YOffset=0mil|HoleType=Round|Shape=Octagon|*
%AMOCTAGOND92*
4,1,8,0.01969,-0.00492,0.01969,0.00492,0.01476,0.00984,-0.01476,0.00984,-0.01969,0.00492,-0.01969,-0.00492,-0.01476,-0.00984,0.01476,-0.00984,0.01969,-0.00492,0.0*
%
%ADD92OCTAGOND92*%

%ADD93O,0.04095X0.01969*%
%ADD94R,0.04095X0.01969*%
%ADD95R,0.11000X0.15000*%
%ADD96C,0.04921*%
D16*
X384850Y263165D02*
D03*
Y265134D02*
D03*
Y267102D02*
D03*
Y269071D02*
D03*
Y271039D02*
D03*
Y273008D02*
D03*
Y274976D02*
D03*
Y276945D02*
D03*
Y278913D02*
D03*
Y280882D02*
D03*
Y282850D02*
D03*
Y284819D02*
D03*
Y286787D02*
D03*
Y288756D02*
D03*
Y290724D02*
D03*
Y292693D02*
D03*
Y294661D02*
D03*
Y296630D02*
D03*
Y298598D02*
D03*
Y300567D02*
D03*
Y302535D02*
D03*
Y304504D02*
D03*
Y306472D02*
D03*
Y308441D02*
D03*
Y310409D02*
D03*
Y312378D02*
D03*
Y314346D02*
D03*
Y316315D02*
D03*
Y318283D02*
D03*
Y320252D02*
D03*
Y322220D02*
D03*
Y324189D02*
D03*
Y326157D02*
D03*
Y328126D02*
D03*
Y330094D02*
D03*
Y332063D02*
D03*
X467921D02*
D03*
Y330094D02*
D03*
Y328126D02*
D03*
Y326157D02*
D03*
Y324189D02*
D03*
Y322220D02*
D03*
Y320252D02*
D03*
Y318283D02*
D03*
Y316315D02*
D03*
Y314346D02*
D03*
Y312378D02*
D03*
Y310409D02*
D03*
Y308441D02*
D03*
Y306472D02*
D03*
Y304504D02*
D03*
Y302535D02*
D03*
Y300567D02*
D03*
Y298598D02*
D03*
Y296630D02*
D03*
Y294661D02*
D03*
Y292693D02*
D03*
Y290724D02*
D03*
Y288756D02*
D03*
Y286787D02*
D03*
Y284819D02*
D03*
Y282850D02*
D03*
Y280882D02*
D03*
Y278913D02*
D03*
Y276945D02*
D03*
Y274976D02*
D03*
Y273008D02*
D03*
Y271039D02*
D03*
Y269071D02*
D03*
Y267102D02*
D03*
Y265134D02*
D03*
Y263165D02*
D03*
D17*
X391937Y339149D02*
D03*
X393905D02*
D03*
X395874D02*
D03*
X397842D02*
D03*
X399811D02*
D03*
X401779D02*
D03*
X403748D02*
D03*
X405716D02*
D03*
X407685D02*
D03*
X409653D02*
D03*
X411622D02*
D03*
X413590D02*
D03*
X415559D02*
D03*
X417527D02*
D03*
X419496D02*
D03*
X421464D02*
D03*
X423433D02*
D03*
X425401D02*
D03*
X427370D02*
D03*
X429338D02*
D03*
X431307D02*
D03*
X433275D02*
D03*
X435244D02*
D03*
X437212D02*
D03*
X439181D02*
D03*
X441149D02*
D03*
X443118D02*
D03*
X445086D02*
D03*
X447055D02*
D03*
X449023D02*
D03*
X450992D02*
D03*
X452960D02*
D03*
X454929D02*
D03*
X456897D02*
D03*
X458866D02*
D03*
X460835D02*
D03*
Y256079D02*
D03*
X458866D02*
D03*
X456897D02*
D03*
X454929D02*
D03*
X452960D02*
D03*
X450992D02*
D03*
X449023D02*
D03*
X447055D02*
D03*
X445086D02*
D03*
X443118D02*
D03*
X441149D02*
D03*
X439181D02*
D03*
X437212D02*
D03*
X435244D02*
D03*
X433275D02*
D03*
X431307D02*
D03*
X429338D02*
D03*
X427370D02*
D03*
X425401D02*
D03*
X423433D02*
D03*
X421464D02*
D03*
X419496D02*
D03*
X417527D02*
D03*
X415559D02*
D03*
X413590D02*
D03*
X411622D02*
D03*
X409653D02*
D03*
X407685D02*
D03*
X405716D02*
D03*
X403748D02*
D03*
X401779D02*
D03*
X399811D02*
D03*
X397842D02*
D03*
X395874D02*
D03*
X393905D02*
D03*
X391937D02*
D03*
D18*
X199993Y240998D02*
D03*
X186017D02*
D03*
X199994Y251998D02*
D03*
X186017D02*
D03*
X538012Y145000D02*
D03*
X551988D02*
D03*
D19*
X11437Y295819D02*
D03*
Y260780D02*
D03*
X32697Y295819D02*
D03*
Y260780D02*
D03*
D20*
Y284598D02*
D03*
Y281449D02*
D03*
Y278299D02*
D03*
Y275150D02*
D03*
Y272000D02*
D03*
D21*
X528000Y453851D02*
D03*
D22*
X525047Y450602D02*
D03*
D23*
X527016D02*
D03*
X528984D02*
D03*
X530953D02*
D03*
X525047Y457098D02*
D03*
X527016D02*
D03*
X528984D02*
D03*
X530953D02*
D03*
D24*
X207887Y252053D02*
D03*
Y244179D02*
D03*
D25*
X238989Y248116D02*
D03*
D26*
X22000Y336000D02*
D03*
X7433D02*
D03*
X22000Y311591D02*
D03*
X7433D02*
D03*
X407500Y8500D02*
D03*
X422067D02*
D03*
X407500Y32910D02*
D03*
X422067D02*
D03*
X355500Y8500D02*
D03*
X370067D02*
D03*
X355500Y32910D02*
D03*
X370067D02*
D03*
X306000Y8500D02*
D03*
X320567D02*
D03*
X306000Y32910D02*
D03*
X320567D02*
D03*
D27*
X237000Y15624D02*
D03*
Y24876D02*
D03*
X207382Y189508D02*
D03*
Y180256D02*
D03*
X395000Y15624D02*
D03*
Y24876D02*
D03*
X331500D02*
D03*
Y15624D02*
D03*
D28*
X129879Y323998D02*
D03*
X139131D02*
D03*
X228508Y180882D02*
D03*
X219256D02*
D03*
D29*
X62902Y281319D02*
D03*
X52862D02*
D03*
X62902Y273445D02*
D03*
X52862D02*
D03*
D30*
X59457Y281319D02*
D03*
X56307D02*
D03*
X59457Y273445D02*
D03*
X56307D02*
D03*
D31*
X40311Y167315D02*
D03*
D32*
Y162984D02*
D03*
Y158654D02*
D03*
Y154323D02*
D03*
Y149992D02*
D03*
Y145661D02*
D03*
Y141331D02*
D03*
Y137000D02*
D03*
D33*
X50547Y128500D02*
D03*
Y181886D02*
D03*
X17870Y128500D02*
D03*
Y181886D02*
D03*
D34*
X251543Y14148D02*
D03*
X244457Y26352D02*
D03*
X251543D02*
D03*
X244457Y14148D02*
D03*
X387543D02*
D03*
X380457Y26352D02*
D03*
X387543D02*
D03*
X380457Y14148D02*
D03*
X346043D02*
D03*
X338957Y26353D02*
D03*
X346043D02*
D03*
X338957Y14148D02*
D03*
D35*
X335000Y405252D02*
D03*
X330000D02*
D03*
X325000D02*
D03*
X320000D02*
D03*
X335000Y385843D02*
D03*
X330000D02*
D03*
X325000D02*
D03*
D36*
X320000D02*
D03*
D37*
X211631Y331620D02*
D03*
Y329651D02*
D03*
Y327683D02*
D03*
Y325714D02*
D03*
Y323746D02*
D03*
Y321778D02*
D03*
Y319809D02*
D03*
Y317841D02*
D03*
Y315872D02*
D03*
Y313903D02*
D03*
Y311935D02*
D03*
Y309966D02*
D03*
Y307998D02*
D03*
Y306030D02*
D03*
Y304061D02*
D03*
Y302093D02*
D03*
Y300124D02*
D03*
Y298155D02*
D03*
Y296187D02*
D03*
Y294218D02*
D03*
Y292250D02*
D03*
Y290282D02*
D03*
Y288313D02*
D03*
Y286345D02*
D03*
Y284376D02*
D03*
X152379D02*
D03*
Y286345D02*
D03*
Y288313D02*
D03*
Y290282D02*
D03*
Y292250D02*
D03*
Y294218D02*
D03*
Y296187D02*
D03*
Y298155D02*
D03*
Y300124D02*
D03*
Y302093D02*
D03*
Y304061D02*
D03*
Y306030D02*
D03*
Y307998D02*
D03*
Y309966D02*
D03*
Y311935D02*
D03*
Y313903D02*
D03*
Y315872D02*
D03*
Y317841D02*
D03*
Y319809D02*
D03*
Y321778D02*
D03*
Y323746D02*
D03*
Y325714D02*
D03*
Y327683D02*
D03*
Y329651D02*
D03*
Y331620D02*
D03*
D38*
X205627Y278372D02*
D03*
X203659D02*
D03*
X201690D02*
D03*
X199722D02*
D03*
X197753D02*
D03*
X195785D02*
D03*
X193816D02*
D03*
X191848D02*
D03*
X189879D02*
D03*
X187911D02*
D03*
X185942D02*
D03*
X183974D02*
D03*
X182005D02*
D03*
X180037D02*
D03*
X178068D02*
D03*
X176100D02*
D03*
X174131D02*
D03*
X172163D02*
D03*
X170194D02*
D03*
X168226D02*
D03*
X166257D02*
D03*
X164289D02*
D03*
X162320D02*
D03*
X160352D02*
D03*
X158383D02*
D03*
Y337624D02*
D03*
X160352D02*
D03*
X162320D02*
D03*
X164289D02*
D03*
X166257D02*
D03*
X168226D02*
D03*
X170194D02*
D03*
X172163D02*
D03*
X174131D02*
D03*
X176100D02*
D03*
X178068D02*
D03*
X180037D02*
D03*
X182005D02*
D03*
X183974D02*
D03*
X185942D02*
D03*
X187911D02*
D03*
X189879D02*
D03*
X191848D02*
D03*
X193816D02*
D03*
X195785D02*
D03*
X197753D02*
D03*
X199722D02*
D03*
X201690D02*
D03*
X203659D02*
D03*
X205627D02*
D03*
D39*
X210882Y169882D02*
D03*
D40*
Y167913D02*
D03*
Y165945D02*
D03*
Y163977D02*
D03*
X220921D02*
D03*
Y165945D02*
D03*
Y167913D02*
D03*
Y169882D02*
D03*
D41*
X212949Y161909D02*
D03*
X214917D02*
D03*
X216886D02*
D03*
X218854D02*
D03*
Y171949D02*
D03*
X216886D02*
D03*
X214917D02*
D03*
X212949D02*
D03*
D42*
X18000Y198150D02*
D03*
D43*
X22921D02*
D03*
X27843D02*
D03*
X32764D02*
D03*
X18000Y206614D02*
D03*
X22921D02*
D03*
X27843D02*
D03*
X32764D02*
D03*
D44*
X45988Y221382D02*
D03*
X525630Y134500D02*
D03*
D45*
X45988Y226382D02*
D03*
Y231382D02*
D03*
Y236382D02*
D03*
X17248Y221382D02*
D03*
Y226382D02*
D03*
Y231382D02*
D03*
Y236382D02*
D03*
X525630Y129500D02*
D03*
Y124500D02*
D03*
Y119500D02*
D03*
X554370Y134500D02*
D03*
Y129500D02*
D03*
Y124500D02*
D03*
Y119500D02*
D03*
D46*
X543907Y185607D02*
D03*
D47*
Y187576D02*
D03*
Y189544D02*
D03*
Y191513D02*
D03*
Y193481D02*
D03*
X534329D02*
D03*
Y191513D02*
D03*
Y189544D02*
D03*
Y187576D02*
D03*
Y185607D02*
D03*
D48*
X541086Y194007D02*
D03*
X539118D02*
D03*
X537149D02*
D03*
Y185080D02*
D03*
X539118D02*
D03*
X541086D02*
D03*
D49*
X540500Y77000D02*
D03*
D50*
X537941D02*
D03*
X535382D02*
D03*
X532823D02*
D03*
Y63221D02*
D03*
X535382D02*
D03*
X537941D02*
D03*
X540500D02*
D03*
D51*
X529772Y73949D02*
D03*
Y71390D02*
D03*
Y68831D02*
D03*
Y66272D02*
D03*
X543551D02*
D03*
Y68831D02*
D03*
Y71390D02*
D03*
Y73949D02*
D03*
D52*
X494256Y466118D02*
D03*
X478508D02*
D03*
D53*
X344000Y395331D02*
D03*
Y381354D02*
D03*
X466786Y70439D02*
D03*
Y56463D02*
D03*
X195882Y154394D02*
D03*
Y168370D02*
D03*
X33000Y310012D02*
D03*
Y323988D02*
D03*
D54*
X234230Y303498D02*
D03*
X224781D02*
D03*
D55*
X239500Y168043D02*
D03*
Y160957D02*
D03*
D56*
X231382Y159658D02*
D03*
Y169106D02*
D03*
D61*
X172500Y449000D02*
D03*
X22500Y454000D02*
D03*
X68500D02*
D03*
X344500Y405843D02*
D03*
Y417343D02*
D03*
X439286Y7451D02*
D03*
X439286Y30450D02*
D03*
X160048Y13882D02*
D03*
X120215D02*
D03*
X200667D02*
D03*
X79382D02*
D03*
X239000Y124000D02*
D03*
D62*
X162500Y449000D02*
D03*
X152500D02*
D03*
X32500Y454000D02*
D03*
X42500D02*
D03*
X78500D02*
D03*
X88500D02*
D03*
X271500Y9250D02*
D03*
X281500D02*
D03*
X291500D02*
D03*
X261500Y39250D02*
D03*
X271500D02*
D03*
X281500D02*
D03*
X291500D02*
D03*
X354500Y405843D02*
D03*
Y417343D02*
D03*
X169882Y26382D02*
D03*
X210667D02*
D03*
X129882D02*
D03*
X89382D02*
D03*
X479286Y17450D02*
D03*
Y7451D02*
D03*
X469286Y17450D02*
D03*
Y7451D02*
D03*
X459286Y17450D02*
D03*
Y7451D02*
D03*
X449286Y17450D02*
D03*
Y7451D02*
D03*
X439286Y17450D02*
D03*
X479286Y40451D02*
D03*
Y30450D02*
D03*
X469286Y40451D02*
D03*
Y30450D02*
D03*
X459286Y40451D02*
D03*
Y30450D02*
D03*
X449286Y40451D02*
D03*
Y30450D02*
D03*
X439286Y40451D02*
D03*
X11882Y350882D02*
D03*
Y360882D02*
D03*
Y370882D02*
D03*
Y380882D02*
D03*
Y390882D02*
D03*
X572500Y250000D02*
D03*
X562500D02*
D03*
X572500Y260000D02*
D03*
X562500D02*
D03*
X572500Y270000D02*
D03*
X562500D02*
D03*
X572500Y280000D02*
D03*
X562500D02*
D03*
X572500Y290000D02*
D03*
X562500D02*
D03*
X572500Y300000D02*
D03*
X562500D02*
D03*
X572500Y310000D02*
D03*
X562500D02*
D03*
X572500Y320000D02*
D03*
X562500D02*
D03*
X572500Y330000D02*
D03*
X562500D02*
D03*
X572500Y340000D02*
D03*
X562500D02*
D03*
X572500Y350000D02*
D03*
X562500D02*
D03*
X572500Y360000D02*
D03*
X562500D02*
D03*
X572500Y370000D02*
D03*
X562500D02*
D03*
X572500Y380000D02*
D03*
X562500D02*
D03*
X572500Y390000D02*
D03*
X562500D02*
D03*
X572500Y400000D02*
D03*
X562500D02*
D03*
X572500Y410000D02*
D03*
X562500D02*
D03*
X572500Y420000D02*
D03*
X562500D02*
D03*
X572500Y430000D02*
D03*
X562500D02*
D03*
X572500Y440000D02*
D03*
X170048Y13882D02*
D03*
X180049D02*
D03*
X130215D02*
D03*
X140215D02*
D03*
X210667D02*
D03*
X220667D02*
D03*
X89382D02*
D03*
X99382D02*
D03*
X229000Y124000D02*
D03*
X219000D02*
D03*
X209000D02*
D03*
X199000D02*
D03*
X189000D02*
D03*
X264500Y356500D02*
D03*
Y366500D02*
D03*
Y376500D02*
D03*
X270000Y147500D02*
D03*
Y157500D02*
D03*
X66524Y227644D02*
D03*
Y217644D02*
D03*
Y207644D02*
D03*
X533138Y486169D02*
D03*
X527626Y505067D02*
D03*
D63*
X119929Y556169D02*
D03*
X66500Y8000D02*
D03*
D64*
X119929Y548295D02*
D03*
Y540421D02*
D03*
Y532547D02*
D03*
Y524673D02*
D03*
Y516799D02*
D03*
Y508925D02*
D03*
Y501051D02*
D03*
Y493177D02*
D03*
Y485303D02*
D03*
X206543Y556169D02*
D03*
Y548295D02*
D03*
Y540421D02*
D03*
Y532547D02*
D03*
Y524673D02*
D03*
Y516799D02*
D03*
Y508925D02*
D03*
Y501051D02*
D03*
Y493177D02*
D03*
Y485303D02*
D03*
X66500Y18000D02*
D03*
Y28000D02*
D03*
Y38000D02*
D03*
Y48000D02*
D03*
Y58000D02*
D03*
Y68000D02*
D03*
Y78000D02*
D03*
Y88000D02*
D03*
Y98000D02*
D03*
Y108000D02*
D03*
Y118000D02*
D03*
X6500Y8000D02*
D03*
Y18000D02*
D03*
Y28000D02*
D03*
Y38000D02*
D03*
Y48000D02*
D03*
Y58000D02*
D03*
Y68000D02*
D03*
Y78000D02*
D03*
Y88000D02*
D03*
Y98000D02*
D03*
Y108000D02*
D03*
Y118000D02*
D03*
D65*
X100319Y472736D02*
D03*
Y482736D02*
D03*
Y492736D02*
D03*
Y502736D02*
D03*
Y512736D02*
D03*
Y522736D02*
D03*
Y532736D02*
D03*
Y542736D02*
D03*
Y552736D02*
D03*
Y562736D02*
D03*
X11736Y472736D02*
D03*
Y482736D02*
D03*
Y492736D02*
D03*
Y502736D02*
D03*
Y512736D02*
D03*
Y522736D02*
D03*
Y532736D02*
D03*
Y542736D02*
D03*
Y552736D02*
D03*
D66*
Y562736D02*
D03*
D67*
X261500Y9250D02*
D03*
X169882Y36382D02*
D03*
X210667D02*
D03*
X129882D02*
D03*
X89382D02*
D03*
X11882Y400882D02*
D03*
X562500Y440000D02*
D03*
X264500Y386500D02*
D03*
X270000Y137500D02*
D03*
X66524Y197644D02*
D03*
D68*
X512897Y481118D02*
D03*
X464866D02*
D03*
Y497118D02*
D03*
X512897D02*
D03*
D69*
X153921Y372882D02*
D03*
X310547Y511788D02*
D03*
D70*
X143921Y372882D02*
D03*
X133921D02*
D03*
X123921D02*
D03*
X340547Y511788D02*
D03*
X330547D02*
D03*
X320547D02*
D03*
D71*
X558039Y571618D02*
D03*
X577724D02*
D03*
D72*
X528382Y557838D02*
D03*
Y534216D02*
D03*
X510665Y546028D02*
D03*
D73*
X575882Y497555D02*
D03*
X554109Y497583D02*
D03*
D74*
X575882Y489681D02*
D03*
X554109Y489709D02*
D03*
X329819Y490382D02*
D03*
D75*
X321945D02*
D03*
D76*
X388583Y388583D02*
D03*
Y211417D02*
D03*
X211417Y388583D02*
D03*
Y211417D02*
D03*
M02*
