%FSLAX25Y25*%
%MOIN*%
G70*
G01*
G75*
%ADD10C,0.01000*%
%ADD11C,0.00689*%
%ADD12C,0.00669*%
%ADD13C,0.00827*%
%ADD14C,0.01575*%
%ADD15C,0.00787*%
%ADD16O,0.07087X0.01181*%
%ADD17O,0.01181X0.07087*%
%ADD18R,0.04921X0.06693*%
%ADD19R,0.09843X0.07874*%
%ADD20R,0.09843X0.01969*%
%ADD21O,0.04724X0.02362*%
%ADD22R,0.00984X0.01378*%
%ADD23O,0.00984X0.01378*%
%ADD24R,0.04724X0.04724*%
%ADD25R,0.04724X0.09449*%
G04:AMPARAMS|DCode=26|XSize=70.87mil|YSize=43.31mil|CornerRadius=0mil|HoleSize=0mil|Usage=FLASHONLY|Rotation=270.000|XOffset=0mil|YOffset=0mil|HoleType=Round|Shape=Octagon|*
%AMOCTAGOND26*
4,1,8,-0.01083,-0.03543,0.01083,-0.03543,0.02165,-0.02461,0.02165,0.02461,0.01083,0.03543,-0.01083,0.03543,-0.02165,0.02461,-0.02165,-0.02461,-0.01083,-0.03543,0.0*
%
%ADD26OCTAGOND26*%

%ADD27R,0.05118X0.04134*%
%ADD28R,0.04134X0.05118*%
G04:AMPARAMS|DCode=29|XSize=39.37mil|YSize=25.59mil|CornerRadius=0mil|HoleSize=0mil|Usage=FLASHONLY|Rotation=270.000|XOffset=0mil|YOffset=0mil|HoleType=Round|Shape=Octagon|*
%AMOCTAGOND29*
4,1,8,-0.00640,-0.01969,0.00640,-0.01969,0.01280,-0.01329,0.01280,0.01329,0.00640,0.01969,-0.00640,0.01969,-0.01280,0.01329,-0.01280,-0.01329,-0.00640,-0.01969,0.0*
%
%ADD29OCTAGOND29*%

G04:AMPARAMS|DCode=30|XSize=39.37mil|YSize=19.69mil|CornerRadius=0mil|HoleSize=0mil|Usage=FLASHONLY|Rotation=270.000|XOffset=0mil|YOffset=0mil|HoleType=Round|Shape=Octagon|*
%AMOCTAGOND30*
4,1,8,-0.00492,-0.01969,0.00492,-0.01969,0.00984,-0.01476,0.00984,0.01476,0.00492,0.01969,-0.00492,0.01969,-0.00984,0.01476,-0.00984,-0.01476,-0.00492,-0.01969,0.0*
%
%ADD30OCTAGOND30*%

%ADD31R,0.05906X0.03150*%
G04:AMPARAMS|DCode=32|XSize=59.06mil|YSize=31.5mil|CornerRadius=0mil|HoleSize=0mil|Usage=FLASHONLY|Rotation=180.000|XOffset=0mil|YOffset=0mil|HoleType=Round|Shape=Octagon|*
%AMOCTAGOND32*
4,1,8,-0.02953,0.00787,-0.02953,-0.00787,-0.02165,-0.01575,0.02165,-0.01575,0.02953,-0.00787,0.02953,0.00787,0.02165,0.01575,-0.02165,0.01575,-0.02953,0.00787,0.0*
%
%ADD32OCTAGOND32*%

G04:AMPARAMS|DCode=33|XSize=78.74mil|YSize=57.09mil|CornerRadius=0mil|HoleSize=0mil|Usage=FLASHONLY|Rotation=180.000|XOffset=0mil|YOffset=0mil|HoleType=Round|Shape=Octagon|*
%AMOCTAGOND33*
4,1,8,-0.03937,0.01427,-0.03937,-0.01427,-0.02510,-0.02854,0.02510,-0.02854,0.03937,-0.01427,0.03937,0.01427,0.02510,0.02854,-0.02510,0.02854,-0.03937,0.01427,0.0*
%
%ADD33OCTAGOND33*%

G04:AMPARAMS|DCode=34|XSize=47.24mil|YSize=39.37mil|CornerRadius=0mil|HoleSize=0mil|Usage=FLASHONLY|Rotation=90.000|XOffset=0mil|YOffset=0mil|HoleType=Round|Shape=Octagon|*
%AMOCTAGOND34*
4,1,8,0.00984,0.02362,-0.00984,0.02362,-0.01969,0.01378,-0.01969,-0.01378,-0.00984,-0.02362,0.00984,-0.02362,0.01969,-0.01378,0.01969,0.01378,0.00984,0.02362,0.0*
%
%ADD34OCTAGOND34*%

%ADD35O,0.02087X0.07795*%
%ADD36R,0.02087X0.07795*%
%ADD37O,0.06102X0.00984*%
%ADD38O,0.00984X0.06102*%
%ADD39O,0.01772X0.01181*%
%ADD40R,0.01772X0.01181*%
%ADD41R,0.01181X0.01772*%
%ADD42R,0.02165X0.04134*%
%ADD43O,0.02165X0.04134*%
%ADD44R,0.01969X0.01575*%
%ADD45O,0.01969X0.01575*%
%ADD46O,0.02232X0.01181*%
%ADD47R,0.02232X0.01181*%
%ADD48R,0.01181X0.02232*%
%ADD49O,0.01181X0.01575*%
%ADD50R,0.01181X0.01575*%
%ADD51R,0.01575X0.01181*%
%ADD52R,0.07874X0.07874*%
%ADD53R,0.06693X0.04921*%
%ADD54R,0.03150X0.04724*%
%ADD55R,0.03150X0.03543*%
%ADD56R,0.04724X0.03150*%
%ADD57C,0.00650*%
%ADD58C,0.01969*%
%ADD59C,0.02362*%
%ADD60R,0.23000X0.17000*%
%ADD61R,0.05906X0.05906*%
%ADD62C,0.05906*%
%ADD63R,0.04724X0.04724*%
%ADD64C,0.04724*%
%ADD65C,0.07087*%
%ADD66R,0.07087X0.07087*%
%ADD67R,0.05906X0.05906*%
%ADD68C,0.06496*%
%ADD69R,0.06299X0.06299*%
%ADD70C,0.06299*%
%ADD71O,0.07874X0.09843*%
%ADD72C,0.07874*%
%ADD73R,0.04921X0.04921*%
%ADD74C,0.04921*%
%ADD75R,0.04921X0.04921*%
%ADD76C,0.19685*%
%ADD77C,0.02701*%
%ADD78C,0.05000*%
%ADD79C,0.03937*%
%ADD80C,0.07874*%
%ADD81C,0.02756*%
%ADD82C,0.02953*%
%ADD83C,0.05394*%
%ADD84R,0.02756X0.03150*%
%ADD85R,0.19685X0.28543*%
%ADD86R,0.08268X0.05118*%
%ADD87O,0.08268X0.05118*%
%ADD88R,0.23622X0.07874*%
%ADD89R,0.25598X0.30299*%
%ADD90R,0.04685X0.09055*%
G04:AMPARAMS|DCode=91|XSize=39.37mil|YSize=25.59mil|CornerRadius=0mil|HoleSize=0mil|Usage=FLASHONLY|Rotation=0.000|XOffset=0mil|YOffset=0mil|HoleType=Round|Shape=Octagon|*
%AMOCTAGOND91*
4,1,8,0.01969,-0.00640,0.01969,0.00640,0.01329,0.01280,-0.01329,0.01280,-0.01969,0.00640,-0.01969,-0.00640,-0.01329,-0.01280,0.01329,-0.01280,0.01969,-0.00640,0.0*
%
%ADD91OCTAGOND91*%

G04:AMPARAMS|DCode=92|XSize=39.37mil|YSize=19.69mil|CornerRadius=0mil|HoleSize=0mil|Usage=FLASHONLY|Rotation=0.000|XOffset=0mil|YOffset=0mil|HoleType=Round|Shape=Octagon|*
%AMOCTAGOND92*
4,1,8,0.01969,-0.00492,0.01969,0.00492,0.01476,0.00984,-0.01476,0.00984,-0.01969,0.00492,-0.01969,-0.00492,-0.01476,-0.00984,0.01476,-0.00984,0.01969,-0.00492,0.0*
%
%ADD92OCTAGOND92*%

%ADD93O,0.04095X0.01969*%
%ADD94R,0.04095X0.01969*%
%ADD95R,0.11000X0.15000*%
%ADD96C,0.04921*%
%ADD97C,0.00984*%
%ADD98C,0.00394*%
%ADD99C,0.00197*%
%ADD100C,0.00800*%
%ADD101C,0.00591*%
D10*
X17854Y323500D02*
G03*
X17854Y323500I-3354J0D01*
G01*
X418354Y21000D02*
G03*
X418354Y21000I-3354J0D01*
G01*
X366354Y21000D02*
G03*
X366354Y21000I-3354J0D01*
G01*
X316854D02*
G03*
X316854Y21000I-3354J0D01*
G01*
X408461Y546433D02*
G03*
X408461Y546433I-31496J0D01*
G01*
X305626D02*
G03*
X305626Y546433I-31496J0D01*
G01*
X96224Y587236D02*
Y591173D01*
X68173D02*
Y616764D01*
X92779D01*
Y591173D02*
Y616764D01*
X64728Y591173D02*
X96224D01*
X64728Y587236D02*
Y591173D01*
X112563Y461252D02*
Y587236D01*
X1736Y461252D02*
X112563D01*
X1736D02*
Y587236D01*
X112563D01*
X17000Y331000D02*
X19500Y328500D01*
Y318500D02*
Y328500D01*
X17000Y316000D02*
X19500Y318500D01*
X12000Y316000D02*
X17000D01*
X9500Y318500D02*
X12000Y316000D01*
X9500Y318500D02*
Y328500D01*
X12000Y331000D01*
X17000D01*
X410000Y16000D02*
X412500Y13500D01*
X410000Y16000D02*
Y26000D01*
X412500Y28500D01*
X417500D01*
X420000Y26000D01*
Y16000D02*
Y26000D01*
X417500Y13500D02*
X420000Y16000D01*
X412500Y13500D02*
X417500D01*
X358000Y16000D02*
X360500Y13500D01*
X358000Y16000D02*
Y26000D01*
X360500Y28500D01*
X365500D01*
X368000Y26000D01*
Y16000D02*
Y26000D01*
X365500Y13500D02*
X368000Y16000D01*
X360500Y13500D02*
X365500D01*
X308500Y16000D02*
X311000Y13500D01*
X308500Y16000D02*
Y26000D01*
X311000Y28500D01*
X316000D01*
X318500Y26000D01*
Y16000D02*
Y26000D01*
X316000Y13500D02*
X318500Y16000D01*
X311000Y13500D02*
X316000D01*
X108961Y362882D02*
Y393394D01*
X168882D01*
Y362882D02*
Y393394D01*
X108961Y362882D02*
X168882D01*
X237713Y505882D02*
X413382D01*
Y586984D01*
X237713Y505882D02*
Y586984D01*
X413382D01*
X555382Y584118D02*
X557882Y586618D01*
X555382Y584118D02*
X560382D01*
X557882Y586618D02*
X560382Y584118D01*
X575382D02*
X577882Y586618D01*
X575382Y584118D02*
X580382D01*
X577882Y586618D02*
X580382Y584118D01*
X528501Y143002D02*
X529501Y142002D01*
X531500D01*
X532500Y143002D01*
Y147000D01*
X531500Y148000D01*
X529501D01*
X528501Y147000D01*
X526502Y143002D02*
X525502Y142002D01*
X523503D01*
X522503Y143002D01*
Y144001D01*
X523503Y145001D01*
X522503Y146001D01*
Y147000D01*
X523503Y148000D01*
X525502D01*
X526502Y147000D01*
Y146001D01*
X525502Y145001D01*
X526502Y144001D01*
Y143002D01*
X525502Y145001D02*
X523503D01*
X338384Y486881D02*
X337384Y485881D01*
Y483882D01*
X338384Y482882D01*
X342382D01*
X343382Y483882D01*
Y485881D01*
X342382Y486881D01*
X343382Y488880D02*
Y490879D01*
Y489880D01*
X337384D01*
X338384Y488880D01*
Y493878D02*
X337384Y494878D01*
Y496877D01*
X338384Y497877D01*
X342382D01*
X343382Y496877D01*
Y494878D01*
X342382Y493878D01*
X338384D01*
X44998Y317001D02*
X45998Y318001D01*
Y320000D01*
X44998Y321000D01*
X41000D01*
X40000Y320000D01*
Y318001D01*
X41000Y317001D01*
X40000Y315002D02*
Y313003D01*
Y314002D01*
X45998D01*
X44998Y315002D01*
X45998Y306005D02*
Y310004D01*
X42999D01*
X43999Y308004D01*
Y307004D01*
X42999Y306005D01*
X41000D01*
X40000Y307004D01*
Y309004D01*
X41000Y310004D01*
X228383Y143381D02*
X227384Y142381D01*
Y140382D01*
X228383Y139382D01*
X232382D01*
X233382Y140382D01*
Y142381D01*
X232382Y143381D01*
X233382Y149379D02*
Y145380D01*
X229383Y149379D01*
X228383D01*
X227384Y148379D01*
Y146380D01*
X228383Y145380D01*
Y151378D02*
X227384Y152378D01*
Y154377D01*
X228383Y155377D01*
X232382D01*
X233382Y154377D01*
Y152378D01*
X232382Y151378D01*
X228383D01*
X186880Y158883D02*
X187880Y159883D01*
Y161882D01*
X186880Y162882D01*
X182882D01*
X181882Y161882D01*
Y159883D01*
X182882Y158883D01*
X181882Y152885D02*
Y156884D01*
X185881Y152885D01*
X186880D01*
X187880Y153885D01*
Y155884D01*
X186880Y156884D01*
X181882Y150886D02*
Y148886D01*
Y149886D01*
X187880D01*
X186880Y150886D01*
X237502Y142999D02*
X236502Y141999D01*
Y140000D01*
X237502Y139000D01*
X241500D01*
X242500Y140000D01*
Y141999D01*
X241500Y142999D01*
X242500Y148997D02*
Y144998D01*
X238501Y148997D01*
X237502D01*
X236502Y147997D01*
Y145998D01*
X237502Y144998D01*
X242500Y154995D02*
Y150996D01*
X238501Y154995D01*
X237502D01*
X236502Y153995D01*
Y151996D01*
X237502Y150996D01*
X226004Y313996D02*
X225004Y314996D01*
X223005D01*
X222005Y313996D01*
Y309998D01*
X223005Y308998D01*
X225004D01*
X226004Y309998D01*
X228003Y313996D02*
X229003Y314996D01*
X231002D01*
X232002Y313996D01*
Y312997D01*
X231002Y311997D01*
X230003D01*
X231002D01*
X232002Y310997D01*
Y309998D01*
X231002Y308998D01*
X229003D01*
X228003Y309998D01*
X234001Y313996D02*
X235001Y314996D01*
X237000D01*
X238000Y313996D01*
Y309998D01*
X237000Y308998D01*
X235001D01*
X234001Y309998D01*
Y313996D01*
X168504Y253496D02*
X167504Y254496D01*
X165505D01*
X164505Y253496D01*
Y249498D01*
X165505Y248498D01*
X167504D01*
X168504Y249498D01*
X170503Y253496D02*
X171503Y254496D01*
X173502D01*
X174502Y253496D01*
Y252497D01*
X173502Y251497D01*
X172503D01*
X173502D01*
X174502Y250497D01*
Y249498D01*
X173502Y248498D01*
X171503D01*
X170503Y249498D01*
X179500Y248498D02*
Y254496D01*
X176501Y251497D01*
X180500D01*
X558383Y512120D02*
X559383Y511120D01*
X561382D01*
X562382Y512120D01*
Y516118D01*
X561382Y517118D01*
X559383D01*
X558383Y516118D01*
X556384Y512120D02*
X555384Y511120D01*
X553385D01*
X552385Y512120D01*
Y513119D01*
X553385Y514119D01*
X554385D01*
X553385D01*
X552385Y515119D01*
Y516118D01*
X553385Y517118D01*
X555384D01*
X556384Y516118D01*
X546387Y511120D02*
X548386Y512120D01*
X550386Y514119D01*
Y516118D01*
X549386Y517118D01*
X547387D01*
X546387Y516118D01*
Y515119D01*
X547387Y514119D01*
X550386D01*
X580383Y512120D02*
X581383Y511120D01*
X583382D01*
X584382Y512120D01*
Y516118D01*
X583382Y517118D01*
X581383D01*
X580383Y516118D01*
X578384Y512120D02*
X577384Y511120D01*
X575385D01*
X574385Y512120D01*
Y513119D01*
X575385Y514119D01*
X576384D01*
X575385D01*
X574385Y515119D01*
Y516118D01*
X575385Y517118D01*
X577384D01*
X578384Y516118D01*
X572386Y511120D02*
X568387D01*
Y512120D01*
X572386Y516118D01*
Y517118D01*
X534383Y511120D02*
X535383Y510120D01*
X537382D01*
X538382Y511120D01*
Y515118D01*
X537382Y516118D01*
X535383D01*
X534383Y515118D01*
X532384Y511120D02*
X531384Y510120D01*
X529385D01*
X528385Y511120D01*
Y512119D01*
X529385Y513119D01*
X530384D01*
X529385D01*
X528385Y514119D01*
Y515118D01*
X529385Y516118D01*
X531384D01*
X532384Y515118D01*
X526386Y511120D02*
X525386Y510120D01*
X523387D01*
X522387Y511120D01*
Y512119D01*
X523387Y513119D01*
X522387Y514119D01*
Y515118D01*
X523387Y516118D01*
X525386D01*
X526386Y515118D01*
Y514119D01*
X525386Y513119D01*
X526386Y512119D01*
Y511120D01*
X525386Y513119D02*
X523387D01*
X458998Y67501D02*
X459998Y68501D01*
Y70500D01*
X458998Y71500D01*
X455000D01*
X454000Y70500D01*
Y68501D01*
X455000Y67501D01*
X459998Y61503D02*
X458998Y63503D01*
X456999Y65502D01*
X455000D01*
X454000Y64502D01*
Y62503D01*
X455000Y61503D01*
X455999D01*
X456999Y62503D01*
Y65502D01*
X454000Y56505D02*
X459998D01*
X456999Y59504D01*
Y55505D01*
X355499Y392049D02*
X356498Y393048D01*
Y395048D01*
X355499Y396047D01*
X351500D01*
X350500Y395048D01*
Y393048D01*
X351500Y392049D01*
X356498Y390049D02*
Y386051D01*
X355499D01*
X351500Y390049D01*
X350500D01*
X355499Y384051D02*
X356498Y383051D01*
Y381052D01*
X355499Y380052D01*
X354499D01*
X353499Y381052D01*
X352500Y380052D01*
X351500D01*
X350500Y381052D01*
Y383051D01*
X351500Y384051D01*
X352500D01*
X353499Y383051D01*
X354499Y384051D01*
X355499D01*
X353499Y383051D02*
Y381052D01*
X478882Y458116D02*
Y452118D01*
X481881D01*
X482881Y453118D01*
Y457117D01*
X481881Y458116D01*
X478882D01*
X488879Y452118D02*
X484880D01*
X488879Y456117D01*
Y457117D01*
X487879Y458116D01*
X485880D01*
X484880Y457117D01*
X79880Y208283D02*
X80880Y209283D01*
Y211282D01*
X79880Y212282D01*
X78881D01*
X77881Y211282D01*
Y209283D01*
X76881Y208283D01*
X75882D01*
X74882Y209283D01*
Y211282D01*
X75882Y212282D01*
X74882Y206284D02*
X80880D01*
Y203285D01*
X79880Y202285D01*
X77881D01*
X76881Y203285D01*
Y206284D01*
X80880Y200286D02*
Y198286D01*
Y199286D01*
X74882D01*
Y200286D01*
Y198286D01*
Y195287D02*
Y193288D01*
Y194288D01*
X80880D01*
X79880Y195287D01*
X284398Y152100D02*
Y150101D01*
Y151100D01*
X278400D01*
Y152100D01*
Y150101D01*
Y143103D02*
Y147102D01*
X282399Y143103D01*
X283398D01*
X284398Y144103D01*
Y146102D01*
X283398Y147102D01*
Y137105D02*
X284398Y138104D01*
Y140104D01*
X283398Y141104D01*
X279400D01*
X278400Y140104D01*
Y138104D01*
X279400Y137105D01*
X278400Y135106D02*
Y133106D01*
Y134106D01*
X284398D01*
X283398Y135106D01*
X149500Y442498D02*
Y437500D01*
X150500Y436500D01*
X152499D01*
X153499Y437500D01*
Y442498D01*
X155498Y436500D02*
Y440499D01*
X157497Y442498D01*
X159497Y440499D01*
Y436500D01*
Y439499D01*
X155498D01*
X161496Y436500D02*
Y442498D01*
X164495D01*
X165495Y441498D01*
Y439499D01*
X164495Y438499D01*
X161496D01*
X163496D02*
X165495Y436500D01*
X167494Y442498D02*
X171493D01*
X169493D01*
Y436500D01*
X173492D02*
X175492D01*
X174492D01*
Y442498D01*
X173492Y441498D01*
X277880Y369083D02*
X278880Y370083D01*
Y372082D01*
X277880Y373082D01*
X276881D01*
X275881Y372082D01*
Y370083D01*
X274881Y369083D01*
X273882D01*
X272882Y370083D01*
Y372082D01*
X273882Y373082D01*
X272882Y367084D02*
X278880D01*
Y364085D01*
X277880Y363085D01*
X275881D01*
X274881Y364085D01*
Y367084D01*
X278880Y361086D02*
Y359086D01*
Y360086D01*
X272882D01*
Y361086D01*
Y359086D01*
Y352089D02*
Y356087D01*
X276881Y352089D01*
X277880D01*
X278880Y353088D01*
Y355088D01*
X277880Y356087D01*
X64500Y446998D02*
Y442000D01*
X65500Y441000D01*
X67499D01*
X68499Y442000D01*
Y446998D01*
X70498Y441000D02*
Y444999D01*
X72497Y446998D01*
X74497Y444999D01*
Y441000D01*
Y443999D01*
X70498D01*
X76496Y441000D02*
Y446998D01*
X79495D01*
X80495Y445998D01*
Y443999D01*
X79495Y442999D01*
X76496D01*
X78496D02*
X80495Y441000D01*
X82494Y446998D02*
X86493D01*
X84493D01*
Y441000D01*
X92491D02*
X88492D01*
X92491Y444999D01*
Y445998D01*
X91491Y446998D01*
X89492D01*
X88492Y445998D01*
X18000Y447498D02*
Y442500D01*
X19000Y441500D01*
X20999D01*
X21999Y442500D01*
Y447498D01*
X23998Y441500D02*
Y445499D01*
X25997Y447498D01*
X27997Y445499D01*
Y441500D01*
Y444499D01*
X23998D01*
X29996Y441500D02*
Y447498D01*
X32995D01*
X33995Y446498D01*
Y444499D01*
X32995Y443499D01*
X29996D01*
X31995D02*
X33995Y441500D01*
X35994Y447498D02*
X39993D01*
X37993D01*
Y441500D01*
X45991Y447498D02*
X41992D01*
Y444499D01*
X43992Y445499D01*
X44991D01*
X45991Y444499D01*
Y442500D01*
X44991Y441500D01*
X42992D01*
X41992Y442500D01*
X184000Y137498D02*
Y131500D01*
Y134499D01*
X187999D01*
Y137498D01*
Y131500D01*
X192997D02*
X190998D01*
X189998Y132500D01*
Y134499D01*
X190998Y135499D01*
X192997D01*
X193997Y134499D01*
Y133499D01*
X189998D01*
X196996Y135499D02*
X198995D01*
X199995Y134499D01*
Y131500D01*
X196996D01*
X195996Y132500D01*
X196996Y133499D01*
X199995D01*
X205993Y137498D02*
Y131500D01*
X202994D01*
X201994Y132500D01*
Y134499D01*
X202994Y135499D01*
X205993D01*
X210991Y131500D02*
X208992D01*
X207992Y132500D01*
Y134499D01*
X208992Y135499D01*
X210991D01*
X211991Y134499D01*
Y133499D01*
X207992D01*
X213990Y135499D02*
Y131500D01*
Y133499D01*
X214990Y134499D01*
X215990Y135499D01*
X216989D01*
X223987Y131500D02*
X219988D01*
X223987Y135499D01*
Y136498D01*
X222987Y137498D01*
X220988D01*
X219988Y136498D01*
X96500Y25998D02*
Y20000D01*
X98499Y21999D01*
X100499Y20000D01*
Y25998D01*
X102498Y20000D02*
X104497D01*
X103498D01*
Y25998D01*
X102498Y24998D01*
X218000Y27498D02*
Y21500D01*
X219999Y23499D01*
X221999Y21500D01*
Y27498D01*
X226997Y21500D02*
Y27498D01*
X223998Y24499D01*
X227997D01*
X137000Y26498D02*
Y20500D01*
X138999Y22499D01*
X140999Y20500D01*
Y26498D01*
X146997Y20500D02*
X142998D01*
X146997Y24499D01*
Y25498D01*
X145997Y26498D01*
X143998D01*
X142998Y25498D01*
X177000Y26998D02*
Y21000D01*
X178999Y22999D01*
X180999Y21000D01*
Y26998D01*
X182998Y25998D02*
X183998Y26998D01*
X185997D01*
X186997Y25998D01*
Y24999D01*
X185997Y23999D01*
X184997D01*
X185997D01*
X186997Y22999D01*
Y22000D01*
X185997Y21000D01*
X183998D01*
X182998Y22000D01*
X22880Y405382D02*
Y403382D01*
Y404382D01*
X16882D01*
Y405382D01*
Y403382D01*
X21880Y396385D02*
X22880Y397385D01*
Y399384D01*
X21880Y400384D01*
X17882D01*
X16882Y399384D01*
Y397385D01*
X17882Y396385D01*
X21880Y390387D02*
X22880Y391386D01*
Y393386D01*
X21880Y394385D01*
X20881D01*
X19881Y393386D01*
Y391386D01*
X18881Y390387D01*
X17882D01*
X16882Y391386D01*
Y393386D01*
X17882Y394385D01*
X16882Y388387D02*
X22880D01*
Y385388D01*
X21880Y384389D01*
X19881D01*
X18881Y385388D01*
Y388387D01*
X492402Y43834D02*
Y45833D01*
Y44834D01*
X487403D01*
X486404Y45833D01*
Y46833D01*
X487403Y47833D01*
X492402Y37836D02*
Y41835D01*
X486404D01*
Y37836D01*
X489403Y41835D02*
Y39835D01*
X486404Y35836D02*
X492402D01*
Y32837D01*
X491402Y31838D01*
X489403D01*
X488403Y32837D01*
Y35836D01*
X491402Y25840D02*
X492402Y26839D01*
Y28839D01*
X491402Y29838D01*
X487403D01*
X486404Y28839D01*
Y26839D01*
X487403Y25840D01*
X492284Y16951D02*
X486286D01*
Y13952D01*
X487285Y12952D01*
X488285D01*
X489285Y13952D01*
Y16951D01*
Y13952D01*
X490284Y12952D01*
X491284D01*
X492284Y13952D01*
Y16951D01*
Y10953D02*
X486286D01*
Y7954D01*
X487285Y6954D01*
X488285D01*
X489285Y7954D01*
Y10953D01*
Y7954D01*
X490284Y6954D01*
X491284D01*
X492284Y7954D01*
Y10953D01*
X557998Y78000D02*
Y76001D01*
Y77000D01*
X552000D01*
Y78000D01*
Y76001D01*
X556998Y69003D02*
X557998Y70003D01*
Y72002D01*
X556998Y73002D01*
X553000D01*
X552000Y72002D01*
Y70003D01*
X553000Y69003D01*
X552000Y67004D02*
Y65004D01*
Y66004D01*
X557998D01*
X556998Y67004D01*
X554502Y181500D02*
Y183499D01*
Y182500D01*
X560500D01*
Y181500D01*
Y183499D01*
X555502Y190497D02*
X554502Y189497D01*
Y187498D01*
X555502Y186498D01*
X559500D01*
X560500Y187498D01*
Y189497D01*
X559500Y190497D01*
X560500Y196495D02*
Y192496D01*
X556501Y196495D01*
X555502D01*
X554502Y195495D01*
Y193496D01*
X555502Y192496D01*
X539500Y106002D02*
X537501D01*
X538500D01*
Y112000D01*
X539500D01*
X537501D01*
X530503Y107002D02*
X531503Y106002D01*
X533502D01*
X534502Y107002D01*
Y111000D01*
X533502Y112000D01*
X531503D01*
X530503Y111000D01*
X528504Y107002D02*
X527504Y106002D01*
X525504D01*
X524505Y107002D01*
Y108001D01*
X525504Y109001D01*
X526504D01*
X525504D01*
X524505Y110001D01*
Y111000D01*
X525504Y112000D01*
X527504D01*
X528504Y111000D01*
X6620Y220382D02*
Y222381D01*
Y221382D01*
X12618D01*
Y220382D01*
Y222381D01*
X7620Y229379D02*
X6620Y228379D01*
Y226380D01*
X7620Y225380D01*
X11618D01*
X12618Y226380D01*
Y228379D01*
X11618Y229379D01*
X12618Y234377D02*
X6620D01*
X9619Y231378D01*
Y235377D01*
X43380Y207835D02*
Y205835D01*
Y206835D01*
X37382D01*
Y207835D01*
Y205835D01*
X42380Y198838D02*
X43380Y199837D01*
Y201837D01*
X42380Y202836D01*
X38382D01*
X37382Y201837D01*
Y199837D01*
X38382Y198838D01*
X43380Y192840D02*
Y196838D01*
X40381D01*
X41381Y194839D01*
Y193839D01*
X40381Y192840D01*
X38382D01*
X37382Y193839D01*
Y195838D01*
X38382Y196838D01*
X207382Y156880D02*
X209381D01*
X208382D01*
Y150882D01*
X207382D01*
X209381D01*
X216379Y155880D02*
X215379Y156880D01*
X213380D01*
X212380Y155880D01*
Y151882D01*
X213380Y150882D01*
X215379D01*
X216379Y151882D01*
X222377Y156880D02*
X220378Y155880D01*
X218378Y153881D01*
Y151882D01*
X219378Y150882D01*
X221377D01*
X222377Y151882D01*
Y152881D01*
X221377Y153881D01*
X218378D01*
X310002Y388342D02*
Y390342D01*
Y389342D01*
X316000D01*
Y388342D01*
Y390342D01*
X311002Y397340D02*
X310002Y396340D01*
Y394341D01*
X311002Y393341D01*
X315000D01*
X316000Y394341D01*
Y396340D01*
X315000Y397340D01*
Y399339D02*
X316000Y400339D01*
Y402338D01*
X315000Y403338D01*
X311002D01*
X310002Y402338D01*
Y400339D01*
X311002Y399339D01*
X312001D01*
X313001Y400339D01*
Y403338D01*
X88963Y50762D02*
X86963D01*
X87963D01*
Y45763D01*
X86963Y44764D01*
X85963D01*
X84964Y45763D01*
X90962Y44764D02*
X92961D01*
X91961D01*
Y50762D01*
X90962Y49762D01*
X129463Y50762D02*
X127463D01*
X128463D01*
Y45763D01*
X127463Y44764D01*
X126463D01*
X125464Y45763D01*
X135460Y44764D02*
X131462D01*
X135460Y48763D01*
Y49762D01*
X134461Y50762D01*
X132462D01*
X131462Y49762D01*
X210247Y50762D02*
X208248D01*
X209247D01*
Y45763D01*
X208248Y44764D01*
X207248D01*
X206248Y45763D01*
X212246Y49762D02*
X213246Y50762D01*
X215246D01*
X216245Y49762D01*
Y48763D01*
X215246Y47763D01*
X214246D01*
X215246D01*
X216245Y46763D01*
Y45763D01*
X215246Y44764D01*
X213246D01*
X212246Y45763D01*
X169381Y49880D02*
X167381D01*
X168381D01*
Y44882D01*
X167381Y43882D01*
X166382D01*
X165382Y44882D01*
X174379Y43882D02*
Y49880D01*
X171380Y46881D01*
X175379D01*
X366998Y418844D02*
Y420843D01*
Y419843D01*
X362000D01*
X361000Y420843D01*
Y421843D01*
X362000Y422843D01*
X366998Y412846D02*
Y416845D01*
X363999D01*
X364999Y414845D01*
Y413845D01*
X363999Y412846D01*
X362000D01*
X361000Y413845D01*
Y415845D01*
X362000Y416845D01*
X366998Y406844D02*
Y408843D01*
Y407843D01*
X362000D01*
X361000Y408843D01*
Y409843D01*
X362000Y410843D01*
X366998Y400846D02*
X365999Y402845D01*
X363999Y404845D01*
X362000D01*
X361000Y403845D01*
Y401845D01*
X362000Y400846D01*
X363000D01*
X363999Y401845D01*
Y404845D01*
X328000Y36998D02*
Y31000D01*
X331999D01*
X337997Y36998D02*
X333998D01*
Y31000D01*
X337997D01*
X333998Y33999D02*
X335997D01*
X339996Y36998D02*
Y31000D01*
X342995D01*
X343995Y32000D01*
Y35998D01*
X342995Y36998D01*
X339996D01*
X345994Y31000D02*
X347993D01*
X346994D01*
Y36998D01*
X345994Y35998D01*
X378000Y36998D02*
Y31000D01*
X381999D01*
X387997Y36998D02*
X383998D01*
Y31000D01*
X387997D01*
X383998Y33999D02*
X385997D01*
X389996Y36998D02*
Y31000D01*
X392995D01*
X393995Y32000D01*
Y35998D01*
X392995Y36998D01*
X389996D01*
X399993Y31000D02*
X395994D01*
X399993Y34999D01*
Y35998D01*
X398993Y36998D01*
X396994D01*
X395994Y35998D01*
X235000Y30750D02*
Y36748D01*
X237999D01*
X238999Y35748D01*
Y33749D01*
X237999Y32749D01*
X235000D01*
X240998Y36748D02*
Y30750D01*
X242997Y32749D01*
X244997Y30750D01*
Y36748D01*
X246996Y30750D02*
Y36748D01*
X249995D01*
X250995Y35748D01*
Y33749D01*
X249995Y32749D01*
X246996D01*
X248995D02*
X250995Y30750D01*
X110382Y396382D02*
Y402380D01*
X112381Y400381D01*
X114381Y402380D01*
Y396382D01*
X117380D02*
X119379D01*
X120379Y397382D01*
Y399381D01*
X119379Y400381D01*
X117380D01*
X116380Y399381D01*
Y397382D01*
X117380Y396382D01*
X126377Y402380D02*
Y396382D01*
X123378D01*
X122378Y397382D01*
Y399381D01*
X123378Y400381D01*
X126377D01*
X128376D02*
Y397382D01*
X129376Y396382D01*
X132375D01*
Y400381D01*
X134374Y396382D02*
X136373D01*
X135374D01*
Y402380D01*
X134374D01*
X142371Y396382D02*
X140372D01*
X139373Y397382D01*
Y399381D01*
X140372Y400381D01*
X142371D01*
X143371Y399381D01*
Y398381D01*
X139373D01*
X149369Y402380D02*
X145371D01*
Y399381D01*
X147370Y400381D01*
X148370D01*
X149369Y399381D01*
Y397382D01*
X148370Y396382D01*
X146370D01*
X145371Y397382D01*
X328000Y4500D02*
Y10498D01*
X330999D01*
X331999Y9498D01*
Y7499D01*
X330999Y6499D01*
X328000D01*
X329999D02*
X331999Y4500D01*
X337997Y10498D02*
X335997Y9498D01*
X333998Y7499D01*
Y5500D01*
X334998Y4500D01*
X336997D01*
X337997Y5500D01*
Y6499D01*
X336997Y7499D01*
X333998D01*
X389000Y4500D02*
Y10498D01*
X391999D01*
X392999Y9498D01*
Y7499D01*
X391999Y6499D01*
X389000D01*
X390999D02*
X392999Y4500D01*
X394998Y10498D02*
X398997D01*
Y9498D01*
X394998Y5500D01*
Y4500D01*
X200382Y181382D02*
X194384D01*
Y184381D01*
X195384Y185381D01*
X197383D01*
X198382Y184381D01*
Y181382D01*
Y183381D02*
X200382Y185381D01*
Y187380D02*
Y189379D01*
Y188380D01*
X194384D01*
X195384Y187380D01*
X200382Y192378D02*
Y194378D01*
Y193378D01*
X194384D01*
X195384Y192378D01*
X216382Y187882D02*
Y193880D01*
X219381D01*
X220381Y192880D01*
Y190881D01*
X219381Y189881D01*
X216382D01*
X218381D02*
X220381Y187882D01*
X222380D02*
X224379D01*
X223380D01*
Y193880D01*
X222380Y192880D01*
X231377Y187882D02*
X227378D01*
X231377Y191881D01*
Y192880D01*
X230377Y193880D01*
X228378D01*
X227378Y192880D01*
X67382Y284382D02*
X73380D01*
Y281383D01*
X72380Y280383D01*
X70381D01*
X69381Y281383D01*
Y284382D01*
Y282382D02*
X67382Y280383D01*
Y278384D02*
Y276384D01*
Y277384D01*
X73380D01*
X72380Y278384D01*
Y273385D02*
X73380Y272386D01*
Y270386D01*
X72380Y269387D01*
X71381D01*
X70381Y270386D01*
Y271386D01*
Y270386D01*
X69381Y269387D01*
X68382D01*
X67382Y270386D01*
Y272386D01*
X68382Y273385D01*
X127505Y329498D02*
Y335496D01*
X130504D01*
X131504Y334496D01*
Y332497D01*
X130504Y331497D01*
X127505D01*
X129505D02*
X131504Y329498D01*
X133503D02*
X135503D01*
X134503D01*
Y335496D01*
X133503Y334496D01*
X142500Y335496D02*
X140501Y334496D01*
X138502Y332497D01*
Y330498D01*
X139501Y329498D01*
X141501D01*
X142500Y330498D01*
Y331497D01*
X141501Y332497D01*
X138502D01*
X480882Y493618D02*
Y499616D01*
X483881D01*
X484881Y498617D01*
Y496617D01*
X483881Y495617D01*
X480882D01*
X482881D02*
X484881Y493618D01*
X486880D02*
X488879D01*
X487880D01*
Y499616D01*
X486880Y498617D01*
X491878Y494618D02*
X492878Y493618D01*
X494877D01*
X495877Y494618D01*
Y498617D01*
X494877Y499616D01*
X492878D01*
X491878Y498617D01*
Y497617D01*
X492878Y496617D01*
X495877D01*
X480382Y478618D02*
Y484616D01*
X483381D01*
X484381Y483616D01*
Y481617D01*
X483381Y480618D01*
X480382D01*
X482381D02*
X484381Y478618D01*
X490379D02*
X486380D01*
X490379Y482617D01*
Y483616D01*
X489379Y484616D01*
X487380D01*
X486380Y483616D01*
X492378D02*
X493378Y484616D01*
X495377D01*
X496377Y483616D01*
Y479618D01*
X495377Y478618D01*
X493378D01*
X492378Y479618D01*
Y483616D01*
X233500Y3750D02*
Y9748D01*
X236499D01*
X237499Y8748D01*
Y6749D01*
X236499Y5749D01*
X233500D01*
X235499D02*
X237499Y3750D01*
X243497D02*
X239498D01*
X243497Y7749D01*
Y8748D01*
X242497Y9748D01*
X240498D01*
X239498Y8748D01*
X245496Y3750D02*
X247496D01*
X246496D01*
Y9748D01*
X245496Y8748D01*
X260499Y48748D02*
X259499Y49748D01*
X257500D01*
X256500Y48748D01*
Y47749D01*
X257500Y46749D01*
X259499D01*
X260499Y45749D01*
Y44750D01*
X259499Y43750D01*
X257500D01*
X256500Y44750D01*
X262498Y43750D02*
X264497D01*
X263498D01*
Y49748D01*
X262498Y48748D01*
X305499Y44998D02*
X304499Y45998D01*
X302500D01*
X301500Y44998D01*
Y43999D01*
X302500Y42999D01*
X304499D01*
X305499Y41999D01*
Y41000D01*
X304499Y40000D01*
X302500D01*
X301500Y41000D01*
X311497Y40000D02*
X307498D01*
X311497Y43999D01*
Y44998D01*
X310497Y45998D01*
X308498D01*
X307498Y44998D01*
X355499Y45498D02*
X354499Y46498D01*
X352500D01*
X351500Y45498D01*
Y44499D01*
X352500Y43499D01*
X354499D01*
X355499Y42499D01*
Y41500D01*
X354499Y40500D01*
X352500D01*
X351500Y41500D01*
X357498Y45498D02*
X358498Y46498D01*
X360497D01*
X361497Y45498D01*
Y44499D01*
X360497Y43499D01*
X359497D01*
X360497D01*
X361497Y42499D01*
Y41500D01*
X360497Y40500D01*
X358498D01*
X357498Y41500D01*
X406499Y44998D02*
X405499Y45998D01*
X403500D01*
X402500Y44998D01*
Y43999D01*
X403500Y42999D01*
X405499D01*
X406499Y41999D01*
Y41000D01*
X405499Y40000D01*
X403500D01*
X402500Y41000D01*
X411497Y40000D02*
Y45998D01*
X408498Y42999D01*
X412497D01*
X33498Y337501D02*
X34498Y338501D01*
Y340500D01*
X33498Y341500D01*
X32499D01*
X31499Y340500D01*
Y338501D01*
X30499Y337501D01*
X29500D01*
X28500Y338501D01*
Y340500D01*
X29500Y341500D01*
X34498Y331503D02*
Y335502D01*
X31499D01*
X32499Y333503D01*
Y332503D01*
X31499Y331503D01*
X29500D01*
X28500Y332503D01*
Y334502D01*
X29500Y335502D01*
X518000Y437350D02*
Y443349D01*
X520999D01*
X521999Y442349D01*
Y440349D01*
X520999Y439350D01*
X518000D01*
X519999D02*
X521999Y437350D01*
X527997Y443349D02*
X523998D01*
Y437350D01*
X527997D01*
X523998Y440349D02*
X525997D01*
X533995Y442349D02*
X532995Y443349D01*
X530996D01*
X529996Y442349D01*
Y438350D01*
X530996Y437350D01*
X532995D01*
X533995Y438350D01*
Y440349D01*
X531995D01*
X535994Y437350D02*
X537993D01*
X536994D01*
Y443349D01*
X535994Y442349D01*
X15002Y48000D02*
X21000D01*
X18001D01*
Y51999D01*
X15002D01*
X21000D01*
Y56997D02*
Y54998D01*
X20000Y53998D01*
X18001D01*
X17001Y54998D01*
Y56997D01*
X18001Y57997D01*
X19001D01*
Y53998D01*
X17001Y60996D02*
Y62995D01*
X18001Y63995D01*
X21000D01*
Y60996D01*
X20000Y59996D01*
X19001Y60996D01*
Y63995D01*
X15002Y69993D02*
X21000D01*
Y66994D01*
X20000Y65994D01*
X18001D01*
X17001Y66994D01*
Y69993D01*
X21000Y74991D02*
Y72992D01*
X20000Y71992D01*
X18001D01*
X17001Y72992D01*
Y74991D01*
X18001Y75991D01*
X19001D01*
Y71992D01*
X17001Y77990D02*
X21000D01*
X19001D01*
X18001Y78990D01*
X17001Y79990D01*
Y80989D01*
X21000Y83988D02*
Y85988D01*
Y84988D01*
X15002D01*
X16002Y83988D01*
X168504Y242496D02*
X167504Y243496D01*
X165505D01*
X164505Y242496D01*
Y238498D01*
X165505Y237498D01*
X167504D01*
X168504Y238498D01*
X170503Y242496D02*
X171503Y243496D01*
X173502D01*
X174502Y242496D01*
Y241497D01*
X173502Y240497D01*
X172503D01*
X173502D01*
X174502Y239497D01*
Y238498D01*
X173502Y237498D01*
X171503D01*
X170503Y238498D01*
X180500Y243496D02*
X176501D01*
Y240497D01*
X178501Y241497D01*
X179500D01*
X180500Y240497D01*
Y238498D01*
X179500Y237498D01*
X177501D01*
X176501Y238498D01*
X131736Y472734D02*
X135735Y466736D01*
Y472734D02*
X131736Y466736D01*
X137734Y472734D02*
Y466736D01*
X140733D01*
X141733Y467736D01*
Y468736D01*
X140733Y469735D01*
X137734D01*
X140733D01*
X141733Y470735D01*
Y471735D01*
X140733Y472734D01*
X137734D01*
X146731Y466736D02*
X144732D01*
X143732Y467736D01*
Y469735D01*
X144732Y470735D01*
X146731D01*
X147731Y469735D01*
Y468736D01*
X143732D01*
X152729Y466736D02*
X150730D01*
X149730Y467736D01*
Y469735D01*
X150730Y470735D01*
X152729D01*
X153729Y469735D01*
Y468736D01*
X149730D01*
X161726Y466736D02*
Y472734D01*
X164725D01*
X165725Y471735D01*
Y469735D01*
X164725Y468736D01*
X161726D01*
X167725Y470735D02*
Y466736D01*
Y468736D01*
X168724Y469735D01*
X169724Y470735D01*
X170724D01*
X174722Y466736D02*
X176722D01*
X177721Y467736D01*
Y469735D01*
X176722Y470735D01*
X174722D01*
X173723Y469735D01*
Y467736D01*
X174722Y466736D01*
X189717Y471735D02*
X188718Y472734D01*
X186718D01*
X185719Y471735D01*
Y470735D01*
X186718Y469735D01*
X188718D01*
X189717Y468736D01*
Y467736D01*
X188718Y466736D01*
X186718D01*
X185719Y467736D01*
X191717Y466736D02*
X193716D01*
X192717D01*
Y472734D01*
X191717Y471735D01*
D15*
X39000Y3000D02*
G03*
X34000Y3000I-2500J0D01*
G01*
X53236Y552236D02*
G03*
X58236Y552236I2500J0D01*
G01*
X256224Y21750D02*
G03*
X256224Y26750I0J2500D01*
G01*
X585724Y493618D02*
G03*
X585724Y493618I-9843J0D01*
G01*
X563951Y493646D02*
G03*
X563951Y493646I-9843J0D01*
G01*
X335724Y490382D02*
G03*
X335724Y490382I-9843J0D01*
G01*
X462803Y261197D02*
Y334031D01*
X389968Y261197D02*
Y334031D01*
X462803D01*
X389968Y261197D02*
X462803D01*
X147500Y454000D02*
X177500D01*
X147500Y444000D02*
Y454000D01*
Y444000D02*
X177500D01*
Y454000D01*
X17500Y449000D02*
X47500D01*
Y459000D01*
X17500D02*
X47500D01*
X17500Y449000D02*
Y459000D01*
X63500Y449000D02*
X93500D01*
Y459000D01*
X63500D02*
X93500D01*
X63500Y449000D02*
Y459000D01*
X145520Y587665D02*
X180953D01*
X211228Y560106D01*
X115244D02*
X145520Y587665D01*
X211228Y457744D02*
Y560106D01*
X115244Y457744D02*
X211228D01*
X115244D02*
Y560106D01*
X39000Y3000D02*
X60851D01*
X12150D02*
X34000D01*
X12150D02*
Y123000D01*
X60851D01*
Y3000D02*
Y123000D01*
X38028Y552236D02*
X53236D01*
X58236D02*
X74028D01*
X18567Y482236D02*
Y552236D01*
Y482236D02*
X93488D01*
Y552236D01*
X74028D02*
X93488D01*
X18567D02*
X38028D01*
X256224Y13817D02*
X296776D01*
X256224Y34683D02*
X296776D01*
X256224Y13817D02*
Y21750D01*
Y26750D02*
Y34683D01*
X296776Y13817D02*
Y34683D01*
X472150Y474622D02*
X505614D01*
X472150Y487614D02*
X505614D01*
Y474622D02*
Y487614D01*
X472150Y474622D02*
Y487614D01*
Y503614D02*
X505614D01*
X472150Y490622D02*
X505614D01*
X472150D02*
Y503614D01*
X505614Y490622D02*
Y503614D01*
X23000Y184000D02*
X45500D01*
X3500Y183981D02*
X12980D01*
X56020D02*
X62555D01*
X56000Y126500D02*
X62555D01*
X23000D02*
X45500D01*
X3500D02*
X12500D01*
X3500D02*
Y183981D01*
X62555Y126500D02*
Y183981D01*
X359500Y400843D02*
Y410843D01*
X339500Y400843D02*
X359500D01*
X339500D02*
Y410843D01*
X359500D01*
Y412343D02*
Y422343D01*
X339500Y412343D02*
X359500D01*
X339500D02*
Y422343D01*
X359500D01*
X164882Y21382D02*
X174882D01*
X164882D02*
Y41382D01*
X174882D01*
Y21382D02*
Y41382D01*
X205667Y21382D02*
X215667D01*
X205667D02*
Y41382D01*
X215667D01*
Y21382D02*
Y41382D01*
X124882Y21382D02*
X134882D01*
X124882D02*
Y41382D01*
X134882D01*
Y21382D02*
Y41382D01*
X84382Y21382D02*
X94382D01*
X84382D02*
Y41382D01*
X94382D01*
Y21382D02*
Y41382D01*
X157005Y282998D02*
Y332998D01*
X207005Y282998D02*
Y332998D01*
X157005Y282998D02*
X207005D01*
X157005Y332998D02*
X207005D01*
X434286Y2451D02*
X484286D01*
X434286Y22451D02*
X484286D01*
X434286Y2451D02*
Y22451D01*
X484286Y2451D02*
Y22451D01*
X434286Y25451D02*
X484286D01*
X434286Y45450D02*
X484286D01*
X434286Y25451D02*
Y45450D01*
X484286Y25451D02*
Y45450D01*
X548197Y587366D02*
X587567D01*
X548197Y551933D02*
X587567D01*
Y587366D01*
X548197Y551933D02*
Y587366D01*
X6882Y345882D02*
Y405882D01*
X5215D02*
X6882Y404215D01*
X-11451Y349215D02*
X1882D01*
X-13118Y350882D02*
X-11451Y349215D01*
X-13118Y350882D02*
X-11451Y352549D01*
X1882D01*
X-11451Y359215D02*
X1882D01*
X-13118Y360882D02*
X-11451Y359215D01*
X-13118Y360882D02*
X-11451Y362548D01*
X1882D01*
X-11451Y369215D02*
X1882D01*
X-13118Y370882D02*
X-11451Y369215D01*
X-13118Y370882D02*
X-11451Y372549D01*
X1882D01*
X-11451Y379215D02*
X1882D01*
X-13118Y380882D02*
X-11451Y379215D01*
X-13118Y380882D02*
X-11451Y382548D01*
X1882D01*
X-11451Y389215D02*
X1882D01*
X-13118Y390882D02*
X-11451Y389215D01*
X-13118Y390882D02*
X-11451Y392548D01*
X1882D01*
X-11451Y399215D02*
X1882D01*
X-13118Y400882D02*
X-11451Y399215D01*
X-13118Y400882D02*
X-11451Y402549D01*
X1882D01*
Y345882D02*
X6882D01*
X1882D02*
Y405882D01*
X6882D01*
X557500Y245000D02*
Y445000D01*
X577500Y245000D02*
Y445000D01*
X557500D02*
X577500D01*
X557500Y245000D02*
X577500D01*
X155049Y3882D02*
X185048D01*
Y8882D01*
X155049Y3882D02*
Y8882D01*
X185048D01*
X158382Y-9452D02*
Y3882D01*
Y-9452D02*
X160048Y-11118D01*
X161715Y-9452D01*
Y3882D01*
X168382Y-9452D02*
Y3882D01*
Y-9452D02*
X170048Y-11118D01*
X171715Y-9452D01*
Y3882D01*
X178382Y-9452D02*
Y3882D01*
Y-9452D02*
X180049Y-11118D01*
X181715Y-9452D01*
Y3882D01*
X115215D02*
X145215D01*
Y8882D01*
X115215Y3882D02*
Y8882D01*
X145215D01*
X118549Y-9452D02*
Y3882D01*
Y-9452D02*
X120215Y-11118D01*
X121882Y-9452D01*
Y3882D01*
X128549Y-9452D02*
Y3882D01*
Y-9452D02*
X130215Y-11118D01*
X131882Y-9452D01*
Y3882D01*
X138549Y-9452D02*
Y3882D01*
Y-9452D02*
X140215Y-11118D01*
X141882Y-9452D01*
Y3882D01*
X195667D02*
X225667D01*
Y8882D01*
X195667Y3882D02*
Y8882D01*
X225667D01*
X199000Y-9452D02*
Y3882D01*
Y-9452D02*
X200667Y-11118D01*
X202333Y-9452D01*
Y3882D01*
X209000Y-9452D02*
Y3882D01*
Y-9452D02*
X210667Y-11118D01*
X212333Y-9452D01*
Y3882D01*
X219000Y-9452D02*
Y3882D01*
Y-9452D02*
X220667Y-11118D01*
X222333Y-9452D01*
Y3882D01*
X74382D02*
X104382D01*
Y8882D01*
X74382Y3882D02*
Y8882D01*
X104382D01*
X77715Y-9452D02*
Y3882D01*
Y-9452D02*
X79382Y-11118D01*
X81049Y-9452D01*
Y3882D01*
X87715Y-9452D02*
Y3882D01*
Y-9452D02*
X89382Y-11118D01*
X91049Y-9452D01*
Y3882D01*
X97715Y-9452D02*
Y3882D01*
Y-9452D02*
X99382Y-11118D01*
X101049Y-9452D01*
Y3882D01*
X184000Y119000D02*
Y129000D01*
X244000Y119000D02*
Y129000D01*
X184000Y119000D02*
X244000D01*
X184000Y129000D02*
X244000D01*
X510882Y528366D02*
X510937Y528311D01*
X510882Y528366D02*
Y540366D01*
Y528311D02*
X546099D01*
X510665Y551366D02*
Y587366D01*
Y573587D02*
X546099D01*
Y528311D02*
Y551933D01*
Y587366D01*
X510665D02*
X546099D01*
X259500Y391500D02*
X269500D01*
Y351500D02*
Y391500D01*
X259500Y351500D02*
Y391500D01*
Y351500D02*
X269500D01*
X275000Y132500D02*
Y162500D01*
X265000D02*
X275000D01*
X265000Y132500D02*
Y162500D01*
Y132500D02*
X275000D01*
X61524Y192644D02*
X71524D01*
X61524D02*
Y232644D01*
X71524Y192644D02*
Y232644D01*
X61524D02*
X71524D01*
X521622Y482823D02*
X530709D01*
X539240D02*
Y508414D01*
X521524Y482823D02*
Y508414D01*
X525197D01*
X530055D02*
X539240D01*
X535567Y482823D02*
X539240D01*
D59*
X395086Y265134D02*
G03*
X395086Y265134I-1181J0D01*
G01*
X261343Y17754D02*
G03*
X261343Y17754I-1181J0D01*
G01*
X204249Y329061D02*
G03*
X204249Y329061I-1181J0D01*
G01*
D97*
X389673Y256079D02*
G03*
X389673Y256079I-492J0D01*
G01*
X256874Y9250D02*
G03*
X256874Y9250I-492J0D01*
G01*
X208777Y337624D02*
G03*
X208777Y337624I-492J0D01*
G01*
D98*
X317500Y394297D02*
G03*
X317500Y396797I0J1250D01*
G01*
X44118Y217071D02*
G03*
X41618Y217071I-1250J0D01*
G01*
X527500Y138811D02*
G03*
X530000Y138811I1250J0D01*
G01*
X181982Y236274D02*
Y240998D01*
Y236274D02*
X204029D01*
Y245722D01*
X181982D02*
X204029D01*
X181982Y240998D02*
Y245722D01*
X38382Y264882D02*
X38882D01*
X2382D02*
Y291882D01*
X38882Y264882D02*
Y291882D01*
X17382D02*
X26882D01*
X2382D02*
X5382D01*
X2382Y264882D02*
X5382D01*
X17382D02*
X26382D01*
X38382Y291882D02*
X38882D01*
X211324Y244179D02*
X235887D01*
X207887Y247616D02*
Y248616D01*
X211324Y252053D02*
X235887D01*
X233063Y28124D02*
X237000D01*
X233063Y12376D02*
Y28124D01*
Y12376D02*
X240937D01*
Y28124D01*
X237000D02*
X240937D01*
X142379Y323998D02*
Y327935D01*
X126631D02*
X142379D01*
X126631Y320061D02*
Y327935D01*
Y320061D02*
X142379D01*
Y323998D01*
X64382Y275882D02*
Y278882D01*
X51382Y275882D02*
Y278882D01*
X216008Y176945D02*
Y180882D01*
Y176945D02*
X231756D01*
Y184819D01*
X216008D02*
X231756D01*
X216008Y180882D02*
Y184819D01*
X207382Y177008D02*
X211319D01*
Y192756D01*
X203445D02*
X211319D01*
X203445Y177008D02*
Y192756D01*
Y177008D02*
X207382D01*
X391063Y28124D02*
X395000D01*
X391063Y12376D02*
Y28124D01*
Y12376D02*
X398937D01*
Y28124D01*
X395000D02*
X398937D01*
X331500Y12376D02*
X335437D01*
Y28124D01*
X327563D02*
X335437D01*
X327563Y12376D02*
Y28124D01*
Y12376D02*
X331500D01*
X242500Y17750D02*
X245500D01*
X247500Y15750D01*
Y13250D02*
Y15750D01*
Y27140D02*
X248610D01*
X253500Y16750D02*
Y23750D01*
X242500Y17750D02*
Y23750D01*
X247500Y13250D02*
X248500D01*
X378500Y17750D02*
X381500D01*
X383500Y15750D01*
Y13250D02*
Y15750D01*
Y27140D02*
X384610D01*
X389500Y16750D02*
Y23750D01*
X378500Y17750D02*
Y23750D01*
X383500Y13250D02*
X384500D01*
X337000Y17750D02*
X340000D01*
X342000Y15750D01*
Y13250D02*
Y15750D01*
Y27140D02*
X343110D01*
X348000Y16750D02*
Y23750D01*
X337000Y17750D02*
Y23750D01*
X342000Y13250D02*
X343000D01*
X317500Y392634D02*
X337500D01*
Y398461D01*
X317500D02*
X337500D01*
X317500Y396797D02*
Y398461D01*
Y392634D02*
Y394297D01*
X15476Y240693D02*
X47760D01*
X15476Y217071D02*
Y240693D01*
X47760Y217071D02*
Y240693D01*
X44118Y217071D02*
X47760D01*
X15476D02*
X41618D01*
X523858Y115189D02*
X556142D01*
Y138811D01*
X523858Y115189D02*
Y138811D01*
X527500D01*
X530000D02*
X556142D01*
X542075Y77591D02*
X543551D01*
X529181D02*
X531051D01*
X529181Y75819D02*
Y77591D01*
Y62630D02*
Y64402D01*
Y62630D02*
X531051D01*
X542075D02*
X544142D01*
Y64402D01*
Y75819D02*
Y77000D01*
X543551Y77591D02*
X544142Y77000D01*
X494787Y460618D02*
Y461118D01*
Y471118D02*
Y471618D01*
X477976Y460618D02*
Y461118D01*
X477882Y471118D02*
Y471618D01*
X494787D01*
X477976Y460618D02*
X494787D01*
X479882D02*
Y461118D01*
Y471118D02*
Y471618D01*
X344000Y377319D02*
X348725D01*
Y399366D01*
X339276D02*
X348725D01*
X339276Y377319D02*
Y399366D01*
Y377319D02*
X344000D01*
X466786Y52427D02*
X471510D01*
Y74474D01*
X462061D02*
X471510D01*
X462061Y52427D02*
Y74474D01*
Y52427D02*
X466786D01*
X181982Y247273D02*
Y251998D01*
Y247273D02*
X204029D01*
Y256722D01*
X181982D02*
X204029D01*
X181982Y251998D02*
Y256722D01*
X227505Y300348D02*
Y306648D01*
X222418Y303498D02*
Y306648D01*
X236592D01*
Y300348D02*
Y306648D01*
X222418Y300348D02*
X236592D01*
X222418D02*
Y303498D01*
X236350Y170799D02*
X239500D01*
X236350Y158201D02*
Y170799D01*
Y158201D02*
X242650D01*
Y170799D01*
X239500D02*
X242650D01*
X191157Y172406D02*
X195882D01*
X191157Y150358D02*
Y172406D01*
Y150358D02*
X200606D01*
Y172406D01*
X195882D02*
X200606D01*
X228232Y166382D02*
X234531D01*
X231382Y171468D02*
X234531D01*
Y157295D02*
Y171468D01*
X228232Y157295D02*
X234531D01*
X228232D02*
Y171468D01*
X231382D01*
X28276Y328024D02*
X33000D01*
X28276Y305977D02*
Y328024D01*
Y305977D02*
X37725D01*
Y328024D01*
X33000D02*
X37725D01*
X556024Y145000D02*
Y149724D01*
X533977D02*
X556024D01*
X533977Y140276D02*
Y149724D01*
Y140276D02*
X556024D01*
Y145000D01*
D99*
X15539Y201382D02*
G03*
X15539Y203382I-1000J1000D01*
G01*
X19882Y196382D02*
X21382D01*
X24882D02*
X25882D01*
X29882D02*
X30882D01*
X34476Y196476D02*
X35225D01*
Y208288D01*
X15539Y196476D02*
Y208288D01*
Y196476D02*
X16039D01*
X15539Y208288D02*
X16039D01*
X19882Y208382D02*
X21382D01*
X34476Y208288D02*
X35225D01*
X29882Y208382D02*
X30882D01*
X24882D02*
X25882D01*
D100*
X430786Y5451D02*
X432452D01*
X431619D01*
Y10449D01*
X430786Y9616D01*
X432118Y15451D02*
X428786D01*
X432118Y18783D01*
Y19616D01*
X431285Y20449D01*
X429619D01*
X428786Y19616D01*
X430404Y28333D02*
X432070D01*
X431237D01*
Y33331D01*
X430404Y32498D01*
X432236Y38833D02*
X428904D01*
X432236Y42165D01*
Y42998D01*
X431403Y43831D01*
X429737D01*
X428904Y42998D01*
X560500Y450000D02*
Y448334D01*
Y449167D01*
X565498D01*
X564665Y450000D01*
X570500Y447168D02*
Y450500D01*
X573832Y447168D01*
X574665D01*
X575498Y448001D01*
Y449667D01*
X574665Y450500D01*
D101*
X575881Y509268D02*
Y505332D01*
X577849Y507300D02*
X573913D01*
X554108Y509295D02*
Y505360D01*
X556076Y507327D02*
X552140D01*
X310232Y490381D02*
X314168D01*
X312200Y492349D02*
Y488413D01*
M02*
